<?xml version="1.0" encoding="utf-8"?>
<!-- Generator: Adobe Illustrator 16.0.3, SVG Export Plug-In . SVG Version: 6.00 Build 0)  -->
<!DOCTYPE svg PUBLIC "-//W3C//DTD SVG 1.1//EN" "http://www.w3.org/Graphics/SVG/1.1/DTD/svg11.dtd">
<svg version="1.1" id="Layer_1" xmlns="http://www.w3.org/2000/svg" xmlns:xlink="http://www.w3.org/1999/xlink" x="0px" y="0px"
	 width="595.281px" height="841.891px" viewBox="0 0 595.281 841.891" enable-background="new 0 0 595.281 841.891"
	 xml:space="preserve">
<g id="Group_6767" transform="translate(-1288.921 6833.083)">
	<g id="Group_6394" transform="translate(152.001 211)">
		<g id="Group_4662" transform="translate(79.122 82.941)">
			<path id="Path_2938_1_" fill="#00D5FF" stroke="#00D5FF" d="M1452.805-6410.333c-6.452-3.758-7.782-17.512-3.101-30.771
				c2.711-7.675,7.064-13.792,11.745-16.593l78.308-46.322l-23.667-106.448c-2.433-10.912,1.771-26.491,9.427-34.891
				c7.654-8.399,15.699-6.599,18.131,4.313l35.67,160.314l-118.026,69.812C1458.25-6409.082,1455.288-6408.884,1452.805-6410.333z"
				/>
		</g>
	</g>
</g>
<polygon fill="#00D5FF" stroke="#00D5FF" points="504.086,616.602 489.793,656.863 283.85,536.324 298.143,496.064 "/>
<text transform="matrix(0.2534 -0.0192 0.0221 0.9998 18.1294 425.0049)" font-family="'Arial-BoldMT'" font-size="315.5078">SAIU DA TELA</text>
</svg>
