<?xml version="1.0" encoding="utf-8"?>
<!-- Generator: Adobe Illustrator 23.0.0, SVG Export Plug-In . SVG Version: 6.00 Build 0)  -->
<svg version="1.1" id="Layer_1" xmlns="http://www.w3.org/2000/svg" xmlns:xlink="http://www.w3.org/1999/xlink" x="0px" y="0px"
	 viewBox="0 0 353.9 353.9" style="enable-background:new 0 0 353.9 353.9;" xml:space="preserve">
<style type="text/css">
	.st0{fill:#00D5FF;stroke:#00D5FF;}
	.st1{fill:#00D5FF;}
</style>
<g id="Group_6767" transform="translate(-1288.921 6833.083)">
	<g id="Group_6394" transform="translate(152.001 211)">
		<g id="Group_4662" transform="translate(79.122 82.941)">
			<path id="Path_2938" class="st0" d="M1250.2-7044.9c6.4,0,11.6,8.8,11.6,19.5c0,6.2-1.8,12.1-4.9,15.8l-51.4,62l50.9,62.4
				c5.2,6.4,6.3,18.6,2.4,27.2c-3.8,8.7-11.1,10.6-16.3,4.2l-76.6-94.1l77.5-93.4C1245.3-7043.6,1247.7-7044.9,1250.2-7044.9z"/>
			<path id="Path_2940" class="st0" d="M1302.7-7028.3c-2.1,0-4.2,1.1-5.9,3.1l-66.7,77.6l66,78.2c4.5,5.2,10.8,3.6,14-3.7
				c3.2-7.2,2.3-17.2-2.1-22.4l-43.8-51.9l44.3-51.5c4.5-5.2,5.5-15.4,2.3-22.6C1309-7025.8,1306-7028.3,1302.7-7028.3
				L1302.7-7028.3z"/>
			<path id="Path_2938_1_" class="st0" d="M1199.8-7067.7c7.8,0,14,10.8,14,24.1c0,7.7-2.2,14.9-5.9,19.5l-62.1,76.5l61.4,77.1
				c6.3,7.9,7.6,22.9,2.9,33.6s-13.4,13.1-19.7,5.2l-92.5-116.1l93.6-115.3C1193.9-7066.1,1196.8-7067.7,1199.8-7067.7z"/>
		</g>
		<g id="Group_4660" transform="translate(0)">
			<g id="cancel" transform="translate(0 0)">
				<path id="Path_2866" class="st1" d="M1490.8-6867.1c0.4-97.7-78.4-177.3-176.1-177.7c-97.7-0.4-177.3,78.4-177.7,176.1
					c-0.4,97.7,78.4,177.3,176.1,177.7C1410.8-6690.6,1490.4-6769.4,1490.8-6867.1C1490.8-6867.1,1490.8-6867.1,1490.8-6867.1z
					 M1170.1-6868.6c0.4-79.4,65-143.5,144.4-143.1c79.4,0.4,143.5,65,143.1,144.4c-0.4,79.4-65,143.5-144.4,143.1c0,0,0,0,0,0
					C1233.8-6724.6,1169.7-6789.2,1170.1-6868.6C1170.1-6868.6,1170.1-6868.6,1170.1-6868.6L1170.1-6868.6z"/>
			</g>
		</g>
	</g>
</g>
</svg>
