<?xml version="1.0" encoding="utf-8"?>
<!-- Generator: Adobe Illustrator 23.0.0, SVG Export Plug-In . SVG Version: 6.00 Build 0)  -->
<svg version="1.1" id="Layer_1" xmlns="http://www.w3.org/2000/svg" xmlns:xlink="http://www.w3.org/1999/xlink" x="0px" y="0px"
	 viewBox="0 0 353.9 353.9" style="enable-background:new 0 0 353.9 353.9;" xml:space="preserve">
<style type="text/css">
	.st0{fill:#01090B;}
	.st1{fill:#E10E0A;}
</style>
<g id="Group_6767" transform="translate(-1288.921 6833.083)">
	<g id="Group_6394" transform="translate(152.001 211)">
		<g id="Group_4660" transform="translate(0)">
			<g id="cancel" transform="translate(0 0)">
				<path id="Path_2866" class="st0" d="M1490.8-6867.1c0.4-97.7-78.4-177.3-176.1-177.7c-97.7-0.4-177.3,78.4-177.7,176.1
					c-0.4,97.7,78.4,177.3,176.1,177.7C1410.8-6690.6,1490.4-6769.4,1490.8-6867.1C1490.8-6867.1,1490.8-6867.1,1490.8-6867.1z
					 M1170.1-6868.6c0.4-79.4,65-143.5,144.4-143.1c79.4,0.4,143.5,65,143.1,144.4c-0.4,79.4-65,143.5-144.4,143.1c0,0,0,0,0,0
					C1233.8-6724.6,1169.7-6789.2,1170.1-6868.6C1170.1-6868.6,1170.1-6868.6,1170.1-6868.6L1170.1-6868.6z"/>
			</g>
		</g>
		<rect x="1201.1" y="-6890" class="st1" width="225.6" height="53.7"/>
	</g>
</g>
</svg>
