<?xml version="1.0" encoding="utf-8"?>
<!-- Generator: Adobe Illustrator 16.0.3, SVG Export Plug-In . SVG Version: 6.00 Build 0)  -->
<!DOCTYPE svg PUBLIC "-//W3C//DTD SVG 1.1//EN" "http://www.w3.org/Graphics/SVG/1.1/DTD/svg11.dtd">
<svg version="1.1" id="Capa_1" xmlns="http://www.w3.org/2000/svg" xmlns:xlink="http://www.w3.org/1999/xlink" x="0px" y="0px"
	 width="595.281px" height="841.891px" viewBox="0 0 595.281 841.891" enable-background="new 0 0 595.281 841.891"
	 xml:space="preserve">
<g>
	<g id="bluetooth">
		<path fill="#006DF0" d="M536.448,267.96L381.154,98.305h-27.245v226.207L228.583,187.597l-38.143,41.67l152.571,166.678
			L190.44,562.623l38.143,41.67l125.326-136.914v226.207h27.245L536.448,523.93L419.296,395.945L536.448,267.96z M408.399,211.409
			l51.764,56.551l-51.764,56.553V211.409z M460.163,523.93l-51.764,56.552V467.379L460.163,523.93z"/>
	</g>
	<g>
		<ellipse cx="246.502" cy="614.215" rx="9.946" ry="9.921"/>
		<ellipse cx="206.71" cy="614.215" rx="9.947" ry="9.921"/>
		<ellipse cx="166.92" cy="614.215" rx="9.949" ry="9.921"/>
		<ellipse cx="266.4" cy="425.709" rx="9.949" ry="9.921"/>
		<ellipse cx="246.502" cy="316.574" rx="9.946" ry="9.921"/>
		<ellipse cx="206.71" cy="316.574" rx="9.947" ry="9.921"/>
		<ellipse cx="226.607" cy="296.732" rx="9.948" ry="9.921"/>
		<ellipse cx="206.71" cy="276.889" rx="9.947" ry="9.921"/>
		<ellipse cx="246.502" cy="356.26" rx="9.946" ry="9.921"/>
		<ellipse cx="266.4" cy="336.417" rx="9.949" ry="9.921"/>
		<ellipse cx="226.607" cy="336.417" rx="9.948" ry="9.921"/>
		<ellipse cx="266.4" cy="455.473" rx="9.949" ry="9.921"/>
		<ellipse cx="266.4" cy="485.238" rx="9.949" ry="9.921"/>
		<ellipse cx="266.4" cy="515.001" rx="9.949" ry="9.921"/>
		<ellipse cx="266.4" cy="544.765" rx="9.949" ry="9.921"/>
		<ellipse cx="266.4" cy="574.53" rx="9.949" ry="9.921"/>
		<ellipse cx="226.607" cy="594.372" rx="9.948" ry="9.921"/>
		<ellipse cx="186.815" cy="594.372" rx="9.948" ry="9.921"/>
		<path d="M67.439,634.057h49.74v-59.528c0-75.313,41.255-143.264,106.583-178.584c-65.328-35.32-106.583-103.271-106.583-178.584
			v-59.528h-49.74c-16.454,0-29.844-13.354-29.844-29.764s13.39-29.764,29.844-29.764h228.804c5.491,0,9.948,4.435,9.948,9.921
			s-4.457,9.921-9.948,9.921H67.439c-5.481,0-9.946,4.445-9.946,9.922s4.465,9.921,9.946,9.921h49.74h179.063
			c5.491,0,9.948,4.436,9.948,9.922s-4.457,9.921-9.948,9.921H137.075v59.528c0,74.32,44.439,140.813,113.219,169.407
			c0.01,0,0.01,0,0.02,0.01c0,0,0.01,0.01,0.02,0.01c0.11,0.05,0.179,0.139,0.288,0.198c1.065,0.486,2.07,1.121,2.916,1.965
			c0.695,0.694,1.163,1.537,1.612,2.391c0.158,0.288,0.407,0.486,0.536,0.794c0,0.01,0,0.02,0,0.02c0.497,1.2,0.756,2.49,0.756,3.8
			s-0.259,2.6-0.746,3.79c0,0,0,0.021-0.01,0.03c-0.458,1.102-1.134,2.033-1.909,2.867c-0.22,0.229-0.468,0.406-0.707,0.625
			c-0.688,0.615-1.422,1.111-2.238,1.508c-0.188,0.09-0.308,0.258-0.508,0.338c-68.789,28.583-113.248,95.086-113.248,169.416
			v59.528c0-5.477,4.457-9.921,9.948-9.921s9.948,4.444,9.948,9.921h19.896c0-5.477,4.457-9.921,9.948-9.921
			s9.948,4.444,9.948,9.921h19.896c0-5.477,4.457-9.921,9.948-9.921s9.949,4.444,9.949,9.921h19.895
			c0-5.477,4.457-9.921,9.949-9.921c5.491,0,9.948,4.444,9.948,9.921h19.895c5.491,0,9.948,4.435,9.948,9.922
			c0,5.486-4.457,9.921-9.948,9.921H117.179h-49.74c-5.481,0-9.946,4.444-9.946,9.921s4.465,9.922,9.946,9.922h228.804
			c5.491,0,9.948,4.435,9.948,9.921s-4.457,9.922-9.948,9.922H67.439c-16.454,0-29.844-13.354-29.844-29.765
			C37.595,647.412,50.985,634.057,67.439,634.057z"/>
	</g>
</g>
</svg>
