<svg xmlns="http://www.w3.org/2000/svg" viewBox="4685.647 7120.586 337.271 337.278">
  <defs>
    <style>
      .cls-1 {
        fill: #00d5ff;
        fill-rule: evenodd;
      }
    </style>
  </defs>
  <path id="Path_2976" data-name="Path 2976" class="cls-1" d="M336.219,149.914c-.533-4.741-6.061-8.3-10.841-8.3A37.237,37.237,0,0,1,299.889,76.8a9.366,9.366,0,0,0,1.025-12.716A166.874,166.874,0,0,0,274.2,37.1a9.385,9.385,0,0,0-12.816,1.035c-10.052,11.132-28.108,15.27-42.06,9.448a37.459,37.459,0,0,1-22.779-36.613,9.356,9.356,0,0,0-8.276-9.85,168.365,168.365,0,0,0-37.939-.1,9.385,9.385,0,0,0-8.35,9.649,37.521,37.521,0,0,1-23.092,35.981c-13.785,5.631-31.714,1.528-41.746-9.5a9.4,9.4,0,0,0-12.726-1.07A167.5,167.5,0,0,0,37.13,63.05a9.381,9.381,0,0,0,1.006,12.818,37.37,37.37,0,0,1,9.43,42.077c-5.822,13.862-20.216,22.8-36.694,22.8a9.167,9.167,0,0,0-9.741,8.279,168.934,168.934,0,0,0-.073,38.352c.53,4.761,6.226,8.292,11.058,8.292,14.685-.375,28.784,8.717,34.7,23.109a37.5,37.5,0,0,1-9.43,41.7,9.372,9.372,0,0,0-1.025,12.707,167.479,167.479,0,0,0,26.678,26.991,9.378,9.378,0,0,0,12.835-1.016c10.09-11.16,28.144-15.29,42.041-9.457a37.4,37.4,0,0,1,22.816,36.6,9.367,9.367,0,0,0,8.276,9.851,167.849,167.849,0,0,0,37.94.1,9.385,9.385,0,0,0,8.349-9.658,37.482,37.482,0,0,1,23.073-35.962c13.878-5.668,31.732-1.52,41.765,9.5a9.423,9.423,0,0,0,12.727,1.064,167.894,167.894,0,0,0,27.282-26.973,9.363,9.363,0,0,0-1.008-12.816,37.368,37.368,0,0,1-9.448-42.07,37.755,37.755,0,0,1,34.5-22.861l2.086.054a9.387,9.387,0,0,0,9.87-8.267A168.792,168.792,0,0,0,336.219,149.914ZM168.906,225.246A56.25,56.25,0,1,1,225.155,169,56.311,56.311,0,0,1,168.906,225.246Z" transform="translate(4685.644 7120.586)"/>
</svg>
