<?xml version="1.0" encoding="utf-8"?>
<!-- Generator: Adobe Illustrator 16.0.3, SVG Export Plug-In . SVG Version: 6.00 Build 0)  -->
<!DOCTYPE svg PUBLIC "-//W3C//DTD SVG 1.1//EN" "http://www.w3.org/Graphics/SVG/1.1/DTD/svg11.dtd">
<svg version="1.1" id="Capa_1" xmlns="http://www.w3.org/2000/svg" xmlns:xlink="http://www.w3.org/1999/xlink" x="0px" y="0px"
	 width="841.89px" height="566.93px" viewBox="0 0 841.89 566.93" enable-background="new 0 0 841.89 566.93" xml:space="preserve">
<g>
	<g id="bluetooth">
		<path fill="#1B67AC" d="M554.383,134.936l-95.571-93.715h-16.769v124.955l-77.129-75.631l-23.474,23.019l93.896,92.072
			l-93.896,92.071l23.474,23.019l77.129-75.631V370.05h16.769l95.571-93.718l-72.099-70.697L554.383,134.936z M475.577,103.698
			l31.858,31.238l-31.858,31.239V103.698z M507.436,276.332l-31.858,31.239v-62.478L507.436,276.332z"/>
	</g>
	<g>
		<ellipse cx="375.943" cy="326.206" rx="6.122" ry="5.481"/>
		<ellipse cx="351.453" cy="326.206" rx="6.121" ry="5.481"/>
		<ellipse cx="326.966" cy="326.206" rx="6.124" ry="5.481"/>
		<ellipse cx="388.188" cy="222.076" rx="6.123" ry="5.48"/>
		<ellipse cx="375.943" cy="161.791" rx="6.122" ry="5.48"/>
		<ellipse cx="351.453" cy="161.791" rx="6.121" ry="5.48"/>
		<ellipse cx="363.698" cy="150.83" rx="6.123" ry="5.481"/>
		<ellipse cx="351.453" cy="139.868" rx="6.121" ry="5.481"/>
		<ellipse cx="375.943" cy="183.713" rx="6.122" ry="5.481"/>
		<ellipse cx="388.188" cy="172.751" rx="6.123" ry="5.48"/>
		<ellipse cx="363.698" cy="172.751" rx="6.123" ry="5.48"/>
		<ellipse cx="388.188" cy="238.518" rx="6.123" ry="5.48"/>
		<ellipse cx="388.188" cy="254.958" rx="6.123" ry="5.48"/>
		<ellipse cx="388.188" cy="271.4" rx="6.123" ry="5.48"/>
		<ellipse cx="388.188" cy="287.842" rx="6.123" ry="5.48"/>
		<ellipse cx="388.188" cy="304.283" rx="6.123" ry="5.48"/>
		<ellipse cx="363.698" cy="315.244" rx="6.123" ry="5.48"/>
		<ellipse cx="339.209" cy="315.244" rx="6.123" ry="5.48"/>
		<path d="M265.742,337.166h30.612v-32.883c0-41.602,25.389-79.137,65.594-98.648c-40.206-19.511-65.594-57.047-65.594-98.648
			V74.103h-30.612c-10.126,0-18.366-7.377-18.366-16.441c0-9.064,8.24-16.441,18.366-16.441h140.812c3.379,0,6.123,2.449,6.123,5.48
			s-2.743,5.48-6.123,5.48H265.742c-3.373,0-6.121,2.456-6.121,5.481c0,3.025,2.748,5.479,6.121,5.479h30.612h110.2
			c3.379,0,6.123,2.451,6.123,5.481s-2.743,5.48-6.123,5.48h-97.956v32.884c0,41.053,27.349,77.783,69.678,93.578
			c0.006,0,0.006,0,0.012,0.006c0,0,0.006,0.005,0.012,0.005c0.067,0.028,0.109,0.077,0.177,0.11
			c0.655,0.269,1.274,0.62,1.794,1.086c0.428,0.383,0.716,0.848,0.993,1.32c0.097,0.159,0.25,0.269,0.33,0.438
			c0,0.005,0,0.011,0,0.011c0.306,0.664,0.465,1.375,0.465,2.1c0,0.722-0.159,1.435-0.459,2.093c0,0,0,0.011-0.006,0.017
			c-0.282,0.609-0.697,1.124-1.175,1.585c-0.135,0.126-0.288,0.223-0.435,0.344c-0.423,0.34-0.875,0.615-1.378,0.834
			c-0.115,0.049-0.188,0.142-0.312,0.186c-42.334,15.789-69.696,52.525-69.696,93.584v32.883c0-3.025,2.743-5.479,6.123-5.479
			c3.379,0,6.122,2.454,6.122,5.479h12.244c0-3.025,2.743-5.479,6.123-5.479c3.38,0,6.123,2.454,6.123,5.479h12.244
			c0-3.025,2.744-5.479,6.123-5.479c3.38,0,6.124,2.454,6.124,5.479h12.244c0-3.025,2.743-5.479,6.123-5.479
			c3.379,0,6.123,2.454,6.123,5.479h12.244c3.379,0,6.123,2.449,6.123,5.479c0,3.031-2.743,5.481-6.123,5.481h-110.2h-30.612
			c-3.373,0-6.121,2.455-6.121,5.48s2.748,5.479,6.121,5.479h140.812c3.379,0,6.123,2.451,6.123,5.481
			c0,3.031-2.743,5.481-6.123,5.481H265.742c-10.126,0-18.366-7.378-18.366-16.442S255.616,337.166,265.742,337.166z"/>
	</g>
</g>
<text transform="matrix(0.5919 0 0 1 60.7202 480.7598)" font-family="'ArialMT'" font-size="132.5416">Aguardando conexão</text>
</svg>
