<svg xmlns="http://www.w3.org/2000/svg" viewBox="7073.491 7059.773 272.48 503.991">
  <defs>
    <style>
      .cls-1 {
        fill: #fff;
      }
    </style>
  </defs>
  <path id="Path_4678" data-name="Path 4678" class="cls-1" d="M284.3.1,218.941,0C145.516,0,98.066,48.683,98.066,124.033V181.22H32.354A10.278,10.278,0,0,0,22.077,191.5V274.36a10.276,10.276,0,0,0,10.277,10.277H98.066V493.714a10.273,10.273,0,0,0,10.276,10.277h85.736a10.276,10.276,0,0,0,10.276-10.277V284.637h76.833a10.273,10.273,0,0,0,10.277-10.277l.031-82.858a10.284,10.284,0,0,0-10.282-10.282H204.354V132.742c0-23.3,5.553-35.129,35.9-35.129l44.026-.016A10.275,10.275,0,0,0,294.557,87.32V10.382A10.28,10.28,0,0,0,284.3.1Z" transform="translate(7051.414 7059.773)"/>
</svg>
