<svg xmlns="http://www.w3.org/2000/svg" viewBox="6015.733 7124.343 365.098 365.1">
  <defs>
    <style>
      .cls-1 {
        fill: #00d5ff;
      }
    </style>
  </defs>
  <g id="ajuda" transform="translate(6015.733 7124.343)">
    <path id="Path_2977" data-name="Path 2977" class="cls-1" d="M180.111.016C79.3,1.366-1.324,84.191.017,185.006,1.367,285.778,84.185,366.425,184.993,365.083c100.792-1.357,181.431-84.183,180.09-184.99C363.733,79.314,280.911-1.329,180.111.016Zm-.54,293.65-1.008-.016c-15.525-.46-26.47-11.9-26.029-27.192.433-15.033,11.644-25.946,26.656-25.946l.9.016c15.957.472,26.779,11.794,26.331,27.529C205.978,283.135,194.942,293.667,179.572,293.667Zm65.3-129.606c-3.651,5.187-11.679,11.628-21.795,19.509l-11.14,7.691c-6.115,4.754-9.806,9.227-11.191,13.628-1.091,3.464-1.627,4.381-1.722,11.429l-.016,1.79H156.475l.123-3.6c.52-14.794.885-23.5,7.016-30.688,9.62-11.294,30.839-24.958,31.74-25.537a33.5,33.5,0,0,0,7.512-7.683c4.465-6.155,6.441-11,6.441-15.763a30.718,30.718,0,0,0-5.838-18.16c-3.726-5.25-10.806-7.909-21.045-7.909-10.155,0-17.108,3.222-21.267,9.834a39.489,39.489,0,0,0-6.441,21.231v1.814H110.861l.079-1.893c1.131-26.863,10.719-46.2,28.486-57.491,11.163-7.187,25.053-10.83,41.26-10.83,21.216,0,39.125,5.155,53.225,15.322,14.287,10.3,21.533,25.732,21.533,45.86A52.464,52.464,0,0,1,244.873,164.061Z" transform="translate(-0.001 0)"/>
  </g>
</svg>
