<svg xmlns="http://www.w3.org/2000/svg" viewBox="-627.453 7068.89 345.95 313.427">
  <defs>
    <style>
      .cls-1 {
        fill: none;
        stroke: #ec1c81;
        stroke-width: 7px;
      }

      .cls-2 {
        fill: #ec1c81;
      }
    </style>
  </defs>
  <g id="Group_6396" data-name="Group 6396" transform="translate(-772.951 6849.613)">
    <g id="warning-exclamation-sign-in-filled-triangle" transform="translate(149 222.777)">
      <path id="Path_2913" data-name="Path 2913" class="cls-1" d="M26.847,312.375h285.38a26.7,26.7,0,0,0,23.782-38.816L193.319,20.708c-9.843-19.679-38-19.679-47.837,0L2.792,273.559C-5.956,291.327,6.892,312.375,26.847,312.375Z" transform="translate(0 -5.949)"/>
    </g>
    <g id="Group_4665" data-name="Group 4665" transform="translate(291.687 324.944)">
      <g id="exclamation" transform="translate(0 0)">
        <g id="Group_4415" data-name="Group 4415">
          <path id="Path_2867" data-name="Path 2867" class="cls-2" d="M183.427,301.5h-29.8a7.553,7.553,0,0,0-7.451,7.449v26.074a7.55,7.55,0,0,0,7.451,7.451h29.8a7.547,7.547,0,0,0,7.448-7.451V308.948a7.555,7.555,0,0,0-7.45-7.449Z" transform="translate(-142.682 -178.578)"/>
          <path id="Path_2868" data-name="Path 2868" class="cls-2" d="M187.253,2.211A6.976,6.976,0,0,0,182.073,0H144.825a6.977,6.977,0,0,0-5.179,2.211,6.856,6.856,0,0,0-2.037,5.239l3.258,89.395a7.489,7.489,0,0,0,2.386,5.238,7.346,7.346,0,0,0,5.3,2.214h29.8a7.358,7.358,0,0,0,5.3-2.214,7.508,7.508,0,0,0,2.386-5.238L189.29,7.45A6.845,6.845,0,0,0,187.253,2.211Z" transform="translate(-137.603)"/>
        </g>
      </g>
    </g>
  </g>
</svg>
