<svg xmlns="http://www.w3.org/2000/svg" viewBox="8012.294 7129.979 342.786 299.235">
  <defs>
    <style>
      .cls-1 {
        fill: #fff;
      }
    </style>
  </defs>
  <path id="Path_4679" data-name="Path 4679" class="cls-1" d="M526.94,634.4a46.07,46.07,0,0,0-32.766-13.582H469.81L405.258,439.625A38.678,38.678,0,0,0,368.991,414a37.77,37.77,0,0,0-22.124,7,39.261,39.261,0,0,0-14.143,18.483L268.033,620.678H243.808a46.279,46.279,0,0,0,0,92.557H494.174a46.254,46.254,0,0,0,46.208-46.208A45.751,45.751,0,0,0,526.94,634.4ZM351.208,446.346a18.433,18.433,0,0,1,6.861-9.1,18.694,18.694,0,0,1,28.565,9.1l62.311,174.612H288.9ZM455.947,640.561l19.044,53.35H262.852l19.044-53.35Zm-238.884,26.6a26.593,26.593,0,0,1,26.6-26.6h17.223l-19.043,53.21a26.428,26.428,0,0,1-17.083-7.7A27.3,27.3,0,0,1,217.064,667.166Zm278.791,26.6-19.043-53.21h17.363a26.628,26.628,0,0,1,1.68,53.21Z" transform="translate(7814.694 6715.979)"/>
</svg>
