<svg xmlns="http://www.w3.org/2000/svg" viewBox="8500.79 7112.555 359.135 397.125">
  <defs>
    <style>
      .cls-1 {
        fill: #fff;
      }
    </style>
  </defs>
  <g id="Group_6772" data-name="Group 6772" transform="translate(8500.79 7112.555)">
    <g id="Group_6201" data-name="Group 6201" transform="translate(0 322.275)">
      <g id="Group_6200" data-name="Group 6200">
        <path id="Path_4621" data-name="Path 4621" class="cls-1" d="M9.462,257.791c3.389-2.26,7.2-3.389,12.569-3.389,5.225,0,11.157,1.412,15.111,5.649,3.672,3.813,5.649,9.18,5.649,16.241,0,6.214-1.977,11.439-5.225,15.111-3.672,4.378-9.321,6.779-16.382,6.779-6.355,0-12.428-1.977-16.382-6.638-3.107-3.672-4.8-8.615-4.8-16.1V238.16a4.732,4.732,0,0,1,9.462,0Zm0,8.332v9.745c0,5.225.989,8.474,3.107,10.874,2.26,2.542,5.367,3.39,8.615,3.39a11.133,11.133,0,0,0,9.462-4.66,15.752,15.752,0,0,0,2.824-9.18c0-4.66-1.271-8.191-3.389-10.451-2.118-2.4-5.225-3.672-9.18-3.672C15.676,262.027,12.71,263.581,9.462,266.123Z" transform="translate(0 -226.015)"/>
        <path id="Path_4622" data-name="Path 4622" class="cls-1" d="M40.951,268.778c5.225-2.118,12-2.825,17.794-3.248V264.4c0-2.966-.565-4.8-1.695-6.355-1.412-1.695-3.672-2.4-6.214-2.4a21.139,21.139,0,0,0-7.909,1.695c-2.118.989-3.248,1.412-4.519,1.412a3.263,3.263,0,0,1-3.389-3.389c0-2.4,2.26-3.672,4.943-4.8a31.7,31.7,0,0,1,11.863-2.26c4.1,0,9.321.847,12.851,4.66,2.26,2.542,3.531,5.931,3.531,11.3v23.161a4.8,4.8,0,0,1-4.66,4.66,4.675,4.675,0,0,1-4.378-2.542,24.094,24.094,0,0,1-11.722,2.542c-7.485,0-14.546-4.378-14.546-12.71C32.76,273.862,36.291,270.614,40.951,268.778ZM58.745,282.9V272.026c-10.027.565-16.806,2.4-16.806,7.344,0,4.1,4.1,5.931,8.473,5.931A17.048,17.048,0,0,0,58.745,282.9Z" transform="translate(13.562 -219.914)"/>
        <path id="Path_4623" data-name="Path 4623" class="cls-1" d="M62.2,238.26a4.7,4.7,0,0,1,4.66-4.66,4.527,4.527,0,0,1,4.66,4.66v55.36a4.7,4.7,0,0,1-4.66,4.66,4.611,4.611,0,0,1-4.66-4.66Z" transform="translate(25.642 -225.974)"/>
        <path id="Path_4624" data-name="Path 4624" class="cls-1" d="M74.4,236.908a5.508,5.508,0,1,1,5.508,5.508A5.426,5.426,0,0,1,74.4,236.908Zm5.649,18.5a4.611,4.611,0,0,1,4.66,4.66v34.6a4.8,4.8,0,0,1-4.66,4.66,4.527,4.527,0,0,1-4.66-4.66v-34.6A4.526,4.526,0,0,1,80.049,255.408Z" transform="translate(30.671 -226.881)"/>
        <path id="Path_4625" data-name="Path 4625" class="cls-1" d="M119.829,282.653a4.069,4.069,0,0,1,3.954,4.1,3.98,3.98,0,0,1-3.954,4.1H91.443c-2.4,0-4.1-1.412-4.1-3.672a5.6,5.6,0,0,1,1.695-3.813l20.478-26.268H90.6a4.011,4.011,0,0,1-4.1-4.1,4.192,4.192,0,0,1,4.1-4.1h28.1a3.638,3.638,0,0,1,3.954,3.672,5.888,5.888,0,0,1-1.695,3.813l-20.478,26.127h19.348Z" transform="translate(35.66 -219.666)"/>
        <path id="Path_4626" data-name="Path 4626" class="cls-1" d="M123.851,268.778c5.225-2.118,12-2.825,17.794-3.248V264.4c0-2.966-.565-4.8-1.695-6.355-1.412-1.695-3.672-2.4-6.214-2.4a21.14,21.14,0,0,0-7.909,1.695c-2.118.989-3.248,1.412-4.519,1.412a3.263,3.263,0,0,1-3.389-3.389c0-2.4,2.26-3.672,4.943-4.8a31.7,31.7,0,0,1,11.863-2.26c4.1,0,9.321.847,12.851,4.66,2.26,2.542,3.531,5.931,3.531,11.3v23.161a4.8,4.8,0,0,1-4.66,4.66,4.675,4.675,0,0,1-4.378-2.542,24.094,24.094,0,0,1-11.722,2.542c-7.485,0-14.546-4.378-14.546-12.71C115.66,273.862,119.191,270.614,123.851,268.778ZM141.645,282.9V272.026c-10.027.565-16.806,2.4-16.806,7.344,0,4.1,4.1,5.931,8.474,5.931A17.048,17.048,0,0,0,141.645,282.9Z" transform="translate(47.737 -219.914)"/>
        <path id="Path_4627" data-name="Path 4627" class="cls-1" d="M180.792,255.249a3.865,3.865,0,0,1,3.672,3.813,3.562,3.562,0,0,1-3.672,3.672h-9.745v30.928a4.826,4.826,0,0,1-4.8,4.66,4.611,4.611,0,0,1-4.66-4.66V262.734h-3.813a3.646,3.646,0,0,1-3.672-3.672,3.865,3.865,0,0,1,3.672-3.813h3.813v-6.355c0-7.909,2.966-15.393,13.416-15.393a23.052,23.052,0,0,1,8.9,1.695c2.683,1.13,4.66,2.825,4.66,5.225a3.375,3.375,0,0,1-3.531,3.672c-2.683,0-4.66-2.26-8.191-2.26-4.378,0-5.931,2.825-5.931,7.626v5.649h9.886Z" transform="translate(63.528 -226.015)"/>
        <path id="Path_4628" data-name="Path 4628" class="cls-1" d="M183.851,277.064c5.225-2.118,12-2.825,17.794-3.248v-1.13c0-2.966-.565-4.8-1.695-6.355-1.412-1.695-3.672-2.4-6.214-2.4a21.139,21.139,0,0,0-7.909,1.695c-2.118.989-3.248,1.412-4.519,1.412a3.263,3.263,0,0,1-3.389-3.389c0-2.4,2.26-3.672,4.943-4.8a31.7,31.7,0,0,1,11.863-2.26c4.1,0,9.321.847,12.851,4.66,2.26,2.542,3.531,5.931,3.531,11.3v23.161a4.8,4.8,0,0,1-4.66,4.661,4.674,4.674,0,0,1-4.378-2.542,24.1,24.1,0,0,1-11.722,2.542c-7.485,0-14.546-4.378-14.546-12.71C175.66,282.148,179.191,278.9,183.851,277.064Zm17.794,14.122V280.312c-10.027.565-16.806,2.4-16.806,7.344,0,4.1,4.1,5.931,8.474,5.931A17.049,17.049,0,0,0,201.645,291.186Zm-7.626-49.146,6.073-11.3c.706-1.412,1.695-2.542,3.531-2.542a3.767,3.767,0,0,1,3.813,3.672,4.48,4.48,0,0,1-.989,2.542l-6.5,10.733c-.847,1.412-1.695,2.118-3.107,2.118A3.142,3.142,0,0,1,193.6,244.3,2.582,2.582,0,0,1,194.019,242.04Z" transform="translate(72.472 -228.2)"/>
        <path id="Path_4629" data-name="Path 4629" class="cls-1" d="M238.07,259.216c-1.412,0-2.118-.424-3.813-1.271a15.668,15.668,0,0,0-6.355-1.412,13.42,13.42,0,0,0-10.309,4.378,14.066,14.066,0,0,0-3.389,9.462,13.78,13.78,0,0,0,3.672,9.886c2.26,2.542,5.79,3.954,10.027,3.954a15.457,15.457,0,0,0,6.638-1.271c1.836-.706,2.26-1.271,3.813-1.271a3.92,3.92,0,0,1,3.813,3.954c0,2.26-1.977,3.672-5.225,4.943a27.5,27.5,0,0,1-9.321,1.412c-7.344,0-13.275-2.26-17.371-6.5-3.672-3.672-5.649-9.038-5.649-15.393a20.865,20.865,0,0,1,4.66-13.7c4.237-5.225,11.016-8.191,18.5-8.191a26.8,26.8,0,0,1,10.168,1.977c2.542,1.271,3.954,2.542,3.954,4.66S240.189,259.216,238.07,259.216Z" transform="translate(84.346 -219.955)"/>
        <path id="Path_4630" data-name="Path 4630" class="cls-1" d="M234.2,236.908a5.508,5.508,0,1,1,5.508,5.508A5.426,5.426,0,0,1,234.2,236.908Zm5.508,18.5a4.611,4.611,0,0,1,4.66,4.66v34.6a4.8,4.8,0,0,1-4.66,4.66,4.527,4.527,0,0,1-4.66-4.66v-34.6A4.611,4.611,0,0,1,239.708,255.408Z" transform="translate(96.549 -226.881)"/>
        <path id="Path_4631" data-name="Path 4631" class="cls-1" d="M247.7,238.26a4.7,4.7,0,0,1,4.66-4.66,4.527,4.527,0,0,1,4.66,4.66v55.36a4.7,4.7,0,0,1-4.66,4.66,4.611,4.611,0,0,1-4.66-4.66Z" transform="translate(102.114 -225.974)"/>
        <path id="Path_4632" data-name="Path 4632" class="cls-1" d="M151.5,281.2Z" transform="translate(62.456 -206.351)"/>
      </g>
    </g>
    <path id="Path_4633" data-name="Path 4633" class="cls-1" d="M336.961,222.147a46.464,46.464,0,0,0-33.047-13.7H279.341l-65.1-182.6A38.815,38.815,0,0,0,177.659,0a38.092,38.092,0,0,0-22.314,7.061A39.6,39.6,0,0,0,141.082,25.7L75.836,208.448H51.4a46.675,46.675,0,0,0,0,93.35h252.51a46.735,46.735,0,0,0,33.047-79.651ZM159.724,32.341a18.591,18.591,0,0,1,6.92-9.18,18.854,18.854,0,0,1,28.81,9.18L258.3,208.448H96.879ZM265.36,228.219l19.207,53.807H70.611l19.207-53.807ZM24.43,255.193a26.821,26.821,0,0,1,26.833-26.833H68.634L49.427,282.026A26.654,26.654,0,0,1,32.2,274.259,27.536,27.536,0,0,1,24.43,255.193Zm281.179,26.692L286.4,228.219h17.512a26.856,26.856,0,0,1,1.695,53.665Z" transform="translate(1.979)"/>
  </g>
</svg>
