<svg xmlns="http://www.w3.org/2000/svg" viewBox="2394.528 7066.533 360.996 360.985">
  <defs>
    <style>
      .cls-1 {
        fill: #ec1c81;
      }
    </style>
  </defs>
  <g id="Group_6286" data-name="Group 6286" transform="translate(2242.528 6827.533)">
    <g id="Group_4582" data-name="Group 4582" transform="translate(235.82 292.533)">
      <path id="meditação" class="cls-1" d="M214.909,174.977a12.164,12.164,0,0,0-7.958-15.252c-28.608-8.99-40.756-60.222-43.6-79.114a19.3,19.3,0,0,0-1.8-5.27c-5.254-10-25.139-14.661-27.377-14.931a4.983,4.983,0,0,1-4.7-4.6c7.023-4.884,11.764-16.677,11.764-27.328,0-15.729-1.661-28.48-23.09-28.48h-1.676C95.039,0,93.38,12.751,93.38,28.48c0,10.651,4.742,22.443,11.764,27.328a5.1,5.1,0,0,1-4.7,4.6c-2.409.27-25.237,5.658-28.306,17.29,0,0-.377,1.663-.606,2.958a192.823,192.823,0,0,1-9.473,36.829c-6.037,16.279-16.853,36.821-34.094,42.239a12.164,12.164,0,0,0,3.511,23.768c-10.253,5.9-11.754,14.117-11.754,18.378a22.441,22.441,0,0,0,4.876,12.27c3.591,4.56,10.751,9.995,24.456,9.995a60.848,60.848,0,0,0,6.464-.363c9.116-.98,18.309-2.453,27.2-3.876,3.226-.517,6.449-1.032,9.678-1.527,4.3-.661,12.05-1.1,23.033-1.3h3.765c10.983.2,18.734.639,23.033,1.3,3.228.494,6.452,1.01,9.678,1.527,8.888,1.423,18.08,2.9,27.2,3.876a60.87,60.87,0,0,0,6.464.363c13.7,0,20.865-5.436,24.456-9.995a22.441,22.441,0,0,0,4.876-12.27c0-4.261-1.5-12.483-11.756-18.379.057,0,.114.007.171.007A12.171,12.171,0,0,0,214.909,174.977Zm-142.124-1.54a61.031,61.031,0,0,1-12.865,2.871c-1.717.242-3.829.543-6.626.974-2.739.291-5.25.682-7.565,1.152,15.865-8.765,28.66-25.476,38.143-49.869a141.962,141.962,0,0,1,.857,15.742C84.728,163.087,75.217,172.68,72.784,173.438Zm108.536,3.846c-2.8-.432-4.9-.763-6.626-.974-16.623-2.047-24.809-13.221-24.809-32a141.724,141.724,0,0,1,.924-16.355c9.541,24.814,22.474,41.767,38.552,50.579A80.2,80.2,0,0,0,181.32,177.283Z" transform="translate(-19.444 0)"/>
    </g>
    <g id="Group_4670" data-name="Group 4670" transform="translate(152 239)">
      <path id="Path_2866" data-name="Path 2866" class="cls-1" d="M180.5,0A180.492,180.492,0,1,0,361,180.491C361,80.823,280.189,0,180.5,0Zm0,327.142A146.655,146.655,0,1,1,327.152,180.491,146.65,146.65,0,0,1,180.5,327.146Z" transform="translate(0 -0.004)"/>
    </g>
  </g>
</svg>
