<svg xmlns="http://www.w3.org/2000/svg" viewBox="10013.156 7167.738 352.888 287.234">
  <defs>
    <style>
      .cls-1 {
        fill: #fff;
      }
    </style>
  </defs>
  <g id="Group_6775" data-name="Group 6775" transform="translate(10013.156 7167.738)">
    <path id="Path_2861" data-name="Path 2861" class="cls-1" d="M352.888,16.413C352.888,6.155,346.732,0,336.474,0H16.413C6.155,0,0,6.155,0,16.413V49.24C0,59.5,6.155,65.653,16.413,65.653H336.474c10.258,0,16.413-6.155,16.413-16.413V16.413Zm0,0"/>
    <path id="Path_2862" data-name="Path 2862" class="cls-1" d="M352.888,21.813c0-10.258-6.155-16.413-16.413-16.413H16.413C6.155,5.4,0,11.555,0,21.813V54.64C0,64.9,6.155,71.053,16.413,71.053H336.474c10.258,0,16.413-6.155,16.413-16.413V21.813Zm0,0" transform="translate(0 105.39)"/>
    <path id="Path_2863" data-name="Path 2863" class="cls-1" d="M352.888,27.213c0-10.258-6.155-16.413-16.413-16.413H16.413C6.155,10.8,0,16.955,0,27.213V60.04C0,70.3,6.155,76.453,16.413,76.453H336.474c10.258,0,16.413-6.155,16.413-16.413V27.213Zm0,0" transform="translate(0 210.781)"/>
  </g>
</svg>
