<svg xmlns="http://www.w3.org/2000/svg" viewBox="4250.207 7124.823 330.985 351.088">
  <defs>
    <style>
      .cls-1 {
        fill: #00d5ff;
      }
    </style>
  </defs>
  <g id="REGISTRO_-_ARQUIVO" data-name="REGISTRO - ARQUIVO" transform="translate(4250.207 7124.823)">
    <g id="Group_4673" data-name="Group 4673" transform="translate(0)">
      <path id="Path_2972" data-name="Path 2972" class="cls-1" d="M187.742,262.713a19.857,19.857,0,0,1-10.913,7.66l-21.92,5.987a19.666,19.666,0,0,1-24.866-17.222L128.118,236.5a19.39,19.39,0,0,1,3.433-13.034l.809-1.163H54.171a11.506,11.506,0,0,1,0-23.012h94.641l21.15-30.209H54.171a11.51,11.51,0,0,1,0-23.02l132.078-.338,49.528-71.016V22.128a15.348,15.348,0,0,0-15.3-15.619H182.557v30a25.49,25.49,0,0,1-25.723,25.369H80.577A25.16,25.16,0,0,1,55.224,36.513v-30H16.9A15.608,15.608,0,0,0,1.28,22.128V290.455c0,8.642,6.992,16,15.619,16H220.457c8.642,0,15.313-7.37,15.313-16V194.51ZM54.171,92.83H183.209a11.506,11.506,0,0,1,0,23.012H54.171a11.506,11.506,0,0,1,0-23.012Z" transform="translate(-1.28 44.63)"/>
      <path id="Path_2973" data-name="Path 2973" class="cls-1" d="M20.526,91.419H96.712a10.465,10.465,0,0,0,10.457-10.465V37.138A10.465,10.465,0,0,0,96.712,26.673H85.234a26.815,26.815,0,0,0-53.63,0H20.526A10.455,10.455,0,0,0,10.069,37.138V80.947A10.461,10.461,0,0,0,20.526,91.419Zm37.9-76.563a11.949,11.949,0,0,1,11.95,11.824H46.453A11.97,11.97,0,0,1,58.427,14.857Z" transform="translate(58.983)"/>
      <path id="Path_2974" data-name="Path 2974" class="cls-1" d="M189.646,25.921a7.449,7.449,0,0,0-3.08-4.785L167.491,7.843a7.388,7.388,0,0,0-10.3,1.831L22.064,203.441l31.214,21.771L188.421,31.452A7.465,7.465,0,0,0,189.646,25.921Z" transform="translate(141.229 44.616)"/>
      <path id="Path_2975" data-name="Path 2975" class="cls-1" d="M19.376,48.484l1.956,22.753a4.365,4.365,0,0,0,1.854,3.237,4.5,4.5,0,0,0,2.522.817,4.136,4.136,0,0,0,1.155-.165L48.9,69.092a4.474,4.474,0,0,0,2.459-1.728L59.633,55.5,28.4,33.721,20.122,45.585A4.3,4.3,0,0,0,19.376,48.484Z" transform="translate(122.633 231.212)"/>
    </g>
  </g>
</svg>
