<svg xmlns="http://www.w3.org/2000/svg" viewBox="5580.292 7166.877 352.782 289.39">
  <defs>
    <style>
      .cls-1 {
        fill: #00d5ff;
      }
    </style>
  </defs>
  <g id="sensor" transform="translate(5580.292 7166.877)">
    <g id="Group_4675" data-name="Group 4675" transform="translate(207.397 62.012)">
      <g id="Group_4674" data-name="Group 4674" transform="translate(0 0)">
        <ellipse id="Ellipse_6" data-name="Ellipse 6" class="cls-1" cx="10.335" cy="10.335" rx="10.335" ry="10.335"/>
      </g>
    </g>
    <g id="Group_4677" data-name="Group 4677" transform="translate(0 0)">
      <g id="Group_4676" data-name="Group 4676">
        <path id="Path_2978" data-name="Path 2978" class="cls-1" d="M301.105,46H51.677A51.736,51.736,0,0,0,0,97.677v41.341a51.736,51.736,0,0,0,51.677,51.677H83.723a51.832,51.832,0,0,0,40.3,40.3v42.381H93.019a31.041,31.041,0,0,0-31.006,31.006v20.671A10.336,10.336,0,0,0,72.348,335.39H280.434a10.336,10.336,0,0,0,10.335-10.335V304.384a31.041,31.041,0,0,0-31.006-31.006h-31.7V231.014a52.5,52.5,0,0,0,26.466-14.031,51.216,51.216,0,0,0,14.505-26.288h32.065a51.736,51.736,0,0,0,51.677-51.677V97.677A51.736,51.736,0,0,0,301.105,46ZM259.764,294.048A10.347,10.347,0,0,1,270.1,304.384v10.336H82.683V304.384a10.347,10.347,0,0,1,10.335-10.335ZM144.7,273.378V232.036h62.7v41.341Zm73.037-62.012H134.36a31.122,31.122,0,0,1-29.235-20.74H247.543A32.228,32.228,0,0,1,217.733,211.366Zm114.379-72.348a31.041,31.041,0,0,1-31.006,31.006H51.677a31.041,31.041,0,0,1-31.006-31.006V97.677A31.041,31.041,0,0,1,51.677,66.671H301.105a31.041,31.041,0,0,1,31.006,31.006Z" transform="translate(0 -46)"/>
      </g>
    </g>
    <g id="Group_4679" data-name="Group 4679" transform="translate(41.342 41.341)">
      <g id="Group_4678" data-name="Group 4678" transform="translate(0 0)">
        <path id="Path_2979" data-name="Path 2979" class="cls-1" d="M91.006,106a31.006,31.006,0,1,0,31.006,31.006A31.042,31.042,0,0,0,91.006,106Zm0,41.341a10.335,10.335,0,1,1,10.335-10.335A10.347,10.347,0,0,1,91.006,147.341Z" transform="translate(-60 -106)"/>
      </g>
    </g>
    <g id="Group_4681" data-name="Group 4681" transform="translate(124.025 41.341)">
      <g id="Group_4680" data-name="Group 4680" transform="translate(0 0)">
        <path id="Path_2980" data-name="Path 2980" class="cls-1" d="M211.007,106a31.006,31.006,0,1,0,31.006,31.006A31.041,31.041,0,0,0,211.007,106Zm0,41.341a10.335,10.335,0,1,1,10.335-10.335A10.347,10.347,0,0,1,211.007,147.341Z" transform="translate(-180 -106)"/>
      </g>
    </g>
    <g id="Group_4683" data-name="Group 4683" transform="translate(249.428 41.341)">
      <g id="Group_4682" data-name="Group 4682" transform="translate(0 0)">
        <path id="Path_2981" data-name="Path 2981" class="cls-1" d="M393.007,106a31.006,31.006,0,1,0,31.007,31.006A31.042,31.042,0,0,0,393.007,106Zm0,41.341a10.335,10.335,0,1,1,10.334-10.335A10.348,10.348,0,0,1,393.007,147.341Z" transform="translate(-362 -106)"/>
      </g>
    </g>
  </g>
</svg>
