<svg xmlns="http://www.w3.org/2000/svg" viewBox="2902.023 7067.028 358.005 357.994">
  <defs>
    <style>
      .cls-1, .cls-2 {
        fill: none;
        stroke: #00d5ff;
      }

      .cls-1 {
        stroke-width: 15px;
      }

      .cls-2 {
        stroke-width: 10px;
      }

      .cls-3 {
        fill: #00d5ff;
      }
    </style>
  </defs>
  <g id="Group_6410" data-name="Group 6410" transform="translate(2750.023 6844.028)">
    <g id="curtir" transform="translate(235.994 296.488)">
      <g id="Group_4566" data-name="Group 4566" transform="translate(0 0)">
        <path id="Path_2946" data-name="Path 2946" class="cls-1" d="M268.723,114.607a27.1,27.1,0,0,0,6.8-18.423,24.062,24.062,0,0,0-23.732-23.743H217.544a31.16,31.16,0,0,1,.988-2.967,20.688,20.688,0,0,1,1.359-2.721q.863-1.484,1.235-2.226,2.225-4.2,3.4-6.923a50.524,50.524,0,0,0,2.347-7.42,38.546,38.546,0,0,0,1.174-9.4c0-1.977-.024-3.586-.063-4.822a53.154,53.154,0,0,0-.616-5.565,31.218,31.218,0,0,0-1.485-6.181,28.811,28.811,0,0,0-2.967-5.564,17.333,17.333,0,0,0-4.947-5.008,27.094,27.094,0,0,0-7.419-3.214,36.925,36.925,0,0,0-10.2-1.3,7.606,7.606,0,0,0-5.564,2.35,21.463,21.463,0,0,0-4.2,6.181,36.793,36.793,0,0,0-2.413,6.431q-.68,2.72-1.544,7.542-1.117,5.2-1.672,7.48a39.545,39.545,0,0,1-2.164,6,18.946,18.946,0,0,1-3.833,5.936,182.829,182.829,0,0,0-12.488,14.837q-6.06,7.912-12.488,14.96t-9.4,7.3a8.109,8.109,0,0,0-5.316,2.535,7.461,7.461,0,0,0-2.226,5.378v79.256a7.4,7.4,0,0,0,2.349,5.5,8.177,8.177,0,0,0,5.564,2.413q4.327.124,19.536,5.442,9.519,3.21,14.9,4.882t15.021,3.587a91.87,91.87,0,0,0,17.8,1.918h15.95q16.449-.247,24.359-9.644,7.169-8.533,6.059-22.381a24.052,24.052,0,0,0,6.676-11.622,25.43,25.43,0,0,0,0-14.463,25.66,25.66,0,0,0,5.315-16.94A29.466,29.466,0,0,0,268.723,114.607Z" transform="translate(-84.484 -9.136)"/>
        <path id="Path_2947" data-name="Path 2947" class="cls-2" d="M43.524,191.864H7.915a7.6,7.6,0,0,0-5.565,2.35A7.6,7.6,0,0,0,0,199.777v79.136a7.611,7.611,0,0,0,2.35,5.564,7.617,7.617,0,0,0,5.565,2.348H43.524a8.02,8.02,0,0,0,7.913-7.911V199.777a8.024,8.024,0,0,0-7.913-7.913ZM29.3,268.71A7.706,7.706,0,0,1,23.74,271a7.912,7.912,0,0,1-5.626-13.476,7.833,7.833,0,0,1,11.189,0,7.835,7.835,0,0,1,0,11.189Z" transform="translate(0 -112.73)"/>
      </g>
    </g>
    <g id="Group_4669" data-name="Group 4669" transform="translate(152 223)">
      <g id="cancel" transform="translate(0 0)">
        <path id="Path_2866" data-name="Path 2866" class="cls-3" d="M179,0A179,179,0,1,0,358.005,179,178.994,178.994,0,0,0,179,0Zm0,324.432A145.44,145.44,0,1,1,324.442,179,145.435,145.435,0,0,1,179,324.436Z" transform="translate(0 -0.004)"/>
      </g>
    </g>
  </g>
</svg>
