<?xml version="1.0" encoding="utf-8"?>
<!-- Generator: Adobe Illustrator 16.0.3, SVG Export Plug-In . SVG Version: 6.00 Build 0)  -->
<!DOCTYPE svg PUBLIC "-//W3C//DTD SVG 1.1//EN" "http://www.w3.org/Graphics/SVG/1.1/DTD/svg11.dtd">
<svg version="1.1"
	 id="svg2" xmlns:rdf="http://www.w3.org/1999/02/22-rdf-syntax-ns#" xmlns:cc="http://creativecommons.org/ns#" xmlns:dc="http://purl.org/dc/elements/1.1/" xmlns:svg="http://www.w3.org/2000/svg"
	 xmlns="http://www.w3.org/2000/svg" xmlns:xlink="http://www.w3.org/1999/xlink" x="0px" y="0px" width="612px" height="792px"
	 viewBox="0 0 612 792" enable-background="new 0 0 612 792" xml:space="preserve">
<title  id="title4891">Border 7</title>
<g id="layer1" transform="translate(0,-62.362205)">
	<g id="g4885" transform="matrix(0.99860918,0,0,0.99893923,0.03198849,1.0919219)">
		<path id="rect4176" fill="#FFFFFF" stroke="#000000" stroke-width="2.0025" d="M110.795,196.142c-51.19,0-92.8,29.36-92.8,65.479
			v401.905c0,36.118,41.61,65.48,92.8,65.48h389.6c51.19,0,92.8-29.361,92.8-65.48V261.621c0-36.119-41.61-65.479-92.8-65.479
			H110.795z M110.795,214.205h389.6c37.451,0,67.2,20.992,67.2,47.416v401.905c0,26.424-29.749,47.416-67.2,47.416h-389.6
			c-37.45,0-67.2-20.991-67.2-47.416V261.621C43.596,235.196,73.345,214.205,110.795,214.205z"/>
		<path id="path9099" d="M162.314,196.141h-25.825h-25.693v7.338h2.349v0.847v0.847h1.409h1.409v0.846v0.847h1.207h1.208v0.988
			v0.988h1.409h1.409v0.846v0.847h1.207h1.207v0.988v0.988h-2.616h-2.616v-0.988v-0.988h-1.208h-1.207v-0.847v-0.846h-1.409h-1.409
			v-0.988v-0.988h-2.349v7.338h25.693h25.825v-7.338h-0.066h-2.415v0.988v0.988h-1.409h-1.409v0.846v0.847h-1.208h-1.207v0.988
			v0.988h-2.616h-2.616v-0.988v-0.988h1.207h1.208v-0.847v-0.846h1.409h1.409v-0.988v-0.988h1.207h1.208v-0.847v-0.846h1.409h1.409
			v-0.847v-0.847h2.415h0.066V196.141L162.314,196.141 M213.832,196.141h-25.825h-25.693v7.338h2.349v0.847v0.847h1.409h1.409v0.846
			v0.847h1.207h1.208v0.988v0.988h1.409h1.409v0.846v0.847h1.207h1.207v0.988v0.988h-2.616h-2.616v-0.988v-0.988h-1.208h-1.207
			v-0.847v-0.846h-1.409h-1.409v-0.988v-0.988h-2.349v7.338h25.693h25.825v-7.338h-0.066h-2.415v0.988v0.988h-1.409h-1.409v0.846
			v0.847h-1.208h-1.207v0.988v0.988h-2.616h-2.616v-0.988v-0.988h1.207h1.208v-0.847v-0.846h1.409h1.409v-0.988v-0.988h1.207h1.208
			v-0.847v-0.846h1.409h1.409v-0.847v-0.847h2.415h0.066V196.141L213.832,196.141 M265.351,196.141h-25.825h-25.693v7.338h2.348
			v0.847v0.847h1.409h1.409v0.846v0.847h1.207h1.207v0.988v0.988h1.409h1.409v0.846v0.847h1.207h1.207v0.988v0.988h-2.616h-2.616
			v-0.988v-0.988h-1.208h-1.207v-0.847v-0.846h-1.409h-1.409v-0.988v-0.988h-2.349v7.338h25.693h25.825v-7.338h-0.066h-2.414v0.988
			v0.988h-1.409h-1.409v0.846v0.847h-1.208h-1.207v0.988v0.988h-2.616h-2.616v-0.988v-0.988h1.207h1.208v-0.847v-0.846h1.409h1.409
			v-0.988v-0.988h1.207h1.208v-0.847v-0.846h1.409h1.409v-0.847v-0.847h2.415h0.066V196.141L265.351,196.141 M316.869,196.141
			h-25.825h-25.693v7.338h2.349v0.847v0.847h1.409h1.409v0.846v0.847h1.207h1.208v0.988v0.988h1.409h1.409v0.846v0.847h1.207h1.208
			v0.988v0.988h-2.616h-2.616v-0.988v-0.988h-1.208h-1.207v-0.847v-0.846h-1.409H267.7v-0.988v-0.988h-2.349v7.338h25.693h25.825
			v-7.338h-0.066h-2.414v0.988v0.988h-1.409h-1.409v0.846v0.847h-1.207h-1.208v0.988v0.988h-2.616h-2.616v-0.988v-0.988h1.207h1.208
			v-0.847v-0.846h1.408h1.409v-0.988v-0.988h1.208h1.207v-0.847v-0.846h1.409h1.409v-0.847v-0.847h2.414h0.066V196.141
			L316.869,196.141 M368.388,196.141h-25.825h-25.694v7.338h2.349v0.847v0.847h1.409h1.409v0.846v0.847h1.207h1.208v0.988v0.988
			h1.409h1.408v0.846v0.847h1.207h1.208v0.988v0.988h-2.616h-2.616v-0.988v-0.988h-1.208h-1.207v-0.847v-0.846h-1.409h-1.409v-0.988
			v-0.988h-2.349v7.338h25.694h25.825v-7.338h-0.066h-2.414v0.988v0.988h-1.409h-1.408v0.846v0.847h-1.208h-1.208v0.988v0.988
			h-2.616h-2.616v-0.988v-0.988h1.207h1.209v-0.847v-0.846h1.408h1.408v-0.988v-0.988h1.208h1.208v-0.847v-0.846h1.408h1.409v-0.847
			v-0.847h2.414h0.066V196.141L368.388,196.141 M419.907,196.141h-25.826h-25.693v7.338h2.349v0.847v0.847h1.408h1.409v0.846v0.847
			h1.208h1.207v0.988v0.988h1.409h1.409v0.846v0.847h1.207h1.208v0.988v0.988h-2.616h-2.617v-0.988v-0.988h-1.207h-1.208v-0.847
			v-0.846h-1.409h-1.408v-0.988v-0.988h-2.349v7.338h25.693h25.826v-7.338h-0.066h-2.415v0.988v0.988h-1.408h-1.408v0.846v0.847
			H413.4h-1.207v0.988v0.988h-2.616h-2.616v-0.988v-0.988h1.207h1.208v-0.847v-0.846h1.409h1.408v-0.988v-0.988h1.207h1.209v-0.847
			v-0.846h1.408h1.408v-0.847v-0.847h2.415h0.066V196.141L419.907,196.141 M471.425,196.141H445.6h-25.693v7.338h2.348v0.847v0.847
			h1.409h1.408v0.846v0.847h1.208h1.208v0.988v0.988h1.408h1.409v0.846v0.847h1.207h1.208v0.988v0.988h-2.616h-2.616v-0.988v-0.988
			h-1.208h-1.208v-0.847v-0.846h-1.408h-1.409v-0.988v-0.988h-2.348v7.338H445.6h25.825v-7.338h-0.066h-2.414v0.988v0.988h-1.409
			h-1.408v0.846v0.847h-1.208h-1.208v0.988v0.988h-2.616h-2.616v-0.988v-0.988h1.208h1.207v-0.847v-0.846h1.409h1.408v-0.988v-0.988
			h1.208h1.208v-0.847v-0.846h1.408h1.409v-0.847v-0.847h2.414h0.066V196.141L471.425,196.141 M526.287,198.711l-29.169-2.57
			h-25.693v7.338h2.349v0.847v0.847h1.408h1.409v0.846v0.847h1.207h1.208v0.988v0.988h1.409h1.408v0.846v0.847h1.208h1.208v0.988
			v0.988h-2.617h-2.616v-0.988v-0.988h-1.208h-1.207v-0.847v-0.846h-1.409h-1.408v-0.988v-0.988h-2.349v7.338h25.693l21.9,1.827
			l2.953-7.036l-0.064-0.014l-2.216-0.422l-0.331,0.96l-0.331,0.96l-1.369-0.235l-1.248-0.197l-0.254,0.828l-0.254,0.827
			l-0.995-0.15l-1.186-0.159l-0.262,0.97l-0.262,0.97l-2.065-0.249l-2.334-0.22l0.158-0.982l0.158-0.982l1.008,0.089l1.196,0.118
			l0.165-0.839l0.165-0.839l1.262,0.144l1.259,0.155l0.262-0.97l0.262-0.971l1.186,0.159l1.123,0.169l0.254-0.828l0.254-0.828
			l1.374,0.217l1.369,0.235l0.284-0.822l0.283-0.823l2.447,0.466l0.064,0.013L526.287,198.711L526.287,198.711 M574.414,222.053
			l-21.228-14.332l-26.9-9.01l-2.953,7.036l2.328,0.507l-0.383,0.803l-0.382,0.802l1.335,0.317l1.335,0.318l-0.383,0.802
			l-0.383,0.802l1.019,0.269l1.125,0.312l-0.512,0.919l-0.511,0.919l1.31,0.363l1.059,0.323l-0.494,0.772l-0.493,0.772l1.101,0.35
			l1.1,0.35l-0.575,0.901l-0.575,0.9l-2.385-0.758l-1.951-0.558l0.512-0.919l0.511-0.919l-1.124-0.311l-0.778-0.208l0.383-0.802
			l0.382-0.802l-1.335-0.317l-1.334-0.318l0.447-0.936l0.447-0.935l-2.159-0.469l-2.954,7.036l19.35,6.416l15.914,10.759l8.18-4.531
			l-0.041-0.037l-1.491-1.34l-1.101,0.61l-1.101,0.611l-0.725-0.638l-0.921-0.752l-0.908,0.554l-0.907,0.554l-0.79-0.644
			l-0.557-0.445l-1.013,0.681l-1.014,0.681l-1.804-1.336l-1.512-1.046l0.965-0.715l0.966-0.715l0.874,0.588l0.594,0.422l0.868-0.584
			l0.868-0.585l0.972,0.72l0.972,0.72l1.013-0.681l1.013-0.681l0.726,0.576l0.79,0.644l0.908-0.554l0.907-0.554l0.922,0.751
			l0.883,0.774l0.945-0.523l0.944-0.522l1.49,1.339l0.041,0.037L574.414,222.053L574.414,222.053 M593.193,261.396l-4.823-20.674
			l-13.955-18.669l-8.179,4.531l1.441,1.41l-0.979,0.49l-0.978,0.49l0.816,0.81l0.775,0.829l-1.011,0.457l-1.01,0.456l0.65,0.719
			l0.651,0.717l-1.179,0.533l-1.179,0.532l0.589,0.703l0.701,0.862l-1.041,0.421l-1.041,0.421l0.6,0.739l0.385,0.525l-1.247,0.449
			l-1.247,0.45l-1.021-1.303l-1.058-1.29l1.178-0.532l1.179-0.532l-0.65-0.718l-0.651-0.718l1.011-0.457l1.01-0.456l-0.635-0.683
			l-0.816-0.81l1.141-0.572l1.141-0.572l-1.303-1.279l-8.179,4.531l9.832,13.284l3.482,15.133l10.398-0.092v-0.046l-0.043-1.661
			l-1.399,0.037l-1.399,0.038l-0.053-0.994l-0.08-0.9l-1.197,0.053l-1.198,0.054l-0.073-0.716l-0.107-0.849l-1.395,0.087
			l-1.394,0.087l-0.234-1.468l-0.342-1.645l1.382-0.161l1.381-0.16l0.158,0.708l0.167,0.844l1.188-0.116l1.188-0.117l0.155,0.895
			l0.137,0.897l1.394-0.087l1.395-0.087l0.107,0.849l0.083,0.807l1.198-0.053l1.197-0.053l0.087,0.992l0.053,0.993l1.199-0.032
			l1.199-0.032l0.047,1.746v0.046L593.193,261.396L593.193,261.396 M593.195,297.86v-18.222l-0.003-18.242l-10.399,0.091
			l0.003,1.679h-1.2h-1.2v0.994v0.994h-1.201h-1.2v0.852v0.852h-1.399h-1.4v0.994v0.994h-1.2h-1.2v0.852v0.852h-1.4h-1.399v-1.846
			v-1.846h1.399h1.4v-0.852v-0.852h1.2h1.2v-0.994v-0.994h1.4h1.399l-0.001-1.636l-10.399,0.092l0.001,18.015v18.222h10.399v-0.047
			v-1.703h-1.399h-1.4v-0.994v-0.994h-1.2h-1.2v-0.852v-0.852h-1.4h-1.399v-1.846v-1.846h1.399h1.4v0.852v0.852h1.2h1.2v0.994v0.994
			h1.4h1.399v0.852v0.852h1.201h1.2v0.994v0.994h1.2h1.2v1.703v0.047H593.195L593.195,297.86 M593.196,334.211v-18.222V297.86h-10.4
			v1.658h-1.2h-1.2v0.994v0.994h-1.2h-1.201v0.852v0.852h-1.399h-1.4v0.994v0.994h-1.2h-1.2v0.852v0.852h-1.4h-1.399v-1.846v-1.846
			h1.399h1.4v-0.852v-0.852h1.2h1.2v-0.994v-0.994h1.4h1.399v-1.658h-10.399v18.129v18.222h10.399v-0.047v-1.703h-1.399h-1.4v-0.994
			v-0.994h-1.2h-1.2v-0.852v-0.852h-1.4h-1.399v-1.846v-1.846h1.399h1.4v0.852v0.852h1.2h1.2v0.994v0.994h1.4h1.399v0.852v0.852
			h1.201h1.2v0.994v0.994h1.2h1.2v1.703v0.047H593.196L593.196,334.211 M593.196,370.562V352.34v-18.129h-10.4v1.658h-1.2h-1.2
			v0.994v0.994h-1.2h-1.201v0.852v0.852h-1.399h-1.4v0.994v0.994h-1.2h-1.2v0.852v0.852h-1.4h-1.399v-1.846v-1.846h1.399h1.4v-0.852
			v-0.852h1.2h1.2v-0.994v-0.994h1.4h1.399v-1.658h-10.399v18.129v18.222h10.399v-0.046v-1.704h-1.399h-1.4v-0.994v-0.994h-1.2h-1.2
			v-0.852v-0.852h-1.4h-1.399v-1.846v-1.846h1.399h1.4v0.852v0.852h1.2h1.2v0.994v0.994h1.4h1.399v0.852v0.852h1.201h1.2v0.994
			v0.994h1.2h1.2v1.704v0.046H593.196L593.196,370.562 M593.196,406.914v-18.222v-18.129h-10.4v1.658h-1.2h-1.2v0.994v0.994h-1.2
			h-1.201v0.852v0.852h-1.399h-1.4v0.994v0.994h-1.2h-1.2v0.852v0.852h-1.4h-1.399v-1.846v-1.846h1.399h1.4v-0.852v-0.852h1.2h1.2
			v-0.994v-0.994h1.4h1.399v-1.658h-10.399v18.129v18.222h10.399v-0.047v-1.704h-1.399h-1.4v-0.994v-0.994h-1.2h-1.2v-0.852v-0.852
			h-1.4h-1.399v-1.846v-1.847h1.399h1.4v0.852v0.852h1.2h1.2v0.994v0.994h1.4h1.399v0.852v0.852h1.201h1.2v0.994v0.994h1.2h1.2
			v1.704v0.047H593.196L593.196,406.914 M593.196,443.265v-18.222v-18.129h-10.4v1.657h-1.2h-1.2v0.994v0.994h-1.2h-1.201v0.852
			v0.852h-1.399h-1.4v0.994v0.994h-1.2h-1.2v0.852v0.852h-1.4h-1.399v-1.846v-1.846h1.399h1.4v-0.852v-0.852h1.2h1.2v-0.994v-0.994
			h1.4h1.399v-1.657h-10.399v18.129v18.222h10.399v-0.047v-1.704h-1.399h-1.4v-0.994v-0.994h-1.2h-1.2v-0.852v-0.852h-1.4h-1.399
			v-1.846v-1.846h1.399h1.4v0.852v0.852h1.2h1.2v0.994v0.994h1.4h1.399v0.852v0.852h1.201h1.2v0.994v0.994h1.2h1.2v1.704v0.047
			H593.196L593.196,443.265 M593.196,479.614v-18.221v-18.128h-10.4v1.657h-1.2h-1.2v0.994v0.994h-1.2h-1.201v0.852v0.852h-1.399
			h-1.4v0.994v0.994h-1.2h-1.2v0.852v0.852h-1.4h-1.399v-1.846v-1.847h1.399h1.4v-0.852v-0.852h1.2h1.2v-0.994v-0.994h1.4h1.399
			v-1.657h-10.399v18.128v18.221h10.399v-0.045v-1.705h-1.399h-1.4v-0.993v-0.994h-1.2h-1.2v-0.852v-0.852h-1.4h-1.399v-1.846
			v-1.847h1.399h1.4v0.852v0.852h1.2h1.2v0.994v0.994h1.4h1.399v0.852v0.852h1.201h1.2v0.994v0.993h1.2h1.2v1.705v0.045H593.196
			L593.196,479.614 M593.196,515.965v-18.221v-18.13h-10.4v1.658h-1.2h-1.2v0.994v0.994h-1.2h-1.201v0.851v0.852h-1.399h-1.4v0.995
			v0.993h-1.2h-1.2v0.852v0.852h-1.4h-1.399v-1.848v-1.846h1.399h1.4v-0.852v-0.851h1.2h1.2v-0.994v-0.994h1.4h1.399v-1.658h-10.399
			v18.13v18.221h10.399v-0.045v-1.705h-1.399h-1.4v-0.993v-0.994h-1.2h-1.2v-0.852v-0.852h-1.4h-1.399v-1.846v-1.846h1.399h1.4
			v0.851v0.852h1.2h1.2v0.994v0.994h1.4h1.399v0.852v0.852h1.201h1.2v0.994v0.993h1.2h1.2v1.705v0.045H593.196L593.196,515.965
			 M593.196,552.317v-18.222v-18.13h-10.4v1.658h-1.2h-1.2v0.994v0.994h-1.2h-1.201v0.852v0.851h-1.399h-1.4v0.995v0.993h-1.2h-1.2
			v0.852v0.852h-1.4h-1.399v-1.846v-1.847h1.399h1.4v-0.851v-0.852h1.2h1.2v-0.994v-0.994h1.4h1.399v-1.658h-10.399v18.13v18.222
			h10.399v-0.046v-1.705h-1.399h-1.4v-0.993v-0.995h-1.2h-1.2v-0.852v-0.851h-1.4h-1.399v-1.846v-1.846h1.399h1.4v0.851v0.852h1.2
			h1.2v0.994v0.994h1.4h1.399v0.851v0.852h1.201h1.2v0.995v0.993h1.2h1.2v1.705v0.046H593.196L593.196,552.317 M593.196,588.668
			v-18.221v-18.129h-10.4v1.657h-1.2h-1.2v0.994v0.994h-1.2h-1.201v0.852v0.851h-1.399h-1.4v0.995v0.993h-1.2h-1.2v0.852v0.851h-1.4
			h-1.399v-1.846v-1.847h1.399h1.4v-0.851v-0.852h1.2h1.2v-0.994v-0.994h1.4h1.399v-1.657h-10.399v18.129v18.221h10.399v-0.047
			v-1.703h-1.399h-1.4v-0.993v-0.995h-1.2h-1.2v-0.851v-0.852h-1.4h-1.399v-1.846v-1.846h1.399h1.4v0.851v0.852h1.2h1.2v0.993v0.995
			h1.4h1.399v0.852v0.851h1.201h1.2v0.995v0.993h1.2h1.2v1.703v0.047H593.196L593.196,588.668 M593.196,625.019v-18.221v-18.131
			h-10.4v1.658h-1.2h-1.2v0.995v0.993h-1.2h-1.201v0.852v0.851h-1.399h-1.4v0.995v0.993h-1.2h-1.2v0.852v0.852h-1.4h-1.399v-1.848
			v-1.846h1.399h1.4v-0.851v-0.852h1.2h1.2v-0.993v-0.995h1.4h1.399v-1.658h-10.399v18.131v18.221h10.399v-0.047v-1.703h-1.399h-1.4
			v-0.993v-0.995h-1.2h-1.2v-0.851v-0.852h-1.4h-1.399v-1.846v-1.846h1.399h1.4v0.851v0.852h1.2h1.2v0.995v0.993h1.4h1.399v0.852
			v0.851h1.201h1.2v0.995v0.993h1.2h1.2v1.703v0.047H593.196L593.196,625.019 M593.196,661.37v-18.221v-18.131h-10.4v1.658h-1.2
			h-1.2v0.993v0.995h-1.2h-1.201v0.852v0.851h-1.399h-1.4v0.995v0.993h-1.2h-1.2v0.852v0.852h-1.4h-1.399v-1.848v-1.846h1.399h1.4
			v-0.851v-0.852h1.2h1.2v-0.995v-0.993h1.4h1.399v-1.658h-10.399v18.131v18.221h10.399v-0.047v-1.703h-1.399h-1.4v-0.993v-0.995
			h-1.2h-1.2v-0.851v-0.852h-1.4h-1.399v-1.846v-1.848h1.399h1.4v0.852v0.852h1.2h1.2v0.995v0.993h1.4h1.399v0.852v0.851h1.201h1.2
			v0.995v0.993h1.2h1.2v1.703v0.047H593.196L593.196,661.37 M576.655,700.904l12.872-19.048l3.669-20.487h-10.4v1.658h-1.2h-1.2
			l-0.009,0.993l-0.02,0.995l-1.199-0.033l-1.199-0.031l-0.045,0.852l-0.053,0.807l-1.397-0.063l-1.397-0.061l-0.088,0.991
			l-0.108,0.897l-1.196-0.074l-1.195-0.074l-0.095,0.714l-0.137,0.847l-1.391-0.111l-1.392-0.111l0.242-1.652l0.169-1.656
			l1.396,0.061l1.397,0.063l0.046-0.716l0.046-0.852l1.199,0.033l1.199,0.031l0.016-0.901l0.008-0.948h1.4h1.399v-1.658h-10.399
			l-2.614,15.356l-9.198,13.722l8.48,4.247l0.038-0.037l1.272-1.351l-1.179-0.532l-1.179-0.532l0.759-0.839l0.608-0.694l-1.041-0.42
			l-1.04-0.42l0.6-0.739l0.601-0.739l-1.215-0.493l-1.215-0.491l0.991-1.316l0.952-1.326l1.276,0.405l1.276,0.407l-0.371,0.528
			l-0.549,0.759l1.068,0.385l1.069,0.385l-0.641,0.886l-0.561,0.714l1.215,0.491l1.214,0.491l-0.6,0.739l-0.6,0.739l1.041,0.422
			l1.041,0.42l-0.738,0.847l-0.76,0.837l1.011,0.456l1.011,0.458l-1.402,1.486l-0.038,0.037L576.655,700.904L576.655,700.904
			 M529.802,725.651l26.599-9.858l20.256-14.889l-8.48-4.249l-1.359,1.351l-0.979-0.491l-0.978-0.489l-0.849,0.792l-0.869,0.782
			l-0.944-0.522l-0.945-0.524l-0.745,0.671l-0.703,0.589l-1.059-0.645l-1.058-0.647l-0.922,0.751l-0.921,0.753l-0.908-0.555
			l-0.907-0.553l-0.582,0.43l-0.833,0.618l-1.013-0.682l-1.013-0.682l1.457-1.083l1.711-1.396l1.059,0.647l1.058,0.645l0.545-0.454
			l0.745-0.669l0.945,0.522l0.944,0.522l0.869-0.78l0.699-0.653l1.141,0.573l1.141,0.571l1.36-1.351l-8.479-4.247l-15.191,11.139
			l-18.967,6.949l3.321,6.953l0.063-0.014l2.175-0.52l-0.511-0.919l-0.512-0.919l1.311-0.364l1.31-0.364l-0.438-0.788l-0.439-0.788
			l0.776-0.217l1.101-0.35l-0.575-0.901l-0.576-0.899l1.925-0.608l2.329-0.841l0.637,0.88l0.637,0.88l-1.075,0.387l-1.076,0.387
			l0.546,0.755l0.547,0.755l-1.048,0.342l-1.284,0.407l0.575,0.901l0.575,0.901l-1.1,0.35l-1.011,0.285l0.439,0.788l0.439,0.788
			l-1.311,0.364l-1.311,0.364l0.439,0.788l0.439,0.788l-2.398,0.577l-0.063,0.014L529.802,725.651L529.802,725.651 M474.637,729.006
			h25.986l29.178-3.353l-3.321-6.955l-2.32,0.53l-0.34-0.813l-0.34-0.811l-1.352,0.28l-1.36,0.258l-0.312-0.817l-0.312-0.817
			l-1.114,0.195l-1.116,0.19l-0.296-0.964l-0.296-0.966l-1.377,0.211l-1.254,0.176l-0.225-0.833l-0.224-0.831l-0.999,0.133
			l-1.191,0.139l-0.228-0.974l-0.228-0.976l2.32-0.289l2.306-0.342l0.296,0.966l0.296,0.964l0.989-0.17l0.989-0.172l0.312,0.817
			l0.312,0.817l1.36-0.258l1.227-0.254l0.398,0.946l0.398,0.948l2.149-0.491l-3.321-6.953l-21.326,2.407h-25.665v7.338h0.066h2.414
			v-0.987v-0.987h1.408h1.409v-0.849v-0.847h1.208h1.207v-0.987v-0.987h2.617h2.616v0.987v0.987h-1.208h-1.208v0.847v0.849h-1.408
			h-1.409v0.987v0.987h-1.207h-1.208v0.847v0.847h-1.409h-1.408v0.847v0.847h-2.414h-0.066V729.006L474.637,729.006
			 M423.119,729.006h25.825h25.693v-7.338h-2.349v-0.847v-0.847h-1.408h-1.409v-0.847v-0.847h-1.208h-1.207v-0.987v-0.987h-1.409
			h-1.408v-0.849v-0.847h-1.208h-1.208v-0.987v-0.987h2.616h2.617v0.987v0.987h1.207h1.208v0.847v0.849h1.409h1.408v0.987v0.987
			h2.349v-7.338h-25.693h-25.825v7.338h0.066h2.415v-0.987v-0.987h1.408h1.409v-0.849v-0.847h1.207h1.208v-0.987v-0.987h2.616h2.616
			v0.987v0.987h-1.207h-1.208v0.847v0.849h-1.409h-1.408v0.987v0.987h-1.208h-1.207v0.847v0.847h-1.409H425.6v0.847v0.847h-2.415
			h-0.066V729.006L423.119,729.006 M371.6,729.006h25.826h25.693v-7.338h-2.35v-0.847v-0.847h-1.408h-1.408v-0.847v-0.847h-1.208
			h-1.208v-0.987v-0.987h-1.408h-1.409v-0.849v-0.847h-1.208h-1.207v-0.987v-0.987h2.616h2.616v0.987v0.987h1.208h1.208v0.847v0.849
			h1.408h1.408v0.987v0.987h2.35v-7.338h-25.693H371.6v7.338h0.066h2.415v-0.987v-0.987h1.408h1.409v-0.849v-0.847h1.208h1.207
			v-0.987v-0.987h2.617h2.616v0.987v0.987h-1.208h-1.207v0.847v0.849h-1.409h-1.409v0.987v0.987h-1.207h-1.208v0.847v0.847h-1.409
			h-1.408v0.847v0.847h-2.415H371.6V729.006L371.6,729.006 M320.082,729.006h25.825H371.6v-7.338h-2.349v-0.847v-0.847h-1.409
			h-1.408v-0.847v-0.847h-1.207h-1.209v-0.987v-0.987h-1.408h-1.408v-0.849v-0.847h-1.208h-1.208v-0.987v-0.987h2.617h2.615v0.987
			v0.987h1.209h1.207v0.847v0.849h1.408h1.409v0.987v0.987h2.349v-7.338h-25.693h-25.825v7.338h0.066h2.414v-0.987v-0.987h1.409
			h1.409v-0.849v-0.847h1.207h1.208v-0.987v-0.987h2.616h2.617v0.987v0.987h-1.209h-1.207v0.847v0.849h-1.408h-1.409v0.987v0.987
			h-1.208h-1.207v0.847v0.847h-1.409h-1.409v0.847v0.847h-2.414h-0.066V729.006L320.082,729.006 M268.563,729.006h25.825h25.693
			v-7.338h-2.349v-0.847v-0.847h-1.409h-1.409v-0.847v-0.847h-1.207H312.5v-0.987v-0.987h-1.409h-1.408v-0.849v-0.847h-1.207h-1.209
			v-0.987v-0.987h2.617h2.616v0.987v0.987h1.208h1.207v0.847v0.849h1.409h1.409v0.987v0.987h2.349v-7.338h-25.693h-25.825v7.338
			h0.066h2.415v-0.987v-0.987h1.409h1.409v-0.849v-0.847h1.208h1.207v-0.987v-0.987h2.616h2.616v0.987v0.987h-1.208h-1.207v0.847
			v0.849h-1.409h-1.409v0.987v0.987h-1.208h-1.207v0.847v0.847h-1.409h-1.409v0.847v0.847h-2.415h-0.066V729.006L268.563,729.006
			 M217.045,729.006h25.825h25.693v-7.338h-2.349v-0.847v-0.847h-1.409h-1.409v-0.847v-0.847h-1.207h-1.208v-0.987v-0.987h-1.409
			h-1.409v-0.849v-0.847h-1.207h-1.208v-0.987v-0.987h2.616h2.616v0.987v0.987h1.208h1.207v0.847v0.849h1.409h1.409v0.987v0.987
			h2.349v-7.338H242.87h-25.825v7.338h0.066h2.415v-0.987v-0.987h1.409h1.409v-0.849v-0.847h1.207h1.208v-0.987v-0.987h2.616h2.616
			v0.987v0.987h-1.208h-1.207v0.847v0.849h-1.409h-1.409v0.987v0.987h-1.208h-1.207v0.847v0.847h-1.409h-1.409v0.847v0.847h-2.415
			h-0.066V729.006L217.045,729.006 M165.526,729.006h25.825h25.693v-7.338h-2.349v-0.847v-0.847h-1.409h-1.409v-0.847v-0.847h-1.207
			h-1.208v-0.987v-0.987h-1.409h-1.409v-0.849v-0.847h-1.207h-1.208v-0.987v-0.987h2.616h2.616v0.987v0.987h1.208h1.207v0.847v0.849
			h1.409h1.409v0.987v0.987h2.349v-7.338h-25.693h-25.825v7.338h0.066h2.415v-0.987v-0.987h1.409h1.409v-0.849v-0.847h1.207h1.208
			v-0.987v-0.987h2.616h2.616v0.987v0.987h-1.208h-1.207v0.847v0.849h-1.409h-1.409v0.987v0.987h-1.208h-1.207v0.847v0.847h-1.409
			h-1.409v0.847v0.847h-2.415h-0.066V729.006L165.526,729.006 M114.008,729.006h25.825h25.693v-7.338h-2.349v-0.847v-0.847h-1.409
			h-1.409v-0.847v-0.847h-1.207h-1.208v-0.987v-0.987h-1.409h-1.409v-0.849v-0.847h-1.207h-1.208v-0.987v-0.987h2.616h2.616v0.987
			v0.987h1.208h1.207v0.847v0.849h1.409h1.409v0.987v0.987h2.349v-7.338h-25.693h-25.825v7.338h0.066h2.415v-0.987v-0.987h1.409
			h1.409v-0.849v-0.847h1.207h1.208v-0.987v-0.987h2.616h2.616v0.987v0.987h-1.208h-1.207v0.847v0.849h-1.409h-1.409v0.987v0.987
			h-1.208h-1.207v0.847v0.847h-1.409h-1.409v0.847v0.847h-2.415h-0.066V729.006L114.008,729.006 M57.95,717.4l27.018,9.049
			l29.04,2.557v-7.338h-2.349v-0.847v-0.847l-1.409-0.006l-1.408-0.012l0.015-0.847l0.015-0.847l-1.146-0.029l-1.146-0.035
			l0.088-0.985l0.088-0.985l-1.406-0.063l-1.274-0.072l0.106-0.845l0.106-0.843l-1.013-0.065l-1.199-0.096l0.158-0.982l0.158-0.982
			l2.343,0.168l2.349,0.115l-0.088,0.987l-0.088,0.985l1.015,0.029l1.016,0.025l-0.015,0.847l-0.015,0.847l1.409,0.014l1.343,0.006
			v0.987v0.987h2.349v-7.338l-21.77-1.814l-19.468-6.456l-6.021,5.983l0.054,0.027l1.918,0.893l0.754-0.833l0.755-0.833l1.186,0.536
			l0.988,0.424l0.597-0.733l0.597-0.735l1.047,0.424l1.047,0.424l0.696-0.856l0.697-0.856l1.867,0.694l1.884,0.667l-0.575,0.899
			l-0.576,0.901l-0.753-0.256l-1.075-0.389l-0.546,0.755l-0.546,0.755l-1.254-0.454L74.5,709.72l-0.697,0.858l-0.697,0.856
			l-1.047-0.424l-1.047-0.424l-0.597,0.735l-0.597,0.733l-1.203-0.516l-1.187-0.536l-0.647,0.714l-0.646,0.712l-2.11-0.983
			l-0.054-0.027L57.95,717.4L57.95,717.4 M22.801,684.38l14.017,18.75L57.95,717.4l6.021-5.983l-1.915-0.96l0.695-0.69l0.695-0.69
			l-1.129-0.594l-1.108-0.614l0.741-0.665l0.741-0.667l-0.95-0.526l-0.84-0.493l0.916-0.747l0.916-0.747l-1.065-0.649l-1.065-0.651
			l0.785-0.639l0.785-0.641l-0.615-0.407l-0.874-0.589l0.966-0.714l0.966-0.716l1.542,1.024l1.978,1.206l-0.916,0.747l-0.916,0.749
			l0.647,0.379l0.95,0.526l-0.741,0.667l-0.741,0.665l1.108,0.614l0.928,0.489l-0.81,0.806l-0.811,0.806l1.915,0.96l6.021-5.983
			l-15.819-10.695l-9.894-13.366l-9.855,2.342L37.224,681l0.743,1.533l1.303-0.362l1.303-0.36l0.515,0.925l0.515,0.925l1.117-0.311
			l1.117-0.309l0.314,0.545l0.496,0.776l1.276-0.405l1.276-0.407l0.869,1.355l1.19,1.644L48.012,687l-1.246,0.45l-0.549-0.759
			l-0.55-0.759l-1.068,0.383l-1.068,0.387l-0.492-0.739l-0.579-0.905l-1.276,0.407l-1.276,0.405l-0.496-0.776l-0.413-0.712
			l-1.117,0.311l-1.117,0.309l-0.515-0.925l-0.515-0.925l-1.117,0.309l-1.117,0.311l-0.824-1.691l-0.021-0.043L22.801,684.38
			L22.801,684.38 M17.995,645.462l0.004,18.334l4.801,20.582l9.855-2.342L31.9,680.4l1.151-0.239l1.151-0.24l-0.399-0.954
			l-0.366-0.96l1.159-0.221l1.158-0.219l-0.282-0.786l-0.285-0.827l1.361-0.233l1.36-0.235l-0.271-0.882l-0.254-0.884l1.179-0.158
			l1.179-0.158l-0.226-0.837l-0.164-0.708l1.381-0.16l1.381-0.162l0.416,1.636l0.432,1.449l-1.36,0.233l-1.361,0.233l0.285,0.829
			l0.25,0.696l-1.159,0.219l-1.159,0.221l0.367,0.96l0.363,0.866l-1.342,0.28l-1.343,0.282l0.701,1.515l9.855-2.344l-3.46-15.041
			l-0.001-18.107h-10.4v0.045v1.705h1.4h1.4v0.993v0.993h1.2h1.2v0.852v0.852h1.4h1.4v1.846v1.846h-1.4h-1.4v-0.851v-0.852h-1.2
			h-1.2v-0.993v-0.995h-1.4h-1.4v-0.852v-0.852h-1.2h-1.2v-0.993v-0.993h-1.2h-1.2v-1.705v-0.045H17.995L17.995,645.462
			 M17.995,609.111v18.22v18.131h10.4v-1.658h1.2h1.2v-0.995v-0.993h1.2h1.2v-0.852v-0.85h1.4h1.4v-0.995v-0.993h1.2h1.2v-0.852
			v-0.852h1.4h1.4v1.848v1.846h-1.4h-1.4v0.85v0.852h-1.2h-1.2v0.993v0.995h-1.4h-1.4v1.658h10.4v-18.131v-18.22h-10.4v0.045v1.705
			h1.4h1.4v0.993v0.995h1.2h1.2v0.85v0.852h1.4h1.4v1.846v1.846h-1.4h-1.4v-0.85v-0.852h-1.2h-1.2v-0.995v-0.993h-1.4h-1.4V613.7
			v-0.85h-1.2h-1.2v-0.995v-0.993h-1.2h-1.2v-1.705v-0.045H17.995L17.995,609.111 M17.995,572.759v18.221v18.131h10.4v-1.658h1.2
			h1.2v-0.995v-0.993h1.2h1.2v-0.852v-0.85h1.4h1.4v-0.995v-0.993h1.2h1.2v-0.852v-0.852h1.4h1.4v1.848v1.846h-1.4h-1.4v0.85v0.852
			h-1.2h-1.2v0.993v0.995h-1.4h-1.4v1.658h10.4v-18.131v-18.221h-10.4v0.047v1.704h1.4h1.4v0.993v0.995h1.2h1.2v0.85v0.852h1.4h1.4
			v1.846v1.846h-1.4h-1.4v-0.85v-0.852h-1.2h-1.2v-0.995v-0.993h-1.4h-1.4v-0.852v-0.85h-1.2h-1.2v-0.995v-0.993h-1.2h-1.2v-1.704
			v-0.047H17.995L17.995,572.759 M17.995,536.408v18.221v18.13h10.4v-1.657h1.2h1.2v-0.995v-0.993h1.2h1.2v-0.852v-0.851h1.4h1.4
			v-0.994v-0.993h1.2h1.2v-0.852v-0.852h1.4h1.4v1.846v1.846h-1.4h-1.4v0.851v0.852h-1.2h-1.2v0.993v0.995h-1.4h-1.4v1.657h10.4
			v-18.13v-18.221h-10.4v0.047v1.704h1.4h1.4v0.993v0.995h1.2h1.2v0.85v0.852h1.4h1.4v1.846v1.846h-1.4h-1.4v-0.851v-0.852h-1.2
			h-1.2v-0.994v-0.994h-1.4h-1.4v-0.852v-0.85h-1.2h-1.2v-0.995v-0.993h-1.2h-1.2v-1.704v-0.047H17.995L17.995,536.408
			 M17.995,500.057v18.221v18.13h10.4v-1.657h1.2h1.2v-0.993v-0.995h1.2h1.2v-0.852v-0.852h1.4h1.4v-0.994v-0.993h1.2h1.2v-0.852
			v-0.851h1.4h1.4v1.846v1.846h-1.4h-1.4v0.852v0.852h-1.2h-1.2v0.995v0.993h-1.4h-1.4v1.657h10.4v-18.13v-18.221h-10.4v0.047v1.704
			h1.4h1.4v0.993v0.995h1.2h1.2v0.85v0.852h1.4h1.4v1.846v1.847h-1.4h-1.4v-0.852v-0.852h-1.2h-1.2v-0.994v-0.994h-1.4h-1.4v-0.852
			v-0.85h-1.2h-1.2v-0.995v-0.993h-1.2h-1.2v-1.704v-0.047H17.995L17.995,500.057 M17.995,463.706v18.221v18.13h10.4V498.4h1.2h1.2
			v-0.993v-0.995h1.2h1.2v-0.852v-0.852h1.4h1.4v-0.994v-0.993h1.2h1.2v-0.852v-0.852h1.4h1.4v1.847v1.846h-1.4h-1.4v0.852v0.852
			h-1.2h-1.2v0.995v0.993h-1.4h-1.4v1.657h10.4v-18.13v-18.221h-10.4v0.047v1.704h1.4h1.4v0.993v0.994h1.2h1.2v0.851v0.852h1.4h1.4
			v1.847v1.846h-1.4h-1.4v-0.851v-0.852h-1.2h-1.2v-0.994v-0.994h-1.4h-1.4v-0.852v-0.851h-1.2h-1.2v-0.994v-0.993h-1.2h-1.2v-1.704
			v-0.047H17.995L17.995,463.706 M17.995,427.355v18.222v18.129h10.4v-1.657h1.2h1.2v-0.993v-0.995h1.2h1.2v-0.852v-0.851h1.4h1.4
			v-0.994v-0.994h1.2h1.2v-0.852v-0.852h1.4h1.4v1.846v1.847h-1.4h-1.4v0.851v0.852h-1.2h-1.2v0.995v0.993h-1.4h-1.4v1.657h10.4
			v-18.129v-18.222h-10.4v0.046v1.703h1.4h1.4v0.994v0.994h1.2h1.2v0.853v0.851h1.4h1.4v1.846v1.846h-1.4h-1.4v-0.852v-0.852h-1.2
			h-1.2v-0.994v-0.994h-1.4h-1.4v-0.851v-0.853h-1.2h-1.2v-0.994v-0.994h-1.2h-1.2v-1.703v-0.046H17.995L17.995,427.355
			 M17.995,391.004v18.222v18.129h10.4v-1.658h1.2h1.2v-0.994v-0.994h1.2h1.2v-0.852v-0.852h1.4h1.4v-0.994v-0.994h1.2h1.2v-0.852
			v-0.852h1.4h1.4v1.846v1.846h-1.4h-1.4v0.852v0.852h-1.2h-1.2v0.994v0.994h-1.4h-1.4v1.658h10.4v-18.129v-18.222h-10.4v0.046
			v1.705h1.4h1.4v0.993v0.995h1.2h1.2v0.852v0.852h1.4h1.4v1.846v1.846h-1.4h-1.4v-0.852v-0.852h-1.2h-1.2v-0.994v-0.994h-1.4h-1.4
			v-0.852v-0.852h-1.2h-1.2v-0.994v-0.993h-1.2h-1.2v-1.705v-0.046H17.995L17.995,391.004 M17.995,354.653v18.222v18.129h10.4
			v-1.658h1.2h1.2v-0.994v-0.994h1.2h1.2v-0.852v-0.852h1.4h1.4v-0.994v-0.994h1.2h1.2v-0.852v-0.851h1.4h1.4v1.846v1.846h-1.4h-1.4
			v0.852v0.852h-1.2h-1.2v0.994v0.994h-1.4h-1.4v1.658h10.4v-18.129v-18.222h-10.4v0.046v1.704h1.4h1.4v0.994v0.994h1.2h1.2v0.852
			v0.852h1.4h1.4v1.846v1.846h-1.4h-1.4v-0.852v-0.852h-1.2h-1.2v-0.994v-0.994h-1.4h-1.4v-0.852v-0.852h-1.2h-1.2v-0.994v-0.994
			h-1.2h-1.2v-1.704v-0.046H17.995L17.995,354.653 M17.995,318.302v18.222v18.129h10.4v-1.658h1.2h1.2v-0.994v-0.994h1.2h1.2v-0.852
			v-0.852h1.4h1.4v-0.994v-0.994h1.2h1.2v-0.852v-0.852h1.4h1.4v1.846v1.846h-1.4h-1.4v0.852v0.852h-1.2h-1.2v0.994v0.994h-1.4h-1.4
			v1.658h10.4v-18.129v-18.222h-10.4v0.047v1.703h1.4h1.4v0.994v0.994h1.2h1.2v0.852v0.852h1.4h1.4v1.846v1.846h-1.4h-1.4v-0.852
			v-0.852h-1.2h-1.2v-0.994v-0.994h-1.4h-1.4v-0.852v-0.852h-1.2h-1.2v-0.994v-0.994h-1.2h-1.2v-1.703v-0.047H17.995L17.995,318.302
			 M17.995,281.951v18.222v18.129h10.4v-1.658h1.2h1.2v-0.994v-0.994h1.2h1.2v-0.852v-0.852h1.4h1.4v-0.994v-0.994h1.2h1.2v-0.852
			v-0.852h1.4h1.4v1.846v1.846h-1.4h-1.4v0.852v0.852h-1.2h-1.2v0.994v0.994h-1.4h-1.4v1.658h10.4v-18.129v-18.222h-10.4v0.047
			v1.703h1.4h1.4v0.994v0.994h1.2h1.2v0.852v0.852h1.4h1.4v1.846v1.846h-1.4h-1.4v-0.852v-0.852h-1.2h-1.2v-0.994v-0.994h-1.4h-1.4
			v-0.852v-0.852h-1.2h-1.2v-0.994v-0.994h-1.2h-1.2v-1.703v-0.047H17.995L17.995,281.951 M21.683,243.245l-3.687,20.577v18.129
			h10.4v-1.658h1.2h1.2v-0.994v-0.994h1.2h1.2v-0.852v-0.852h1.4h1.4v-0.994v-0.994h1.2h1.2v-0.852v-0.852h1.4h1.4v1.846v1.846h-1.4
			h-1.4v0.852v0.852h-1.2h-1.2v0.994v0.994h-1.4h-1.4v1.658h10.4v-18.129l2.633-15.447l-9.971-2.084l-0.019,0.044l-0.606,1.562
			l1.36,0.233l1.36,0.233l-0.332,0.966l-0.283,0.88l1.173,0.179l1.173,0.179l-0.216,0.702l-0.226,0.836l1.375,0.186l1.375,0.185
			l-0.398,1.638l-0.279,1.464l-1.391-0.111l-1.391-0.111l0.131-0.712l0.166-0.844l-1.189-0.116l-1.188-0.116l0.207-0.891
			l0.224-0.888l-1.375-0.185l-1.375-0.185l0.226-0.837l0.242-0.791l-1.173-0.179l-1.173-0.179l0.311-0.969l0.332-0.966l-1.166-0.2
			l-1.166-0.2l0.668-1.724l0.019-0.045L21.683,243.245L21.683,243.245 M54.843,209.324L34.498,224.28l-12.815,18.964l9.972,2.084
			l0.724-1.642l1.137,0.271l1.137,0.27l0.45-0.942l0.45-0.941l1.137,0.27l1.137,0.27l0.389-0.718l0.442-0.793l1.303,0.361
			l1.303,0.361l0.515-0.925l0.465-0.744l1.094,0.348l1.094,0.348l0.496-0.777l0.496-0.776l1.276,0.406l1.277,0.405l-1.075,1.683
			l-0.797,1.374l-1.303-0.361l-1.303-0.362l-0.442,0.793l-0.301,0.547l-1.137-0.27l-1.137-0.27l-0.45,0.942l-0.45,0.941
			l-1.327-0.315l-1.327-0.315l-0.67,1.523l9.971,2.084l9.141-13.637l15.281-11.207l-6.421-5.771l-0.052,0.029l-1.899,1.052
			l0.864,0.777l0.864,0.777l-0.909,0.507l-1.065,0.651l0.785,0.64l0.786,0.64l-0.913,0.558l-0.637,0.39l0.966,0.715l0.966,0.715
			l-1.894,1.273l-1.487,1.064l-1.013-0.681l-1.013-0.681l0.833-0.617l0.604-0.415l-0.828-0.613l-0.828-0.613l1.019-0.686l1.02-0.686
			l-0.966-0.715l-0.966-0.715l0.821-0.508l0.913-0.557l-0.785-0.64l-0.786-0.64l1.065-0.651l1.102-0.619l-0.741-0.666l-0.741-0.666
			l1.899-1.052l0.052-0.029L54.843,209.324L54.843,209.324 M110.795,196.141l-29.468,3.37l-26.484,9.813l6.421,5.772l2.003-1.012
			l0.695,0.69l0.695,0.69l1.149-0.575l1.18-0.543l0.646,0.713l0.647,0.713l1.017-0.459l1.017-0.459l0.754,0.833l0.754,0.831
			l0.999-0.411l1.222-0.494l0.597,0.734l0.597,0.735l1.047-0.424l0.748-0.267l0.637,0.88l0.637,0.879l-1.85,0.716l-1.832,0.743
			l-0.754-0.832l-0.754-0.833l-1.017,0.459l-1.017,0.459l-0.647-0.713l-0.647-0.713l-0.972,0.443l-1.149,0.576l-0.811-0.806
			l-0.81-0.805l-1.818,0.915l6.421,5.771l18.853-6.905l21.293-2.422v-7.338h-0.036l-2.354,0.028l0.053,0.987l0.053,0.987
			l-1.408,0.038l-1.275,0.053l0.075,0.846l0.075,0.845l-1.014,0.049l-1.203,0.074l0.123,0.984l0.123,0.983l-2.082,0.16l-2.331,0.239
			l-0.227-0.975l-0.228-0.975l1.005-0.109l1.196-0.117l-0.166-0.839l-0.165-0.838l1.269-0.106l1.271-0.094l-0.123-0.984
			l-0.123-0.983l1.203-0.075l1.144-0.056l-0.076-0.845l-0.075-0.845l1.406-0.058l1.408-0.038l-0.045-0.846l-0.045-0.847l2.475-0.029
			l0.096-0.001V196.141L110.795,196.141 M159.833,197.834v0.988v0.988h-1.409h-1.409v0.847v0.847h-1.208h-1.207v0.987v0.988h-1.409
			h-1.409v0.847v0.847h-1.208h-1.207v0.847v0.846h-1.207h-1.208v0.988v0.988h-1.409h-1.409v0.847v0.846h-1.207h-1.208v0.988v0.988
			h-5.232h-5.232v-0.988v-0.988h-1.207h-1.208v-0.846v-0.847h-1.409h-1.409v-0.988v-0.988h-1.207h-1.207v-0.846v-0.847h-1.208
			h-1.207v-0.847v-0.847h-1.409h-1.409v-0.988v-0.987h-1.208h-1.207v-0.847v-0.847h-1.409h-1.409v-0.988v-0.988h2.616h2.616v0.988
			v0.988h1.409h1.409v0.847v0.847h1.207h1.208v0.987v0.988h1.207h1.207v0.847v0.847h1.409h1.409v0.847v0.846h1.208h1.207v0.988
			v0.988h1.409h1.409v0.847v0.846h2.415h2.415v-0.846v-0.847h1.409h1.409v-0.988v-0.988h1.208h1.207v-0.846v-0.847h1.409h1.409
			v-0.847v-0.847h1.207h1.208v-0.988v-0.987h1.207h1.208v-0.847v-0.847h1.409h1.409v-0.988v-0.988h2.616H159.833L159.833,197.834
			 M211.351,197.834v0.988v0.988h-1.409h-1.409v0.847v0.847h-1.208h-1.207v0.987v0.988h-1.409h-1.409v0.847v0.847h-1.208h-1.207
			v0.847v0.846h-1.208h-1.207v0.988v0.988h-1.409h-1.409v0.847v0.846h-1.208h-1.207v0.988v0.988h-5.232h-5.232v-0.988v-0.988h-1.207
			h-1.208v-0.846v-0.847h-1.409h-1.409v-0.988v-0.988h-1.207h-1.208v-0.846v-0.847h-1.207h-1.208v-0.847v-0.847h-1.409h-1.409
			v-0.988v-0.987h-1.207h-1.207v-0.847v-0.847h-1.409h-1.409v-0.988v-0.988h2.616h2.616v0.988v0.988h1.409h1.409v0.847v0.847h1.208
			h1.207v0.987v0.988h1.208h1.207v0.847v0.847h1.409h1.409v0.847v0.846h1.208h1.207v0.988v0.988h1.409h1.409v0.847v0.846h2.415
			h2.415v-0.846v-0.847h1.409h1.409v-0.988v-0.988h1.207h1.208v-0.846v-0.847h1.409h1.409v-0.847v-0.847h1.207h1.208v-0.988v-0.987
			h1.207h1.208v-0.847v-0.847h1.409h1.409v-0.988v-0.988h2.616H211.351L211.351,197.834 M262.87,197.834v0.988v0.988h-1.409h-1.409
			v0.847v0.847h-1.207h-1.208v0.987v0.988h-1.409h-1.409v0.847v0.847h-1.207h-1.208v0.847v0.846h-1.207h-1.207v0.988v0.988h-1.409
			h-1.409v0.847v0.846h-1.208h-1.207v0.988v0.988h-5.232h-5.232v-0.988v-0.988h-1.208h-1.207v-0.846v-0.847h-1.409h-1.409v-0.988
			v-0.988h-1.208h-1.207v-0.846v-0.847h-1.207h-1.208v-0.847v-0.847h-1.409h-1.409v-0.988v-0.987h-1.207h-1.208v-0.847v-0.847
			h-1.409h-1.409v-0.988v-0.988h2.616h2.616v0.988v0.988h1.409h1.409v0.847v0.847h1.207h1.208v0.987v0.988h1.207h1.208v0.847v0.847
			h1.409h1.409v0.847v0.846h1.207h1.208v0.988v0.988h1.409h1.409v0.847v0.846h2.415h2.415v-0.846v-0.847h1.409h1.409v-0.988v-0.988
			h1.207h1.208v-0.846v-0.847h1.409h1.409v-0.847v-0.847h1.207h1.208v-0.988v-0.987h1.207h1.207v-0.847v-0.847h1.409h1.408v-0.988
			v-0.988h2.616H262.87L262.87,197.834 M314.388,197.834v0.988v0.988h-1.409h-1.408v0.847v0.847h-1.207h-1.209v0.987v0.988h-1.408
			h-1.409v0.847v0.847h-1.207h-1.208v0.847v0.846h-1.208h-1.207v0.988v0.988h-1.409h-1.409v0.847v0.846h-1.207h-1.208v0.988v0.988
			h-5.232h-5.232v-0.988v-0.988h-1.208h-1.207v-0.846v-0.847h-1.409h-1.409v-0.988v-0.988h-1.208h-1.207v-0.846v-0.847h-1.208
			h-1.207v-0.847v-0.847h-1.409h-1.409v-0.988v-0.987h-1.208h-1.207v-0.847v-0.847h-1.409h-1.409v-0.988v-0.988h2.616h2.616v0.988
			v0.988h1.409h1.409v0.847v0.847h1.207h1.208v0.987v0.988h1.207h1.208v0.847v0.847h1.409h1.409v0.847v0.846h1.207h1.208v0.988
			v0.988h1.409h1.409v0.847v0.846h2.415h2.414v-0.846v-0.847h1.409h1.408v-0.988v-0.988h1.208h1.207v-0.846v-0.847h1.409h1.409
			v-0.847v-0.847h1.207h1.208v-0.988v-0.987h1.208h1.207v-0.847v-0.847h1.409h1.408v-0.988v-0.988h2.617H314.388L314.388,197.834
			 M365.906,197.834v0.988v0.988h-1.408h-1.408v0.847v0.847h-1.208h-1.208v0.987v0.988h-1.408h-1.409v0.847v0.847h-1.208h-1.207
			v0.847v0.846h-1.208h-1.208v0.988v0.988h-1.408h-1.409v0.847v0.846h-1.208h-1.207v0.988v0.988h-5.233h-5.232v-0.988v-0.988h-1.208
			h-1.207v-0.846v-0.847h-1.409h-1.409v-0.988v-0.988h-1.207h-1.208v-0.846v-0.847h-1.208h-1.207v-0.847v-0.847h-1.409h-1.409
			v-0.988v-0.987h-1.207h-1.208v-0.847v-0.847h-1.409h-1.408v-0.988v-0.988h2.616h2.616v0.988v0.988h1.409h1.409v0.847v0.847h1.207
			h1.208v0.987v0.988h1.208h1.207v0.847v0.847h1.409h1.409v0.847v0.846h1.207h1.208v0.988v0.988h1.409h1.408v0.847v0.846h2.414
			h2.414v-0.846v-0.847h1.409h1.409v-0.988v-0.988h1.207h1.208v-0.846v-0.847h1.409h1.408v-0.847v-0.847h1.208h1.208v-0.988v-0.987
			h1.207h1.208v-0.847v-0.847h1.409h1.408v-0.988v-0.988h2.617H365.906L365.906,197.834 M417.425,197.834v0.988v0.988h-1.408h-1.409
			v0.847v0.847H413.4h-1.207v0.987v0.988h-1.409h-1.409v0.847v0.847h-1.207h-1.208v0.847v0.846h-1.208h-1.207v0.988v0.988h-1.409
			h-1.409v0.847v0.846h-1.207h-1.208v0.988v0.988h-5.232h-5.233v-0.988v-0.988h-1.207h-1.208v-0.846v-0.847h-1.409h-1.408v-0.988
			v-0.988h-1.208H381.2v-0.846v-0.847h-1.207h-1.208v-0.847v-0.847h-1.409h-1.408v-0.988v-0.987h-1.208h-1.208v-0.847v-0.847h-1.408
			h-1.408v-0.988v-0.988h2.615h2.617v0.988v0.988h1.408h1.409v0.847v0.847h1.208h1.207v0.987v0.988h1.208h1.208v0.847v0.847h1.408
			h1.409v0.847v0.846h1.208h1.207v0.988v0.988h1.409h1.409v0.847v0.846h2.414h2.414v-0.846v-0.847h1.408h1.409v-0.988v-0.988h1.208
			h1.207v-0.846v-0.847h1.409h1.409v-0.847v-0.847h1.207h1.208v-0.988v-0.987h1.208h1.207v-0.847v-0.847h1.409h1.409v-0.988v-0.988
			h2.616H417.425L417.425,197.834 M468.943,197.834v0.988v0.988h-1.408h-1.409v0.847v0.847h-1.207h-1.208v0.987v0.988h-1.408h-1.409
			v0.847v0.847h-1.208h-1.207v0.847v0.846h-1.208h-1.208v0.988v0.988h-1.408h-1.409v0.847v0.846h-1.208h-1.207v0.988v0.988h-5.233
			h-5.232v-0.988v-0.988h-1.208h-1.208v-0.846v-0.847h-1.408h-1.409v-0.988v-0.988h-1.207h-1.208v-0.846v-0.847h-1.208h-1.208
			v-0.847v-0.847h-1.408h-1.409v-0.988v-0.987h-1.207h-1.208v-0.847v-0.847h-1.409h-1.408v-0.988v-0.988h2.616h2.616v0.988v0.988
			h1.409h1.408v0.847v0.847h1.208h1.208v0.987v0.988h1.208h1.207v0.847v0.847h1.409h1.408v0.847v0.846h1.208h1.208v0.988v0.988
			h1.408h1.409v0.847v0.846h2.414h2.415v-0.846v-0.847h1.408h1.409v-0.988v-0.988h1.207h1.208v-0.846v-0.847h1.409h1.408v-0.847
			v-0.847h1.208h1.208v-0.988v-0.987h1.207h1.208v-0.847v-0.847h1.409h1.408v-0.988v-0.988h2.616H468.943L468.943,197.834
			 M522.712,199.783l-0.331,0.96l-0.331,0.96l-1.369-0.235l-1.559-0.247l-0.254,0.828l-0.254,0.827l-1.308-0.194l-1.186-0.159
			l-0.262,0.97l-0.262,0.97l-1.446-0.178l-1.45-0.164l-0.165,0.838l-0.165,0.839l-1.196-0.117l-1.198-0.106l-0.136,0.841
			l-0.135,0.841l-1.2-0.096l-1.142-0.074l-0.123,0.984l-0.123,0.984l-1.273-0.073l-1.406-0.063l-0.075,0.845l-0.075,0.845
			l-1.016-0.03l-1.015-0.026l-0.018,0.988l-0.018,0.987l-5.102-0.016h-5.232v-0.988v-0.988h-1.208h-1.207v-0.846v-0.847h-1.409
			h-1.408v-0.988v-0.988h-1.208h-1.208v-0.846v-0.847h-1.208h-1.207v-0.847v-0.847h-1.409h-1.408v-0.988v-0.987h-1.208h-1.208
			v-0.847v-0.847h-1.408h-1.409v-0.988v-0.988h2.616h2.617v0.988v0.988h1.408h1.409v0.847v0.847h1.207h1.208v0.987v0.988h1.208
			h1.208v0.847v0.847h1.408h1.409v0.847v0.846h1.207h1.208v0.988v0.988h1.409h1.408v0.847v0.846h2.414h2.415v-0.846v-0.847
			l1.344,0.005l1.408,0.012l0.018-0.988l0.018-0.988l1.146,0.029l1.146,0.034l0.075-0.845l0.075-0.845l1.406,0.062l1.403,0.081
			l0.106-0.844l0.106-0.844l1.263,0.083l1.2,0.096l0.157-0.982l0.158-0.982l1.327,0.118l1.196,0.117l0.165-0.839l0.166-0.838
			l1.578,0.177l1.575,0.195l0.262-0.97l0.262-0.971l2.818,0.403L522.712,199.783L522.712,199.783 M570.995,221.722l-1.101,0.61
			l-1.101,0.611l-1.115-0.973l-0.922-0.751l-0.907,0.554l-0.908,0.554l-0.79-0.644l-0.97-0.766l-1.014,0.681l-1.013,0.681
			l-0.971-0.72l-0.972-0.72l-0.868,0.585l-0.869,0.584l-0.851-0.604l-0.874-0.589l-0.827,0.613l-0.828,0.612l-0.874-0.588
			l-0.799-0.525l-0.916,0.747l-0.916,0.746l-1.065-0.651l-1.065-0.65l-0.785,0.64l-0.785,0.64l-0.647-0.38l-0.95-0.526l-0.864,0.778
			l-0.865,0.777l-3.804-1.984l-3.558-1.609l0.696-0.857l0.697-0.856l-1.047-0.424l-1.047-0.424l0.597-0.735l0.597-0.734
			l-1.014-0.391l-1.255-0.453l0.637-0.879l0.638-0.88l-1.076-0.388l-0.981-0.334l0.493-0.771l0.493-0.772l-1.101-0.35l-1.1-0.349
			l0.493-0.772l0.493-0.772l-1.402-0.425l-1.31-0.364l0.511-0.919l0.512-0.919l-1.124-0.311l-1.372-0.36l0.383-0.802l0.383-0.802
			l-1.335-0.317l-1.335-0.318l0.447-0.936l0.447-0.936l2.479,0.589l2.927,0.779l-0.512,0.919l-0.511,0.919l1.31,0.364l1.637,0.495
			l-0.493,0.772l-0.493,0.772l1.101,0.349l1.1,0.35l-0.575,0.9l-0.575,0.901l1.193,0.406l1.075,0.388l-0.546,0.754l-0.546,0.754
			l1.255,0.452l1.235,0.476l-0.596,0.734l-0.598,0.735l1.047,0.424l1.047,0.424l-0.696,0.856l-0.696,0.857l0.987,0.424l1.187,0.536
			l-0.647,0.713l-0.646,0.713l1.71,0.794l1.97,0.986l0.694-0.69l0.694-0.69l0.928,0.489l1.108,0.613l0.865-0.777l0.864-0.777
			l0.95,0.526l0.84,0.492l0.785-0.64l0.785-0.64l1.065,0.651l1.065,0.651l0.785-0.64l0.785-0.64l0.97,0.633l0.873,0.589l0.966-0.715
			l0.966-0.715l0.873,0.588l1.028,0.728l0.868-0.584l0.868-0.585l0.972,0.72l0.972,0.72l1.013-0.681l1.013-0.682l2.06,1.648
			L570.995,221.722L570.995,221.722 M590.74,259.482l-1.398,0.037l-1.399,0.038l-0.053-0.994l-0.096-1.126l-1.198,0.053
			l-1.198,0.053l-0.098-0.941l-0.106-0.849l-1.395,0.087l-1.395,0.086l-0.156-1.03l-0.178-1.028l-1.188,0.116l-1.189,0.117
			l-0.166-0.844l-0.188-0.842l-1.183,0.138l-1.184,0.137l-0.187-0.799l-0.226-0.836l-1.375,0.185l-1.376,0.185l-0.253-0.884
			l-0.271-0.882l-1.167,0.199l-1.166,0.2l-0.285-0.828l-0.25-0.697l-1.352,0.257l-1.352,0.257l-1.326-3.098l-1.638-3.122
			l1.303-0.361l1.303-0.361l-0.314-0.545l-0.496-0.777l1.093-0.349l1.094-0.348l-0.579-0.906l-0.492-0.737l1.247-0.449l1.247-0.449
			l-0.55-0.759l-0.55-0.759l1.069-0.385l1.069-0.386l-0.561-0.754l-0.6-0.739l1.041-0.422l1.041-0.421l-0.7-0.862l-0.779-0.924
			l1.179-0.532l1.178-0.533l-0.65-0.717l-0.65-0.718l1.01-0.457l1.011-0.456l-0.981-1.044l-0.816-0.81l1.141-0.572l1.141-0.572
			l1.763,1.813l1.41,1.555l-1.179,0.532l-1.179,0.532l0.91,1.077l0.7,0.862l-1.04,0.421l-1.041,0.421l0.6,0.739l0.682,0.912
			l-1.247,0.449l-1.247,0.45l0.55,0.758l0.549,0.759l-1.068,0.386l-1.069,0.385l0.601,0.898l0.579,0.907l-1.093,0.348l-1.094,0.348
			l0.496,0.777l0.414,0.711l-1.303,0.361l-1.304,0.361l0.515,0.925l0.515,0.925l-1.117,0.309l-1.117,0.31l0.655,1.363l0.663,1.43
			l1.151-0.24l1.15-0.24l0.364,0.866l0.366,0.96l1.352-0.257l1.351-0.257l0.282,0.785l0.286,0.828l1.166-0.2l1.167-0.2l0.299,0.971
			l0.28,0.974l1.179-0.158l1.178-0.158l0.226,0.837l0.208,0.882l1.381-0.16l1.382-0.161l0.206,0.933l0.167,0.843l1.188-0.116
			l1.188-0.116l0.195,1.12l0.169,1.122l1.395-0.087l1.395-0.087l0.227,2.024L590.74,259.482L590.74,259.482 M590.795,296.11h-1.399
			h-1.4v-0.994v-0.994h-1.2h-1.2v-0.852v-0.852h-1.4h-1.399v-0.994v-0.994h-1.2h-1.2v-0.852v-0.852h-1.201h-1.2v-0.852v-0.852
			h-1.399h-1.4v-0.994v-0.994h-1.2h-1.2v-0.853v-0.852h-1.4h-1.399v-3.692v-3.692h1.399h1.4v-0.852v-0.851h1.2h1.2v-0.994v-0.994
			h1.4h1.399v-0.852v-0.852h1.2h1.201v-0.852v-0.852h1.2h1.2v-0.994v-0.994h1.399h1.4v-0.852v-0.852h1.2h1.2v-0.994v-0.994h1.4
			h1.399v1.846v1.846h-1.399h-1.4v0.994v0.994h-1.2h-1.2v0.852v0.852h-1.4h-1.399v0.852v0.852h-1.2h-1.2v0.994v0.994h-1.201h-1.2
			v0.851v0.852h-1.399h-1.4v0.994v0.994h-1.2h-1.2v1.704v1.704h1.2h1.2v0.994v0.994h1.4h1.399v0.852v0.853h1.2h1.201v0.994v0.994
			h1.2h1.2v0.852v0.852h1.399h1.4v0.852v0.852h1.2h1.2v0.994v0.994h1.4h1.399v1.846V296.11L590.795,296.11 M590.795,332.461h-1.399
			h-1.4v-0.994v-0.994h-1.2h-1.2v-0.852v-0.852h-1.4h-1.399v-0.994v-0.994h-1.2h-1.2v-0.852v-0.852h-1.201h-1.2v-0.852v-0.852
			h-1.399h-1.4v-0.994v-0.994h-1.2h-1.2v-0.852v-0.852h-1.4h-1.399v-3.692v-3.692h1.399h1.4v-0.852v-0.852h1.2h1.2v-0.994v-0.994
			h1.4h1.399v-0.852v-0.852h1.2h1.201v-0.852v-0.852h1.2h1.2v-0.994v-0.994h1.399h1.4v-0.852v-0.852h1.2h1.2v-0.994v-0.994h1.4
			h1.399v1.846v1.846h-1.399h-1.4v0.994v0.994h-1.2h-1.2v0.852v0.852h-1.4h-1.399v0.852v0.852h-1.2h-1.2v0.994v0.994h-1.201h-1.2
			v0.852v0.852h-1.399h-1.4v0.994v0.994h-1.2h-1.2v1.704v1.704h1.2h1.2v0.994v0.994h1.4h1.399v0.852v0.852h1.2h1.201v0.994v0.994
			h1.2h1.2v0.852v0.852h1.399h1.4v0.852v0.852h1.2h1.2v0.994v0.994h1.4h1.399v1.846V332.461L590.795,332.461 M590.795,368.812
			h-1.399h-1.4v-0.994v-0.994h-1.2h-1.2v-0.852v-0.852h-1.4h-1.399v-0.994v-0.994h-1.2h-1.2v-0.852v-0.852h-1.201h-1.2v-0.852
			v-0.852h-1.399h-1.4v-0.994v-0.994h-1.2h-1.2v-0.851v-0.852h-1.4h-1.399v-3.692v-3.692h1.399h1.4v-0.852v-0.852h1.2h1.2v-0.994
			v-0.994h1.4h1.399v-0.852v-0.851h1.2h1.201V342.4v-0.852h1.2h1.2v-0.994v-0.994h1.399h1.4v-0.852v-0.852h1.2h1.2v-0.994v-0.994
			h1.4h1.399v1.847v1.846h-1.399h-1.4v0.994v0.994h-1.2h-1.2v0.852v0.852h-1.4h-1.399v0.851v0.852h-1.2h-1.2v0.994v0.994h-1.201
			h-1.2v0.852v0.852h-1.399h-1.4v0.994v0.994h-1.2h-1.2v1.704v1.704h1.2h1.2v0.994v0.994h1.4h1.399v0.852v0.851h1.2h1.201v0.994
			v0.994h1.2h1.2v0.852v0.852h1.399h1.4v0.852v0.852h1.2h1.2v0.994v0.994h1.4h1.399v1.846V368.812L590.795,368.812 M590.795,405.163
			h-1.399h-1.4v-0.995v-0.993h-1.2h-1.2v-0.852v-0.852h-1.4h-1.399v-0.994v-0.994h-1.2h-1.2v-0.852v-0.852h-1.201h-1.2v-0.852
			v-0.852h-1.399h-1.4v-0.994v-0.994h-1.2h-1.2v-0.852v-0.852h-1.4h-1.399v-3.692v-3.692h1.399h1.4v-0.852v-0.852h1.2h1.2v-0.994
			v-0.994h1.4h1.399v-0.852v-0.852h1.2h1.201v-0.852v-0.852h1.2h1.2v-0.994v-0.994h1.399h1.4v-0.852v-0.852h1.2h1.2v-0.994v-0.994
			h1.4h1.399v1.846v1.846h-1.399h-1.4v0.994v0.994h-1.2h-1.2v0.852v0.852h-1.4h-1.399v0.852v0.852h-1.2h-1.2v0.994v0.994h-1.201
			h-1.2v0.852v0.852h-1.399h-1.4v0.994v0.994h-1.2h-1.2v1.704v1.704h1.2h1.2v0.994v0.994h1.4h1.399v0.852v0.852h1.2h1.201v0.994
			v0.994h1.2h1.2v0.852v0.852h1.399h1.4v0.852v0.852h1.2h1.2v0.994v0.994h1.4h1.399v1.846V405.163L590.795,405.163 M590.795,441.513
			h-1.399h-1.4v-0.994v-0.994h-1.2h-1.2v-0.852v-0.852h-1.4h-1.399v-0.994v-0.994h-1.2h-1.2v-0.852v-0.852h-1.201h-1.2v-0.852
			v-0.852h-1.399h-1.4v-0.994v-0.994h-1.2h-1.2v-0.853v-0.851h-1.4h-1.399v-3.692v-3.692h1.399h1.4v-0.852v-0.851h1.2h1.2v-0.994
			v-0.994h1.4h1.399v-0.852v-0.852h1.2h1.201v-0.852v-0.852h1.2h1.2v-0.994v-0.994h1.399h1.4v-0.852v-0.852h1.2h1.2v-0.994v-0.994
			h1.4h1.399v1.846v1.846h-1.399h-1.4v0.994v0.994h-1.2h-1.2v0.852v0.852h-1.4h-1.399v0.852v0.852h-1.2h-1.2v0.994v0.994h-1.201
			h-1.2v0.851v0.852h-1.399h-1.4v0.994v0.994h-1.2h-1.2v1.704v1.704h1.2h1.2v0.994v0.994h1.4h1.399v0.852v0.852h1.2h1.201v0.994
			v0.994h1.2h1.2v0.852v0.852h1.399h1.4v0.852v0.852h1.2h1.2v0.994v0.994h1.4h1.399v1.846V441.513L590.795,441.513 M590.795,477.864
			h-1.399h-1.4v-0.994v-0.994h-1.2h-1.2v-0.852v-0.851h-1.4h-1.399v-0.994v-0.994h-1.2h-1.2v-0.852v-0.852h-1.201h-1.2v-0.851
			v-0.852h-1.399h-1.4v-0.993v-0.994h-1.2h-1.2v-0.852v-0.851h-1.4h-1.399v-3.692V457.7h1.399h1.4v-0.851v-0.852h1.2h1.2v-0.994
			v-0.994h1.4h1.399v-0.852v-0.852h1.2h1.201v-0.852v-0.852h1.2h1.2v-0.994v-0.994h1.399h1.4v-0.852v-0.852h1.2h1.2v-0.994v-0.994
			h1.4h1.399v1.846v1.846h-1.399h-1.4v0.994v0.994h-1.2h-1.2v0.852v0.852h-1.4h-1.399v0.852v0.852h-1.2h-1.2v0.994v0.994h-1.201
			h-1.2v0.852v0.851h-1.399h-1.4v0.995v0.993h-1.2h-1.2v1.704v1.704h1.2h1.2v0.993v0.995h1.4h1.399v0.851v0.852h1.2h1.201v0.994
			v0.993h1.2h1.2v0.852v0.851h1.399h1.4v0.852v0.852h1.2h1.2v0.994v0.994h1.4h1.399v1.846V477.864L590.795,477.864 M590.795,514.216
			h-1.399h-1.4v-0.994v-0.994h-1.2h-1.2v-0.851v-0.852h-1.4h-1.399v-0.994v-0.994h-1.2h-1.2v-0.852v-0.851h-1.201h-1.2v-0.853
			v-0.851h-1.399h-1.4v-0.994v-0.994h-1.2h-1.2v-0.852v-0.851h-1.4h-1.399v-3.692v-3.692h1.399h1.4v-0.851v-0.853h1.2h1.2v-0.994
			v-0.993h1.4h1.399v-0.852v-0.852h1.2h1.201v-0.851v-0.852h1.2h1.2v-0.993v-0.995h1.399h1.4v-0.852v-0.851h1.2h1.2v-0.994v-0.994
			h1.4h1.399v1.846v1.846h-1.399h-1.4v0.995v0.993h-1.2h-1.2v0.852v0.851h-1.4h-1.399v0.852v0.852h-1.2h-1.2v0.993v0.994h-1.201
			h-1.2v0.853v0.851h-1.399h-1.4v0.995v0.993h-1.2h-1.2v1.704v1.704h1.2h1.2v0.993v0.995h1.4h1.399v0.851v0.852h1.2h1.201v0.994
			v0.994h1.2h1.2v0.851v0.853h1.399h1.4v0.851v0.852h1.2h1.2v0.994v0.994h1.4h1.399v1.846V514.216L590.795,514.216 M590.795,550.567
			h-1.399h-1.4v-0.993v-0.995h-1.2h-1.2v-0.852v-0.851h-1.4h-1.399v-0.994v-0.994h-1.2h-1.2v-0.852v-0.852h-1.201h-1.2v-0.851
			v-0.852h-1.399h-1.4v-0.994v-0.994h-1.2h-1.2v-0.852v-0.851h-1.4h-1.399v-3.692v-3.691h1.399h1.4v-0.853v-0.85h1.2h1.2v-0.995
			v-0.993h1.4h1.399v-0.852v-0.851h1.2h1.201v-0.852v-0.852h1.2h1.2v-0.993v-0.995h1.399h1.4v-0.851v-0.852h1.2h1.2v-0.994v-0.994
			h1.4h1.399v1.846v1.846h-1.399h-1.4v0.995v0.993h-1.2h-1.2v0.852v0.852h-1.4h-1.399v0.851v0.852h-1.2h-1.2v0.993v0.995h-1.201
			h-1.2v0.85v0.853h-1.399h-1.4v0.993v0.994h-1.2h-1.2v1.704v1.704h1.2h1.2v0.993v0.995h1.4h1.399v0.851v0.852h1.2h1.201v0.994
			v0.994h1.2h1.2v0.852v0.851h1.399h1.4v0.852v0.852h1.2h1.2v0.994v0.994h1.4h1.399v1.846V550.567L590.795,550.567 M590.795,586.918
			h-1.399h-1.4v-0.993v-0.995h-1.2h-1.2v-0.851v-0.852h-1.4h-1.399v-0.995v-0.993h-1.2h-1.2v-0.852v-0.852h-1.201h-1.2v-0.85v-0.852
			h-1.399h-1.4v-0.993v-0.995h-1.2h-1.2v-0.852v-0.85h-1.4h-1.399v-3.692v-3.692h1.399h1.4v-0.852v-0.85h1.2h1.2v-0.995v-0.993h1.4
			h1.399v-0.852v-0.852h1.2h1.201v-0.851v-0.852h1.2h1.2v-0.993v-0.995h1.399h1.4v-0.852v-0.851h1.2h1.2v-0.994v-0.993h1.4h1.399
			v1.846v1.846h-1.399h-1.4v0.995v0.993h-1.2h-1.2v0.852v0.851h-1.4h-1.399v0.852v0.852h-1.2h-1.2v0.993v0.995h-1.201h-1.2v0.85
			v0.852h-1.399h-1.4v0.994v0.994h-1.2h-1.2v1.704v1.704h1.2h1.2v0.994v0.994h1.4h1.399v0.85v0.852h1.2h1.201v0.995v0.993h1.2h1.2
			v0.852v0.85h1.399h1.4v0.852v0.852h1.2h1.2v0.993v0.995h1.4h1.399v1.846V586.918L590.795,586.918 M590.795,623.269h-1.399h-1.4
			v-0.993v-0.995h-1.2h-1.2v-0.852v-0.85h-1.4h-1.399v-0.995v-0.993h-1.2h-1.2v-0.852v-0.852h-1.201h-1.2v-0.85v-0.852h-1.399h-1.4
			v-0.993v-0.995h-1.2h-1.2v-0.852v-0.85h-1.4h-1.399v-3.693v-3.691h1.399h1.4v-0.852v-0.85h1.2h1.2v-0.995v-0.993h1.4h1.399v-0.852
			v-0.851h1.2h1.201v-0.852v-0.852h1.2h1.2v-0.995v-0.993h1.399h1.4v-0.852v-0.85h1.2h1.2v-0.995v-0.993h1.4h1.399v1.846v1.846
			h-1.399h-1.4v0.993v0.995h-1.2h-1.2v0.852v0.852h-1.4h-1.399v0.851v0.852h-1.2h-1.2v0.993v0.995h-1.201h-1.2v0.85v0.852h-1.399
			h-1.4v0.993v0.995h-1.2h-1.2v1.703v1.705h1.2h1.2v0.993v0.995h1.4h1.399v0.85v0.852h1.2h1.201v0.995v0.993h1.2h1.2v0.852v0.85
			h1.399h1.4v0.852v0.852h1.2h1.2v0.993v0.995h1.4h1.399v1.846V623.269L590.795,623.269 M590.795,659.62h-1.399h-1.4v-0.995v-0.993
			h-1.2h-1.2v-0.852v-0.851h-1.4h-1.399v-0.995v-0.993h-1.2h-1.2v-0.852v-0.852h-1.201h-1.2v-0.851v-0.852h-1.399h-1.4v-0.993
			v-0.995h-1.2h-1.2v-0.851v-0.854h-1.4h-1.399v-3.691v-3.691h1.399h1.4v-0.852v-0.851h1.2h1.2v-0.995v-0.993h1.4h1.399v-0.852
			v-0.851h1.2h1.201v-0.852v-0.852h1.2h1.2v-0.995v-0.993h1.399h1.4v-0.852v-0.851h1.2h1.2v-0.995v-0.993h1.4h1.399v1.846v1.846
			h-1.399h-1.4v0.993v0.995h-1.2h-1.2v0.852v0.852h-1.4h-1.399v0.851v0.852h-1.2h-1.2v0.993v0.995h-1.201h-1.2v0.851v0.852h-1.399
			h-1.4v0.995v0.993h-1.2h-1.2v1.703v1.705h1.2h1.2v0.993v0.993h1.4h1.399v0.854v0.851h1.2h1.201v0.995v0.993h1.2h1.2v0.852v0.851
			h1.399h1.4v0.852v0.852h1.2h1.2v0.993v0.995h1.4h1.399v1.846V659.62L590.795,659.62 M576.353,698.174l-1.178-0.534l-1.179-0.532
			l0.759-0.837l0.93-1.07l-1.042-0.42l-1.04-0.42l0.6-0.739l0.601-0.739l-1.215-0.493l-1.215-0.491l0.737-0.942l0.641-0.884
			l-1.069-0.387l-1.068-0.383l0.549-0.759l0.532-0.764l-1.094-0.35l-1.093-0.346l0.496-0.778l0.496-0.776l-1.276-0.405l-1.276-0.407
			l0.465-0.745l0.515-0.925l-1.117-0.309l-1.117-0.311l0.441-0.792l0.301-0.547l-1.326-0.317l-1.327-0.315l1.499-3.252l1.088-3.048
			l1.368,0.209l1.368,0.209l0.216-0.702l0.226-0.837l1.179,0.158l1.178,0.158l0.224-0.888l0.207-0.89l1.387,0.137l1.387,0.135
			l0.166-0.843l0.147-0.804l1.192,0.096l1.193,0.096l0.136-0.847l0.114-0.849l1.196,0.074l1.195,0.074l0.122-1.032l0.088-0.991
			l1.397,0.061l1.397,0.063l0.062-0.942l0.046-0.852l1.199,0.033l1.199,0.031l0.023-1.128l0.01-1.062h1.4h1.399l-0.024,1.938
			l-0.124,2.213l-1.397-0.063l-1.397-0.061l-0.088,0.991l-0.133,1.124l-1.195-0.074l-1.195-0.074l-0.128,0.94l-0.136,0.847
			l-1.392-0.111l-1.391-0.113l-0.161,0.888l-0.167,0.845l-1.188-0.117l-1.188-0.117l-0.227,0.982l-0.247,0.98l-1.178-0.158
			l-1.178-0.16l-0.227,0.839l-0.242,0.79l-1.368-0.209l-1.368-0.207l-0.283,0.88l-0.333,0.966l-1.166-0.201l-1.167-0.199
			l-0.539,1.386l-0.631,1.437l1.137,0.272l1.137,0.27l-0.45,0.942l-0.45,0.94l1.326,0.317l1.327,0.315l-0.389,0.718l-0.442,0.794
			l1.117,0.309l1.117,0.309l-0.514,0.925l-0.564,0.911l1.094,0.348l1.094,0.348l-0.497,0.776l-0.496,0.776l1.276,0.407l1.276,0.407
			l-0.642,0.925l-0.549,0.759l1.068,0.385l1.069,0.385l-0.641,0.886l-0.858,1.099l1.215,0.491l1.215,0.491l-1.303,1.601
			L576.353,698.174L576.353,698.174 M531.865,723.359l-0.511-0.919l-0.512-0.921l1.311-0.364l1.31-0.362l-0.438-0.788l-0.439-0.788
			l1.354-0.389l1.101-0.35l-0.576-0.901l-0.575-0.899l1.284-0.409l1.383-0.456l-0.546-0.755l-0.547-0.755l1.076-0.387l1.075-0.387
			l-0.546-0.755l-0.546-0.753l0.97-0.352l1.047-0.424l-0.696-0.856l-0.697-0.856l1.222-0.495l0.999-0.411l-0.646-0.714l-0.647-0.714
			l1.017-0.459l1.017-0.459l-0.754-0.831l-0.755-0.833l3.475-1.701l3.681-2.098l0.916,0.747l0.916,0.747l0.912-0.557l0.637-0.389
			l0.828,0.612l0.828,0.614l1.019-0.686l1.02-0.686l0.965,0.716l0.966,0.716l0.779-0.542l0.833-0.616l0.868,0.585l0.868,0.585
			l0.833-0.618l0.827-0.62l0.907,0.553l0.908,0.555l0.922-0.753l0.921-0.751l1.059,0.645l1.058,0.647l0.936-0.788l0.745-0.669
			l0.944,0.522l0.944,0.522l0.87-0.78l1.067-1.001l1.141,0.573l1.141,0.571l-1.893,1.746l-1.964,1.705l-1.058-0.645l-1.059-0.647
			l-0.921,0.753l-0.922,0.751l-0.907-0.555l-0.907-0.553l-0.995,0.751l-0.833,0.616l-1.013-0.68l-1.014-0.682l-0.832,0.618
			l-0.943,0.653l-0.827-0.612l-0.828-0.614l-1.019,0.686l-1.02,0.686l-0.828-0.614l-0.827-0.612l-0.821,0.508l-0.913,0.557
			l-0.915-0.747l-0.916-0.747l-1.065,0.651l-0.909,0.506l-0.741-0.667l-0.74-0.665l-1.9,1.052l-1.669,0.839l0.695,0.69l0.694,0.69
			l-1.148,0.575l-0.972,0.444l0.754,0.831l0.755,0.833l-1.017,0.459l-1.017,0.459l0.646,0.714l0.647,0.712l-1.216,0.503
			l-1.221,0.495l0.597,0.735l0.597,0.733l-1.047,0.424l-1.174,0.43l0.637,0.88l0.637,0.88l-1.076,0.387l-1.075,0.389l0.546,0.753
			l0.546,0.755l-1.611,0.532l-1.284,0.409l0.575,0.901l0.575,0.899l-2.877,0.862L531.865,723.359L531.865,723.359 M477.117,727.311
			v-0.987v-0.987h1.409h1.408v-0.847v-0.847h1.208h1.208v-0.989v-0.987h1.408h1.409v-0.847v-0.847h1.207h1.208v-0.847v-0.847h1.208
			h1.207v-0.987v-0.987h1.409h1.408v-0.847v-0.849h1.208h1.208v-0.987v-0.987h5.102l4.705-0.109l0.088,0.985l0.088,0.985
			l1.014-0.049l1.203-0.074l0.106,0.843l0.106,0.843l1.27-0.094l1.269-0.106l0.194,0.98l0.193,0.978l1.196-0.117l1.133-0.123
			l0.196,0.835l0.195,0.837l1.192-0.139l1.186-0.158l0.225,0.833l0.224,0.831l1.44-0.203l1.377-0.211l0.296,0.966l0.296,0.966
			l1.3-0.221l1.297-0.229l0.312,0.817l0.312,0.817l1.36-0.258l1.534-0.315l0.397,0.948l0.398,0.946l-2.767,0.549l-3.042,0.53
			l-0.296-0.966l-0.297-0.966l-1.376,0.211l-1.568,0.221l-0.225-0.831l-0.225-0.831l-1.314,0.172l-1.191,0.139l-0.228-0.974
			l-0.228-0.976l-1.253,0.137l-1.196,0.115l-0.165-0.837l-0.165-0.839l-1.398,0.117l-1.401,0.104l-0.106-0.845l-0.106-0.843
			l-1.202,0.074l-1.144,0.057l-0.088-0.985l-0.088-0.985l-1.276,0.053l-1.407,0.037l-0.045-0.847l-0.046-0.847l-2.223,0.025h-2.32
			v0.849v0.847h-1.408h-1.409v0.987v0.987h-1.208h-1.207v0.847v0.847h-1.409h-1.408v0.847v0.847h-1.208h-1.208v0.987v0.989h-1.208
			h-1.207v0.847v0.847h-1.409h-1.408v0.987v0.987h-2.617H477.117L477.117,727.311 M425.599,727.311v-0.987v-0.987h1.408h1.409
			v-0.847v-0.847h1.208h1.207v-0.989v-0.987h1.409h1.408v-0.847v-0.847h1.208h1.208v-0.847v-0.847h1.207h1.208v-0.987v-0.987h1.409
			h1.408v-0.847v-0.849h1.208h1.208v-0.987v-0.987h5.232h5.232v0.987v0.987h1.208h1.208v0.849v0.847h1.408h1.409v0.987v0.987h1.208
			h1.207v0.847v0.847h1.208h1.208v0.847v0.847h1.408h1.409v0.987v0.989h1.208h1.207v0.847v0.847h1.409h1.408v0.987v0.987h-2.616
			h-2.616v-0.987v-0.987h-1.409h-1.408v-0.847v-0.847h-1.208h-1.208v-0.989v-0.987h-1.207h-1.208v-0.847v-0.847h-1.409h-1.408
			v-0.847v-0.847h-1.208h-1.208v-0.987v-0.987h-1.408h-1.408v-0.847v-0.849h-2.415h-2.414v0.849v0.847h-1.409h-1.408v0.987v0.987
			h-1.208h-1.208v0.847v0.847h-1.408h-1.409v0.847v0.847h-1.208h-1.207v0.987v0.989h-1.208h-1.208v0.847v0.847h-1.408h-1.409v0.987
			v0.987h-2.616H425.599L425.599,727.311 M374.081,727.311v-0.987v-0.987h1.408h1.408v-0.847v-0.847h1.208h1.208v-0.989v-0.987
			h1.408h1.409v-0.847v-0.847h1.208h1.207v-0.847v-0.847h1.208h1.208v-0.987v-0.987h1.408h1.409v-0.847v-0.849h1.208h1.207v-0.987
			v-0.987h5.232h5.233v0.987v0.987h1.208h1.207v0.849v0.847h1.409h1.409v0.987v0.987h1.207h1.208v0.847v0.847h1.208h1.207v0.847
			v0.847h1.409h1.409v0.987v0.989h1.207h1.208v0.847v0.847h1.409h1.408v0.987v0.987h-2.616h-2.616v-0.987v-0.987h-1.409h-1.409
			v-0.847v-0.847h-1.207h-1.208v-0.989v-0.987h-1.208h-1.207v-0.847v-0.847h-1.409h-1.409v-0.847v-0.847h-1.207h-1.208v-0.987
			v-0.987h-1.409h-1.408v-0.847v-0.849h-2.415h-2.414v0.849v0.847h-1.409h-1.409v0.987v0.987h-1.207h-1.208v0.847v0.847h-1.409
			h-1.408v0.847v0.847h-1.208h-1.208v0.987v0.989h-1.207h-1.208v0.847v0.847h-1.409h-1.408v0.987v0.987h-2.617H374.081
			L374.081,727.311 M322.562,727.311v-0.987v-0.987h1.408h1.409v-0.847v-0.847h1.208h1.207v-0.989v-0.987h1.409h1.409v-0.847v-0.847
			h1.207h1.208v-0.847v-0.847h1.208h1.207v-0.987v-0.987h1.409h1.409v-0.847v-0.849h1.207h1.208v-0.987v-0.987h5.233h5.232v0.987
			v0.987h1.207h1.208v0.849v0.847h1.409h1.408v0.987v0.987h1.208h1.208v0.847v0.847h1.207h1.208v0.847v0.847h1.409h1.408v0.987
			v0.989h1.208h1.208v0.847v0.847h1.408h1.408v0.987v0.987h-2.615h-2.617v-0.987v-0.987h-1.408h-1.409v-0.847v-0.847h-1.208h-1.207
			v-0.989v-0.987h-1.208h-1.208v-0.847v-0.847h-1.408h-1.409v-0.847v-0.847h-1.208h-1.207v-0.987v-0.987h-1.409h-1.409v-0.847
			v-0.849h-2.414h-2.415v0.849v0.847h-1.408h-1.409v0.987v0.987h-1.208h-1.207v0.847v0.847h-1.409h-1.409v0.847v0.847h-1.207h-1.208
			v0.987v0.989h-1.208h-1.207v0.847v0.847h-1.409h-1.409v0.987v0.987h-2.616H322.562L322.562,727.311 M271.044,727.311v-0.987
			v-0.987h1.409h1.409v-0.847v-0.847h1.207h1.208v-0.989v-0.987h1.409h1.409v-0.847v-0.847h1.208h1.207v-0.847v-0.847h1.207h1.208
			v-0.987v-0.987h1.409h1.409v-0.847v-0.849h1.207h1.208v-0.987v-0.987h5.232h5.232v0.987v0.987h1.207h1.207v0.849v0.847h1.409
			h1.409v0.987v0.987h1.207h1.208v0.847v0.847h1.208h1.208v0.847v0.847h1.408h1.408v0.987v0.989h1.209h1.207v0.847v0.847h1.408
			h1.409v0.987v0.987h-2.616h-2.617v-0.987v-0.987h-1.408h-1.408v-0.847v-0.847h-1.208h-1.208v-0.989v-0.987h-1.208h-1.207v-0.847
			v-0.847h-1.408h-1.409v-0.847v-0.847h-1.208h-1.207v-0.987v-0.987h-1.409h-1.409v-0.847v-0.849h-2.415h-2.415v0.849v0.847h-1.409
			h-1.409v0.987v0.987h-1.208h-1.207v0.847v0.847h-1.409h-1.409v0.847v0.847h-1.208h-1.207v0.987v0.989h-1.207h-1.208v0.847v0.847
			h-1.409h-1.409v0.987v0.987h-2.616H271.044L271.044,727.311 M219.525,727.311v-0.987v-0.987h1.409h1.409v-0.847v-0.847h1.208
			h1.207v-0.989v-0.987h1.409h1.409v-0.847v-0.847h1.208h1.207v-0.847v-0.847h1.207h1.208v-0.987v-0.987h1.409h1.409v-0.847v-0.849
			h1.207h1.208v-0.987v-0.987h5.232h5.232v0.987v0.987h1.207h1.208v0.849v0.847h1.409h1.409v0.987v0.987h1.207h1.208v0.847v0.847
			h1.207h1.207v0.847v0.847h1.409h1.409v0.987v0.989h1.207h1.207v0.847v0.847h1.409h1.409v0.987v0.987h-2.616h-2.616v-0.987v-0.987
			h-1.409h-1.409v-0.847v-0.847h-1.208h-1.207v-0.989v-0.987h-1.208h-1.207v-0.847v-0.847h-1.409h-1.409v-0.847v-0.847h-1.208
			h-1.207v-0.987v-0.987h-1.409h-1.409v-0.847v-0.849h-2.415h-2.415v0.849v0.847h-1.409h-1.409v0.987v0.987h-1.208h-1.207v0.847
			v0.847h-1.409h-1.409v0.847v0.847h-1.208h-1.207v0.987v0.989h-1.208h-1.207v0.847v0.847h-1.409h-1.409v0.987v0.987h-2.616H219.525
			L219.525,727.311 M168.007,727.311v-0.987v-0.987h1.409h1.409v-0.847v-0.847h1.208h1.207v-0.989v-0.987h1.409h1.409v-0.847v-0.847
			h1.208h1.207v-0.847v-0.847h1.207h1.208v-0.987v-0.987h1.409h1.409v-0.847v-0.849h1.207h1.208v-0.987v-0.987h5.232h5.232v0.987
			v0.987h1.207h1.208v0.849v0.847h1.409h1.409v0.987v0.987h1.207h1.207v0.847v0.847h1.208h1.207v0.847v0.847h1.409h1.409v0.987
			v0.989h1.208h1.207v0.847v0.847h1.409h1.409v0.987v0.987h-2.616h-2.616v-0.987v-0.987h-1.409h-1.409v-0.847v-0.847h-1.207h-1.207
			v-0.989v-0.987h-1.208h-1.207v-0.847v-0.847h-1.409h-1.409v-0.847v-0.847h-1.208h-1.207v-0.987v-0.987h-1.409h-1.409v-0.847
			v-0.849h-2.415h-2.415v0.849v0.847h-1.409h-1.409v0.987v0.987h-1.207h-1.208v0.847v0.847h-1.409h-1.409v0.847v0.847h-1.207h-1.208
			v0.987v0.989h-1.207h-1.208v0.847v0.847h-1.409h-1.409v0.987v0.987h-2.616H168.007L168.007,727.311 M116.488,727.311v-0.987
			v-0.987h1.409h1.409v-0.847v-0.847h1.208h1.207v-0.989v-0.987h1.409h1.409v-0.847v-0.847h1.208h1.207v-0.847v-0.847h1.208h1.207
			v-0.987v-0.987h1.409h1.409v-0.847v-0.849h1.208h1.207v-0.987v-0.987h5.232h5.232v0.987v0.987h1.207h1.208v0.849v0.847h1.409
			h1.409v0.987v0.987h1.207h1.208v0.847v0.847h1.207h1.207v0.847v0.847h1.409h1.409v0.987v0.989h1.207h1.207v0.847v0.847h1.409
			h1.409v0.987v0.987h-2.616h-2.616v-0.987v-0.987h-1.409h-1.409v-0.847v-0.847h-1.208h-1.207v-0.989v-0.987h-1.208h-1.207v-0.847
			v-0.847h-1.409h-1.409v-0.847v-0.847h-1.208h-1.207v-0.987v-0.987h-1.409h-1.409v-0.847v-0.849h-2.415h-2.415v0.849v0.847h-1.409
			h-1.409v0.987v0.987h-1.207h-1.208v0.847v0.847h-1.409h-1.409v0.847v0.847h-1.207h-1.208v0.987v0.989h-1.207h-1.208v0.847v0.847
			h-1.409h-1.409v0.987v0.987h-2.616H116.488L116.488,727.311 M61.824,717.181l0.754-0.833l0.755-0.831l1.186,0.536l1.517,0.651
			l0.597-0.735l0.597-0.733l1.047,0.424l1.047,0.422l0.697-0.856l0.696-0.856l1.339,0.514l1.254,0.454l0.546-0.755l0.546-0.755
			l1.075,0.389l1.087,0.37l0.493-0.772l0.493-0.772l1.101,0.35l1.101,0.352l0.575-0.901l0.575-0.901l1.059,0.325l1.311,0.362
			l0.439-0.788l0.439-0.788l1.124,0.311l0.779,0.209l0.447-0.937l0.447-0.937l4.609,1.054l4.323,0.761l-0.296,0.966l-0.296,0.964
			l0.995,0.151l1.186,0.16l-0.225,0.831l-0.224,0.831l1.259,0.156l1.262,0.143l-0.193,0.978l-0.193,0.98l1.196,0.117l1.138,0.102
			l-0.135,0.841l-0.135,0.841l1.2,0.096l1.202,0.078l-0.106,0.845l-0.106,0.843l1.464,0.084l1.406,0.063l-0.088,0.985l-0.088,0.985
			l1.337,0.041l1.337,0.033l-0.015,0.847l-0.015,0.845l1.408,0.014l1.505,0.006v0.987v0.987l-2.747-0.016l-3.137-0.082l0.088-0.985
			l0.088-0.987l-1.406-0.061l-1.595-0.092l0.106-0.843l0.106-0.845l-1.332-0.086l-1.2-0.096l0.158-0.982l0.158-0.982l-1.258-0.111
			l-1.196-0.117l0.165-0.839l0.165-0.839l-1.391-0.158l-1.388-0.17l0.225-0.833l0.224-0.831l-1.186-0.16l-1.123-0.168l0.296-0.964
			l0.296-0.966l-1.248-0.197l-1.369-0.235l0.283-0.823l0.284-0.821l-1.967-0.375l-2.039-0.44l-0.383,0.802l-0.383,0.802
			l-1.334-0.317l-1.335-0.319l-0.447,0.937l-0.447,0.937l-1.019-0.27l-1.124-0.311l-0.439,0.788l-0.439,0.788l-1.311-0.364
			l-1.294-0.393l-0.493,0.772l-0.493,0.772l-1.101-0.352l-1.101-0.348l-0.575,0.899l-0.575,0.901l-1.316-0.448l-1.075-0.387
			l-0.546,0.753l-0.546,0.755l-1.254-0.452l-1.561-0.6l-0.697,0.856l-0.697,0.856l-2.269-0.919L61.824,717.181L61.824,717.181
			 M26.055,685.833l1.303-0.36l1.303-0.362l0.515,0.925l0.515,0.925l1.117-0.309l1.117-0.311l0.558,0.954l0.496,0.776l1.276-0.405
			l1.276-0.407l0.579,0.907l0.652,0.972l1.069-0.385l1.068-0.385l0.549,0.759l0.549,0.759l1.069-0.385l1.068-0.385l0.505,0.682
			l0.601,0.739l1.214-0.491l1.215-0.493l0.701,0.862l0.589,0.704l1.011-0.458l1.011-0.456l0.651,0.718l0.65,0.718l1.179-0.534
			l1.179-0.532l2.424,2.446l2.979,2.593l-1.058,0.647l-1.059,0.647l0.79,0.643l0.558,0.446l-0.868,0.585l-0.868,0.585l0.972,0.72
			l0.972,0.719l-1.013,0.68l-1.014,0.682l0.771,0.545l0.874,0.589l-0.828,0.612l-0.828,0.614l0.874,0.587l0.885,0.581l-0.785,0.639
			l-0.785,0.639l1.065,0.651l1.065,0.651l-0.916,0.747l-0.916,0.747l1.121,0.655l0.95,0.526l-0.741,0.667l-0.741,0.665l1.108,0.614
			l1.421,0.749l-0.811,0.806l-0.811,0.806l-2.478-1.331l-2.422-1.382l0.916-0.747l0.916-0.747l-1.065-0.649l-1.065-0.651
			l0.785-0.639l0.785-0.641l-1.069-0.698l-0.874-0.587l0.966-0.716l0.966-0.714l-0.874-0.589l-0.933-0.661l0.869-0.585l0.868-0.585
			l-0.972-0.719l-0.972-0.72l0.868-0.583l0.868-0.585l-0.725-0.577l-0.791-0.643l1.059-0.647l1.059-0.645l-0.922-0.753l-0.725-0.637
			l0.944-0.522l0.944-0.524l-1.491-1.339l-1.194-1.175l-0.978,0.489l-0.978,0.491l-0.816-0.809l-0.635-0.684l-1.179,0.534
			l-1.179,0.532l-0.65-0.718l-0.651-0.718l-1.011,0.456l-1.011,0.458l-0.719-0.854l-0.701-0.862l-1.041,0.42l-1.041,0.422
			l-0.601-0.739l-0.616-0.827l-1.247,0.45l-1.246,0.45l-0.55-0.759l-0.549-0.759l-1.068,0.385l-1.069,0.385l-0.762-1.136
			l-0.579-0.905l-1.276,0.407l-1.276,0.405l-1.227-2.028L26.055,685.833L26.055,685.833 M20.395,647.212h1.4h1.4v0.993v0.993h1.2
			h1.2v0.852v0.852h1.4h1.4v0.995v0.993h1.2h1.2v0.852v0.851h1.2h1.2v0.852v0.852h1.4h1.4v0.993v0.993h1.2h1.2v0.852v0.852h1.4h1.4
			l0.002,3.6l0.164,3.32l-1.397,0.063l-1.397,0.063l0.074,0.714l0.106,0.849l-1.196,0.076l-1.195,0.074l0.137,0.896l0.154,0.895
			l-1.387,0.137l-1.387,0.135l0.166,0.845l0.178,0.8l-1.184,0.137l-1.184,0.139l0.198,0.839l0.226,0.839l-1.179,0.156l-1.179,0.16
			l0.292,1.015l0.313,1.013l-1.36,0.233l-1.36,0.233l0.285,0.829l0.329,0.913l-1.158,0.221l-1.159,0.221l0.367,0.958l0.449,1.083
			l-1.342,0.28l-1.342,0.28l-0.783-1.949l-0.699-1.969l1.361-0.233l1.36-0.233l-0.342-1.103l-0.318-1.105l1.179-0.158l1.178-0.158
			l-0.226-0.837l-0.22-0.931l1.381-0.16l1.381-0.162l-0.196-0.882l-0.167-0.845l1.189-0.117l1.189-0.117l-0.17-0.985l-0.151-0.989
			l1.196-0.074l1.195-0.072l-0.106-0.85l-0.083-0.807l1.397-0.061l1.397-0.063l-0.08-0.899l-0.053-0.993l1.199-0.033l1.199-0.031
			l-0.04-1.568l-0.002-1.636h-1.2h-1.2v-0.995v-0.993h-1.4h-1.4v-0.852v-0.852h-1.2h-1.2v-0.993V656.3h-1.2h-1.2v-0.852v-0.852h-1.4
			h-1.4v-0.851v-0.852h-1.2h-1.2v-0.993v-0.995h-1.4h-1.4v-1.846V647.212L20.395,647.212 M20.395,610.861h1.4h1.4v0.993v0.995h1.2
			h1.2v0.85v0.852h1.4h1.4v0.993v0.995h1.2h1.2v0.852v0.85h1.2h1.2v0.852v0.852h1.4h1.4v0.993v0.993h1.2h1.2v0.852v0.852h1.4h1.4
			v3.691v3.693h-1.4h-1.4v0.85v0.852h-1.2h-1.2v0.993v0.995h-1.4h-1.4v0.85v0.852h-1.2h-1.2v0.852v0.852h-1.2h-1.2v0.993v0.995h-1.4
			h-1.4v0.85v0.852h-1.2h-1.2v0.993v0.995h-1.4h-1.4v-1.846v-1.846h1.4h1.4v-0.995v-0.993h1.2h1.2v-0.852v-0.852h1.4h1.4v-0.852
			v-0.85h1.2h1.2v-0.995v-0.993h1.2h1.2v-0.852v-0.85h1.4h1.4v-0.995v-0.993h1.2h1.2v-1.705v-1.703h-1.2h-1.2v-0.993v-0.995h-1.4
			h-1.4v-0.852v-0.852h-1.2h-1.2v-0.993v-0.993h-1.2h-1.2v-0.852v-0.852h-1.4h-1.4v-0.85v-0.852h-1.2h-1.2v-0.995v-0.993h-1.4h-1.4
			v-1.846V610.861L20.395,610.861 M20.395,574.51h1.4h1.4v0.993v0.995h1.2h1.2v0.85v0.852h1.4h1.4v0.993v0.995h1.2h1.2v0.852v0.85
			h1.2h1.2v0.852v0.852h1.4h1.4v0.993v0.993h1.2h1.2v0.852v0.852h1.4h1.4v3.691v3.693h-1.4h-1.4v0.85v0.852h-1.2h-1.2v0.993v0.995
			h-1.4h-1.4v0.852v0.85h-1.2h-1.2v0.852v0.852h-1.2h-1.2v0.993v0.995h-1.4h-1.4v0.85v0.852h-1.2h-1.2v0.993v0.995h-1.4h-1.4v-1.846
			v-1.846h1.4h1.4v-0.995v-0.993h1.2h1.2v-0.852v-0.852h1.4h1.4v-0.85v-0.852h1.2h1.2v-0.995v-0.993h1.2h1.2v-0.852v-0.85h1.4h1.4
			v-0.995v-0.993h1.2h1.2v-1.705v-1.703h-1.2h-1.2v-0.993v-0.995h-1.4h-1.4v-0.852v-0.852h-1.2h-1.2v-0.993v-0.993h-1.2h-1.2v-0.852
			v-0.852h-1.4h-1.4v-0.85v-0.852h-1.2h-1.2v-0.995v-0.993h-1.4h-1.4v-1.846V574.51L20.395,574.51 M20.395,538.159h1.4h1.4v0.993
			v0.995h1.2h1.2v0.85v0.852h1.4h1.4v0.994v0.994h1.2h1.2v0.852v0.851h1.2h1.2v0.852v0.852h1.4h1.4v0.993v0.995h1.2h1.2v0.851v0.852
			h1.4h1.4v3.691v3.692h-1.4h-1.4v0.851v0.852h-1.2h-1.2v0.995v0.993h-1.4h-1.4v0.852v0.851h-1.2h-1.2v0.852v0.852h-1.2h-1.2v0.993
			v0.994h-1.4h-1.4v0.851v0.852h-1.2h-1.2v0.993v0.995h-1.4h-1.4v-1.846v-1.847h1.4h1.4v-0.994v-0.993h1.2h1.2v-0.852v-0.852h1.4
			h1.4v-0.851v-0.852h1.2h1.2v-0.993v-0.995h1.2h1.2v-0.852v-0.851h1.4h1.4v-0.994v-0.993h1.2h1.2v-1.705v-1.703h-1.2h-1.2v-0.994
			v-0.994h-1.4h-1.4v-0.852v-0.851h-1.2h-1.2v-0.995v-0.993h-1.2h-1.2v-0.852v-0.852h-1.4h-1.4v-0.851v-0.852h-1.2h-1.2v-0.994
			v-0.994h-1.4h-1.4v-1.846V538.159L20.395,538.159 M20.395,501.808h1.4h1.4v0.993v0.995h1.2h1.2v0.85v0.852h1.4h1.4v0.994v0.994
			h1.2h1.2v0.852v0.852h1.2h1.2v0.852v0.852h1.4h1.4v0.993v0.995h1.2h1.2v0.852v0.851h1.4h1.4v3.691v3.692h-1.4h-1.4v0.852v0.851
			h-1.2h-1.2v0.994v0.994h-1.4h-1.4v0.852v0.852h-1.2h-1.2v0.851v0.852h-1.2h-1.2v0.993v0.994h-1.4h-1.4v0.852v0.852h-1.2h-1.2
			v0.993v0.995h-1.4h-1.4v-1.846v-1.847h1.4h1.4v-0.994v-0.993h1.2h1.2v-0.852v-0.851h1.4h1.4v-0.852v-0.852h1.2h1.2v-0.994v-0.994
			h1.2h1.2v-0.851v-0.852h1.4h1.4v-0.993v-0.994h1.2h1.2v-1.705v-1.703h-1.2h-1.2v-0.994v-0.994h-1.4h-1.4v-0.851v-0.852h-1.2h-1.2
			v-0.995v-0.993h-1.2h-1.2v-0.852v-0.852h-1.4h-1.4v-0.852v-0.852h-1.2h-1.2v-0.994v-0.994h-1.4h-1.4v-1.846V501.808
			L20.395,501.808 M20.395,465.457h1.4h1.4v0.993v0.994h1.2h1.2v0.851v0.852h1.4h1.4v0.994v0.994h1.2h1.2v0.852v0.851h1.2h1.2v0.852
			v0.852h1.4h1.4v0.993v0.995h1.2h1.2v0.851v0.852h1.4h1.4v3.691v3.693h-1.4h-1.4v0.851v0.852h-1.2h-1.2v0.994v0.994h-1.4h-1.4
			v0.852v0.85h-1.2h-1.2v0.852v0.852h-1.2h-1.2v0.993v0.994h-1.4h-1.4v0.851v0.852h-1.2h-1.2v0.995v0.993h-1.4h-1.4v-1.846v-1.847
			h1.4h1.4v-0.994v-0.993h1.2h1.2v-0.852v-0.852h1.4h1.4v-0.85v-0.852h1.2h1.2v-0.994v-0.994h1.2h1.2v-0.852v-0.851h1.4h1.4v-0.994
			v-0.994h1.2h1.2v-1.705v-1.703h-1.2h-1.2v-0.994v-0.994h-1.4h-1.4v-0.852v-0.851h-1.2h-1.2v-0.995v-0.993h-1.2h-1.2v-0.852v-0.852
			h-1.4h-1.4v-0.851v-0.852h-1.2h-1.2v-0.994v-0.994h-1.4h-1.4v-1.846V465.457L20.395,465.457 M20.395,429.105h1.4h1.4v0.994v0.994
			h1.2h1.2v0.853v0.851h1.4h1.4v0.994v0.994h1.2h1.2v0.852v0.852h1.2h1.2v0.852v0.852h1.4h1.4v0.994v0.994h1.2h1.2v0.851v0.852h1.4
			h1.4v3.692v3.692h-1.4h-1.4v0.852v0.852h-1.2h-1.2v0.994v0.994h-1.4h-1.4v0.852v0.851h-1.2h-1.2v0.852v0.852h-1.2h-1.2v0.994
			v0.994h-1.4h-1.4v0.851v0.852h-1.2h-1.2v0.995v0.993h-1.4h-1.4v-1.846v-1.846h1.4h1.4v-0.994v-0.994h1.2h1.2v-0.852v-0.852h1.4
			h1.4v-0.851v-0.852h1.2h1.2v-0.994v-0.994h1.2h1.2v-0.852v-0.852h1.4h1.4v-0.994v-0.994h1.2h1.2v-1.704v-1.704h-1.2h-1.2v-0.994
			v-0.994h-1.4h-1.4v-0.852v-0.851h-1.2h-1.2v-0.994v-0.994h-1.2h-1.2v-0.852v-0.852h-1.4h-1.4v-0.852v-0.852h-1.2h-1.2v-0.994
			v-0.994h-1.4h-1.4v-1.846V429.105L20.395,429.105 M20.395,392.755h1.4h1.4v0.994v0.994h1.2h1.2v0.852v0.852h1.4h1.4v0.994v0.994
			h1.2h1.2v0.852v0.852h1.2h1.2v0.852v0.852h1.4h1.4v0.994v0.994h1.2h1.2v0.852v0.853h1.4h1.4v3.691v3.692h-1.4h-1.4v0.852v0.852
			h-1.2h-1.2v0.994v0.994h-1.4h-1.4v0.852v0.853h-1.2h-1.2v0.851v0.852h-1.2h-1.2v0.994v0.994h-1.4h-1.4v0.852v0.852h-1.2h-1.2
			v0.994v0.994h-1.4h-1.4v-1.846v-1.846h1.4h1.4v-0.994v-0.994h1.2h1.2v-0.852v-0.851h1.4h1.4v-0.853v-0.852h1.2h1.2v-0.994v-0.994
			h1.2h1.2v-0.852v-0.852h1.4h1.4v-0.994v-0.994h1.2h1.2v-1.704v-1.703h-1.2h-1.2v-0.994v-0.994h-1.4h-1.4v-0.853v-0.852h-1.2h-1.2
			v-0.994v-0.994h-1.2h-1.2v-0.852v-0.852h-1.4h-1.4v-0.852v-0.852h-1.2h-1.2v-0.994v-0.994h-1.4h-1.4v-1.846V392.755
			L20.395,392.755 M20.395,356.404h1.4h1.4v0.994v0.994h1.2h1.2v0.852v0.852h1.4h1.4v0.994v0.994h1.2h1.2v0.852v0.852h1.2h1.2v0.852
			v0.852h1.4h1.4v0.994v0.994h1.2h1.2v0.852v0.851h1.4h1.4v3.692v3.692h-1.4h-1.4v0.852v0.852h-1.2h-1.2v0.994v0.994h-1.4h-1.4
			v0.852v0.852h-1.2h-1.2v0.851v0.852h-1.2h-1.2v0.994v0.994h-1.4h-1.4v0.852v0.852h-1.2h-1.2v0.994v0.994h-1.4h-1.4v-1.846v-1.846
			h1.4h1.4v-0.994v-0.994h1.2h1.2v-0.852v-0.851h1.4h1.4v-0.852v-0.852h1.2h1.2v-0.994v-0.994h1.2h1.2v-0.852v-0.852h1.4h1.4v-0.994
			v-0.994h1.2h1.2v-1.704v-1.703h-1.2h-1.2v-0.994v-0.994h-1.4h-1.4v-0.851v-0.852h-1.2h-1.2v-0.994v-0.994h-1.2h-1.2v-0.852v-0.852
			h-1.4h-1.4v-0.852v-0.852h-1.2h-1.2v-0.994v-0.994h-1.4h-1.4v-1.846V356.404L20.395,356.404 M20.395,320.052h1.4h1.4v0.994v0.994
			h1.2h1.2v0.852v0.852h1.4h1.4v0.994v0.994h1.2h1.2v0.852v0.852h1.2h1.2v0.852v0.852h1.4h1.4v0.994v0.994h1.2h1.2v0.852v0.852h1.4
			h1.4v3.692v3.692h-1.4h-1.4v0.852v0.852h-1.2h-1.2v0.994v0.994h-1.4h-1.4v0.852v0.852h-1.2h-1.2v0.852v0.852h-1.2h-1.2v0.994
			v0.994h-1.4h-1.4v0.852v0.852h-1.2h-1.2v0.994v0.994h-1.4h-1.4v-1.846v-1.847h1.4h1.4v-0.994v-0.994h1.2h1.2v-0.852v-0.852h1.4
			h1.4v-0.852v-0.852h1.2h1.2v-0.994v-0.994h1.2h1.2v-0.852v-0.852h1.4h1.4v-0.994v-0.994h1.2h1.2v-1.704v-1.704h-1.2h-1.2v-0.994
			v-0.994h-1.4h-1.4v-0.852v-0.852h-1.2h-1.2v-0.994v-0.994h-1.2h-1.2v-0.852v-0.852h-1.4h-1.4v-0.852v-0.852h-1.2h-1.2v-0.994
			v-0.994h-1.4h-1.4v-1.846V320.052L20.395,320.052 M20.395,283.701h1.4h1.4v0.994v0.994h1.2h1.2v0.852v0.852h1.4h1.4v0.994v0.993
			h1.2h1.2v0.852v0.852h1.2h1.2v0.852v0.852h1.4h1.4v0.994v0.994h1.2h1.2v0.852v0.852h1.4h1.4v3.692v3.692h-1.4h-1.4v0.852v0.852
			h-1.2h-1.2v0.994v0.994h-1.4h-1.4v0.851v0.852h-1.2h-1.2v0.852v0.852h-1.2h-1.2v0.994v0.994h-1.4h-1.4v0.852v0.852h-1.2h-1.2
			v0.994v0.994h-1.4h-1.4v-1.846v-1.847h1.4h1.4v-0.994v-0.994h1.2h1.2v-0.852v-0.852h1.4h1.4v-0.852v-0.851h1.2h1.2v-0.994v-0.994
			h1.2h1.2v-0.852v-0.852h1.4h1.4v-0.994v-0.994h1.2h1.2v-1.704v-1.704h-1.2h-1.2v-0.994v-0.994h-1.4h-1.4v-0.852v-0.852h-1.2h-1.2
			v-0.994v-0.994h-1.2h-1.2v-0.852v-0.852h-1.4h-1.4v-0.852v-0.852h-1.2h-1.2v-0.994v-0.994h-1.4h-1.4v-1.846V283.701
			L20.395,283.701 M23.194,245.767l1.36,0.233l1.36,0.233l-0.332,0.966l-0.354,1.099l1.173,0.179l1.173,0.178l-0.28,0.923
			l-0.226,0.836l1.375,0.186l1.375,0.185l-0.257,1.02l-0.236,1.023l1.189,0.117l1.188,0.116l-0.166,0.844l-0.154,0.845l1.192,0.096
			l1.192,0.095l-0.136,0.847l-0.109,0.806l1.395,0.086l1.395,0.087l-0.108,0.899l-0.089,0.992l1.197,0.053l1.198,0.053l-0.046,0.717
			l-0.045,0.851l1.399,0.037l1.399,0.037l-0.02,3.415v3.692h-1.4h-1.4v0.852v0.852h-1.2h-1.2v0.994v0.994h-1.4h-1.4v0.852v0.852
			h-1.2h-1.2v0.852v0.852h-1.2h-1.2v0.994v0.994h-1.4h-1.4v0.852v0.852h-1.2h-1.2v0.994v0.994h-1.4h-1.4v-1.846v-1.846h1.4h1.4
			v-0.994v-0.994h1.2h1.2v-0.852v-0.852h1.4h1.4v-0.852v-0.852h1.2h1.2v-0.994v-0.994h1.2h1.2v-0.852v-0.852h1.4h1.4v-0.994v-0.994
			h1.2h1.2v-1.704v-1.704h-1.2h-1.2l0.008-0.948l0.016-0.901l-1.399-0.037l-1.399-0.038l0.045-0.851l0.052-0.808l-1.197-0.053
			l-1.197-0.053l0.089-0.992l0.117-0.991l-1.195-0.074l-1.196-0.075l0.121-0.891l0.136-0.846l-1.391-0.112l-1.391-0.111l0.171-0.937
			l0.166-0.844l-1.188-0.117l-1.189-0.116l0.256-1.114l0.28-1.111l-1.375-0.185l-1.375-0.185l0.575-1.988L23.194,245.767
			L23.194,245.767 M54.374,211.737l0.864,0.777l0.864,0.777l-1.383,0.783l-1.065,0.65l0.785,0.64l0.785,0.64l-0.912,0.558
			l-1.091,0.681l0.966,0.715l0.966,0.715l-1.019,0.686l-1.019,0.685l0.828,0.613l0.828,0.612l-0.861,0.597l-0.833,0.616l0.868,0.585
			l0.868,0.584l-0.833,0.616l-0.75,0.561l1.058,0.646l1.059,0.646l-0.922,0.752l-0.922,0.751l0.907,0.554l0.908,0.554l-0.545,0.453
			l-0.746,0.67l1.101,0.611l1.101,0.61l-2.817,2.681l-2.293,2.504l-1.214-0.491l-1.215-0.492l-0.6,0.74l-0.601,0.739l-1.041-0.421
			l-1.041-0.421l-0.561,0.713l-0.641,0.885l-1.247-0.45l-1.246-0.449l-0.549,0.759l-0.481,0.69l-1.094-0.348l-1.094-0.348
			l-0.496,0.777l-0.496,0.777l-1.094-0.349l-1.094-0.348l-0.609,0.987l-0.515,0.925l-1.303-0.361l-1.303-0.361l-0.442,0.793
			l-0.517,0.965l-1.137-0.27l-1.137-0.27l-0.45,0.941l-0.45,0.942l-1.327-0.316l-1.327-0.315l0.836-1.749l1.111-2.063l1.303,0.362
			l1.303,0.361l0.515-0.925l0.708-1.153l1.094,0.348l1.094,0.348l0.496-0.777l0.496-0.776l1.276,0.406l1.276,0.406l0.582-0.839
			l0.549-0.759l1.069,0.385l1.068,0.385l0.641-0.885l0.681-0.869l1.041,0.42l1.041,0.422l0.601-0.739l0.601-0.739l1.214,0.491
			l1.214,0.492l0.608-0.694l0.759-0.837l1.011,0.456l1.011,0.457l1.132-1.204l1.398-1.389l-0.978-0.49l-0.978-0.49l0.699-0.651
			l0.87-0.782l-1.101-0.611l-1.101-0.61l0.746-0.67l0.704-0.589l-0.907-0.555l-0.908-0.554l0.922-0.751l0.922-0.752l-0.907-0.554
			l-0.907-0.555l0.904-0.68l0.833-0.617l-1.013-0.681l-1.013-0.681l0.833-0.617l1.037-0.721l-0.828-0.612l-0.828-0.613l1.019-0.685
			l1.019-0.686l-0.966-0.715l-0.966-0.716l2.34-1.449L54.374,211.737L54.374,211.737 M107.923,197.869l0.053,0.987l0.053,0.987
			l-1.408,0.037l-1.597,0.065l0.076,0.845l0.075,0.845l-1.335,0.067l-1.203,0.074l0.123,0.984l0.123,0.984l-1.461,0.108
			l-1.459,0.123l0.165,0.839l0.165,0.838l-1.196,0.118l-1.194,0.129l0.195,0.835l0.195,0.835l-1.191,0.139l-1.128,0.151l0.262,0.97
			l0.262,0.97l-1.254,0.176l-1.376,0.21l0.254,0.828l0.254,0.827l-0.989,0.17l-0.988,0.174l0.364,0.954l0.364,0.954l-4.394,0.929
			l-4.427,1.151l-0.512-0.919l-0.512-0.919l-0.775,0.217l-1.101,0.35l-0.493-0.772l-0.493-0.772l-1.284,0.409l-1.048,0.342
			l-0.637-0.88l-0.637-0.879l-1.075,0.388l-1.075,0.388l-0.546-0.754l-0.546-0.754l-1.073,0.391l-1.047,0.424l-0.597-0.735
			l-0.598-0.734l-1.221,0.495l-1.314,0.545l-0.754-0.832l-0.754-0.832l-1.017,0.459l-1.017,0.459l-0.647-0.713l-0.646-0.713
			l-1.484,0.688l-1.149,0.575l-0.811-0.806l-0.81-0.805l2.574-1.24l2.203-0.995l0.754,0.832l0.754,0.832l1.529-0.637l1.222-0.495
			l0.597,0.735l0.597,0.735l1.047-0.424l1.295-0.476l0.637,0.88l0.637,0.88l1.075-0.388l1.075-0.388l0.546,0.754l0.546,0.754
			l1.276-0.419l1.285-0.408l0.493,0.772l0.493,0.772l1.101-0.35l1.011-0.286l0.512,0.919l0.512,0.919l1.311-0.364l1.311-0.363
			l0.439,0.788l0.439,0.787l1.934-0.457l2.028-0.464l-0.341-0.812l-0.341-0.811l1.228-0.254l1.36-0.259l-0.364-0.954l-0.364-0.954
			l1.113-0.196l1.115-0.191l-0.254-0.828l-0.254-0.827l1.377-0.211l1.381-0.195l-0.225-0.831l-0.224-0.832l1.246-0.165l1.191-0.138
			l-0.228-0.975l-0.227-0.975l1.322-0.144l1.196-0.117l-0.165-0.839l-0.166-0.838l1.588-0.134l1.591-0.117l-0.123-0.984
			l-0.123-0.983l2.869-0.157L107.923,197.869L107.923,197.869 M146.953,197.834v0.988v0.988h-1.409h-1.409v0.847v0.847h-1.207
			h-1.208v0.987v0.988h-1.409h-1.409v0.847v0.847h-2.415h-2.415v-0.847v-0.847h-1.409h-1.409v-0.988v-0.987h-1.207h-1.208v-0.847
			v-0.847h-1.409h-1.409v-0.988v-0.988h2.616h2.616v0.988v0.988h1.409h1.409v0.847v0.847h2.415h2.415v-0.847v-0.847h1.409h1.409
			v-0.988v-0.988h2.616H146.953L146.953,197.834 M198.472,197.834v0.988v0.988h-1.409h-1.409v0.847v0.847h-1.207h-1.208v0.987v0.988
			h-1.409h-1.409v0.847v0.847h-2.415h-2.415v-0.847v-0.847h-1.409h-1.409v-0.988v-0.987h-1.207h-1.208v-0.847v-0.847h-1.409h-1.409
			v-0.988v-0.988h2.616h2.616v0.988v0.988h1.409h1.409v0.847v0.847h2.415h2.415v-0.847v-0.847h1.409h1.409v-0.988v-0.988h2.616
			H198.472L198.472,197.834 M249.99,197.834v0.988v0.988h-1.409h-1.409v0.847v0.847h-1.208h-1.207v0.987v0.988h-1.409h-1.409v0.847
			v0.847h-2.415h-2.415v-0.847v-0.847h-1.409h-1.409v-0.988v-0.987h-1.207h-1.208v-0.847v-0.847h-1.409h-1.409v-0.988v-0.988h2.616
			h2.616v0.988v0.988h1.409h1.409v0.847v0.847h2.415h2.415v-0.847v-0.847h1.409h1.409v-0.988v-0.988h2.616H249.99L249.99,197.834
			 M301.509,197.834v0.988v0.988H300.1h-1.409v0.847v0.847h-1.208h-1.207v0.987v0.988h-1.409h-1.409v0.847v0.847h-2.415h-2.415
			v-0.847v-0.847h-1.409h-1.409v-0.988v-0.987h-1.208h-1.207v-0.847v-0.847h-1.409h-1.409v-0.988v-0.988h2.616h2.616v0.988v0.988
			h1.409h1.409v0.847v0.847h2.415h2.415v-0.847v-0.847h1.409h1.409v-0.988v-0.988h2.616H301.509L301.509,197.834 M353.026,197.834
			v0.988v0.988h-1.408h-1.409v0.847v0.847h-1.208h-1.207v0.987v0.988h-1.409h-1.409v0.847v0.847h-2.414h-2.414v-0.847v-0.847h-1.408
			h-1.409v-0.988v-0.987h-1.208h-1.207v-0.847v-0.847h-1.409h-1.409v-0.988v-0.988h2.617h2.616v0.988v0.988h1.408h1.409v0.847v0.847
			h2.414h2.414v-0.847v-0.847h1.409h1.409v-0.988v-0.988h2.616H353.026L353.026,197.834 M404.545,197.834v0.988v0.988h-1.409h-1.409
			v0.847v0.847h-1.207h-1.208v0.987v0.988h-1.409h-1.408v0.847v0.847h-2.415h-2.414v-0.847v-0.847h-1.409h-1.408v-0.988v-0.987
			h-1.207h-1.209v-0.847v-0.847h-1.408h-1.408v-0.988v-0.988h2.616h2.616v0.988v0.988h1.408h1.409v0.847v0.847h2.414h2.415v-0.847
			v-0.847h1.408h1.409v-0.988v-0.988h2.616H404.545L404.545,197.834 M456.063,197.834v0.988v0.988h-1.409h-1.408v0.847v0.847h-1.208
			h-1.207v0.987v0.988h-1.409h-1.408v0.847v0.847h-2.415h-2.414v-0.847v-0.847h-1.409h-1.408v-0.988v-0.987h-1.208h-1.208v-0.847
			v-0.847h-1.408h-1.409v-0.988v-0.988h2.616h2.617v0.988v0.988h1.408h1.409v0.847v0.847h2.414h2.415v-0.847v-0.847h1.408h1.409
			v-0.988v-0.988h2.616H456.063L456.063,197.834 M508.486,198.089l-0.122,0.984l-0.123,0.983l-1.595-0.09l-1.405-0.062l-0.076,0.845
			l-0.075,0.845l-1.337-0.042l-1.338-0.032l-0.018,0.988l-0.018,0.988l-1.408-0.013l-1.439-0.005v0.847v0.847h-2.415h-2.414v-0.847
			v-0.847h-1.409h-1.408v-0.988v-0.987h-1.208h-1.207v-0.847v-0.847h-1.409h-1.409v-0.988v-0.988h2.617h2.616v0.988v0.988h1.408
			h1.409v0.847v0.847h2.414h2.415v-0.847v-0.847l1.504,0.005l1.408,0.013l0.018-0.988l0.018-0.988l3.137,0.089L508.486,198.089
			L508.486,198.089 M560.796,214.103l-0.916,0.746l-0.916,0.747l-1.065-0.651l-1.065-0.65l-0.785,0.64l-0.785,0.64l-1.122-0.656
			l-0.95-0.526l-0.864,0.777l-0.865,0.777l-1.107-0.613l-1.221-0.644l-0.694,0.69l-0.695,0.691l-1.969-0.986l-2.015-0.939
			l0.647-0.713l0.646-0.713l-1.186-0.535l-1.303-0.559l0.697-0.857l0.696-0.857l-1.047-0.424l-1.047-0.423l0.598-0.735l0.596-0.734
			l-1.561-0.601l-1.254-0.452l0.637-0.879l0.637-0.88l2.76,1.027l2.27,0.918l-0.697,0.857l-0.696,0.857l1.517,0.651l1.187,0.535
			l-0.647,0.713l-0.646,0.713l2.222,1.038l1.97,0.986l0.694-0.69l0.695-0.69l1.42,0.749l1.109,0.613l0.864-0.777l0.865-0.777
			l2.415,1.387L560.796,214.103L560.796,214.103 M589.132,249.364l-1.375,0.185l-1.376,0.185l-0.318-1.105l-0.342-1.102l-1.166,0.2
			l-1.166,0.2l-0.286-0.829l-0.329-0.914l-1.352,0.257l-1.352,0.257l-0.367-0.96l-0.415-0.994l-1.15,0.241l-1.151,0.24l-0.748-1.62
			l-0.784-1.611l1.117-0.309l1.117-0.309l-0.514-0.925l-0.515-0.925l1.303-0.362l1.303-0.361l-0.557-0.953l-0.497-0.777l1.094-0.348
			l1.094-0.348l-0.579-0.906l-0.763-1.134l1.247-0.45l1.247-0.449l1.317,1.998l1.236,2.025l-1.303,0.362l-1.304,0.361l0.515,0.925
			l0.515,0.925l-1.117,0.31l-1.117,0.309l0.871,1.782l0.808,1.749l1.15-0.241l1.151-0.24l0.45,1.081l0.366,0.96l1.352-0.257
			l1.352-0.257l0.748,2.148L589.132,249.364L589.132,249.364 M590.795,287.022h-1.399h-1.4v-0.994v-0.994h-1.2h-1.2v-0.853v-0.852
			h-1.4h-1.399v-0.994v-0.994h-1.2h-1.2v-1.704v-1.704h1.2h1.2v-0.994v-0.994h1.399h1.4v-0.852v-0.851h1.2h1.2v-0.994v-0.994h1.4
			h1.399v1.846v1.846h-1.399h-1.4v0.994v0.994h-1.2h-1.2v1.704v1.704h1.2h1.2v0.994v0.994h1.4h1.399v1.846V287.022L590.795,287.022
			 M590.795,323.372h-1.399h-1.4v-0.994v-0.994h-1.2h-1.2v-0.852v-0.852h-1.4h-1.399v-0.994v-0.994h-1.2h-1.2v-1.704v-1.704h1.2h1.2
			v-0.994v-0.994h1.399h1.4v-0.852v-0.852h1.2h1.2v-0.994v-0.994h1.4h1.399v1.847v1.846h-1.399h-1.4v0.994v0.994h-1.2h-1.2v1.704
			v1.704h1.2h1.2v0.994v0.994h1.4h1.399v1.846V323.372L590.795,323.372 M590.795,359.723h-1.399h-1.4v-0.994v-0.994h-1.2h-1.2
			v-0.851v-0.852h-1.4h-1.399v-0.994v-0.994h-1.2h-1.2v-1.704v-1.704h1.2h1.2v-0.994v-0.994h1.399h1.4v-0.852v-0.852h1.2h1.2v-0.994
			v-0.994h1.4h1.399v1.846v1.846h-1.399h-1.4v0.994v0.994h-1.2h-1.2v1.704v1.704h1.2h1.2v0.994v0.994h1.4h1.399v1.846V359.723
			L590.795,359.723 M590.795,396.075h-1.399h-1.4v-0.994v-0.994h-1.2h-1.2v-0.852v-0.852h-1.4h-1.399v-0.994v-0.994h-1.2h-1.2
			v-1.704v-1.704h1.2h1.2v-0.994v-0.994h1.399h1.4v-0.852v-0.852h1.2h1.2v-0.994v-0.994h1.4h1.399v1.846v1.846h-1.399h-1.4v0.994
			v0.994h-1.2h-1.2v1.704v1.704h1.2h1.2v0.994v0.994h1.4h1.399v1.846V396.075L590.795,396.075 M590.795,432.426h-1.399h-1.4v-0.994
			v-0.994h-1.2h-1.2v-0.853v-0.851h-1.4h-1.399v-0.994v-0.994h-1.2h-1.2v-1.704v-1.704h1.2h1.2v-0.994v-0.994h1.399h1.4v-0.852
			v-0.851h1.2h1.2v-0.994v-0.994h1.4h1.399v1.846v1.846h-1.399h-1.4v0.994v0.994h-1.2h-1.2v1.704v1.704h1.2h1.2v0.994v0.994h1.4
			h1.399v1.846V432.426L590.795,432.426 M590.795,468.777h-1.399h-1.4v-0.994v-0.994h-1.2h-1.2v-0.852v-0.851h-1.4h-1.399v-0.995
			v-0.993h-1.2h-1.2v-1.704v-1.704h1.2h1.2v-0.993V457.7h1.399h1.4v-0.852v-0.852h1.2h1.2v-0.994v-0.994h1.4h1.399v1.847v1.845
			h-1.399h-1.4v0.995v0.993h-1.2h-1.2v1.704v1.704h1.2h1.2v0.993v0.995h1.4h1.399v1.846V468.777L590.795,468.777 M590.795,505.128
			h-1.399h-1.4v-0.994v-0.994h-1.2h-1.2v-0.852v-0.851h-1.4h-1.399v-0.995v-0.993h-1.2h-1.2v-1.704v-1.704h1.2h1.2v-0.994v-0.994
			h1.399h1.4v-0.852v-0.851h1.2h1.2v-0.994v-0.993h1.4h1.399v1.846v1.846h-1.399h-1.4v0.994v0.994h-1.2h-1.2v1.704v1.704h1.2h1.2
			v0.993v0.995h1.4h1.399v1.846V505.128L590.795,505.128 M590.795,541.479h-1.399h-1.4v-0.994v-0.994h-1.2h-1.2v-0.852v-0.851h-1.4
			h-1.399v-0.995v-0.993h-1.2h-1.2v-1.704v-1.704h1.2h1.2v-0.994v-0.994h1.399h1.4v-0.852v-0.85h1.2h1.2v-0.995v-0.993h1.4h1.399
			v1.846v1.846h-1.399h-1.4v0.994v0.994h-1.2h-1.2v1.704v1.704h1.2h1.2v0.993v0.995h1.4h1.399v1.846V541.479L590.795,541.479
			 M590.795,577.83h-1.399h-1.4v-0.993v-0.995h-1.2h-1.2v-0.852v-0.85h-1.4h-1.399v-0.994v-0.994h-1.2h-1.2v-1.705v-1.703h1.2h1.2
			v-0.994v-0.994h1.399h1.4v-0.852v-0.85h1.2h1.2v-0.995v-0.993h1.4h1.399v1.846v1.846h-1.399h-1.4v0.994v0.994h-1.2h-1.2v1.703
			v1.705h1.2h1.2v0.994v0.994h1.4h1.399v1.846V577.83L590.795,577.83 M590.795,614.181h-1.399h-1.4v-0.993v-0.995h-1.2h-1.2v-0.852
			v-0.852h-1.4h-1.399v-0.993v-0.993h-1.2h-1.2v-1.705v-1.703h1.2h1.2v-0.995v-0.993h1.399h1.4v-0.852v-0.85h1.2h1.2v-0.995v-0.993
			h1.4h1.399v1.846v1.846h-1.399h-1.4v0.993v0.995h-1.2h-1.2v1.703v1.705h1.2h1.2v0.993v0.993h1.4h1.399v1.848V614.181
			L590.795,614.181 M590.795,650.532h-1.399h-1.4v-0.995v-0.993h-1.2h-1.2v-0.852v-0.852h-1.4h-1.399v-0.993v-0.993h-1.2h-1.2
			v-1.705v-1.703h1.2h1.2v-0.993v-0.995h1.399h1.4v-0.852v-0.851h1.2h1.2v-0.995v-0.993h1.4h1.399v1.846v1.846h-1.399h-1.4v0.995
			v0.993h-1.2h-1.2v1.703v1.705h1.2h1.2v0.993v0.993h1.4h1.399v1.848V650.532L590.795,650.532 M583.169,689.241l-1.276-0.407
			l-1.276-0.405l0.708-1.154l0.515-0.925l-1.117-0.309l-1.117-0.311l0.441-0.792l0.518-0.966l-1.327-0.317l-1.326-0.315l0.45-0.942
			l0.45-0.94l-1.137-0.272l-1.137-0.27l0.716-1.627l0.638-1.644l1.166,0.201l1.167,0.199l0.333-0.966l0.325-1.011l1.368,0.209
			l1.368,0.209l0.28-0.923l0.227-0.837l1.178,0.158l1.178,0.158l0.281-1.111l0.255-1.114l1.387,0.137l1.387,0.137l-0.521,2.182
			l-0.569,1.988l-1.368-0.209l-1.368-0.209l-0.354,1.101l-0.332,0.964l-1.167-0.199l-1.166-0.199l-0.704,1.82l-0.774,1.756
			l1.136,0.27l1.137,0.272l-0.45,0.942l-0.45,0.94l1.327,0.317l1.326,0.315l-1.121,2.061L583.169,689.241L583.169,689.241
			 M544.91,719.079l-0.696-0.856l-0.696-0.856l1.221-0.495l1.529-0.637l-0.646-0.714l-0.647-0.712l1.017-0.459l1.017-0.459
			l-0.754-0.833l-0.755-0.831l1.275-0.589l1.149-0.575l-0.695-0.692l-0.694-0.688l1.963-0.993l1.899-1.052l0.741,0.665l0.74,0.667
			l1.191-0.671l1.064-0.651l0.916,0.747l0.916,0.747l0.913-0.557l1.09-0.68l0.828,0.612l0.827,0.614l1.02-0.686l1.02-0.686
			l0.965,0.716l0.966,0.716l-1.893,1.273l-2.334,1.455l-0.916-0.747l-0.916-0.747l-1.065,0.651l-1.383,0.782l-0.74-0.665
			l-0.741-0.667l-1.899,1.052l-2.163,1.097l0.695,0.692l0.694,0.69l-1.148,0.575l-1.484,0.686l0.754,0.833l0.755,0.833l-2.203,0.993
			L544.91,719.079L544.91,719.079 M489.996,727.311v-0.987v-0.987h1.409h1.408v-0.847v-0.847h1.208h1.208v-0.989v-0.987h1.408h1.409
			v-0.847v-0.847h2.414l2.414-0.029l0.045,0.847l0.046,0.847l1.407-0.037l1.467-0.061l0.088,0.985l0.088,0.985l1.335-0.066
			l1.202-0.074l0.106,0.843l0.106,0.843l1.591-0.115l1.588-0.135l0.193,0.98l0.194,0.978l-3.119,0.25l-2.868,0.16l-0.088-0.985
			l-0.088-0.985l-1.597,0.065l-1.408,0.037l-0.045-0.847l-0.045-0.847l-2.546,0.031h-2.48v0.847v0.847h-1.409h-1.408v0.989v0.987
			h-2.616H489.996L489.996,727.311 M438.478,727.311v-0.987v-0.989h1.408h1.409v-0.847v-0.847h1.208h1.207v-0.987v-0.989h1.409
			h1.408v-0.845v-0.849h2.415h2.414v0.849v0.845h1.409h1.408v0.989v0.987h1.208h1.208v0.847v0.847h1.408h1.409v0.989v0.987h-2.617
			h-2.616v-0.987v-0.989h-1.408h-1.409v-0.847v-0.847h-2.414h-2.415v0.847v0.847h-1.408h-1.409v0.989v0.987h-2.616H438.478
			L438.478,727.311 M386.96,727.311v-0.987v-0.989h1.408h1.408v-0.847v-0.847h1.208h1.208v-0.987v-0.989h1.408h1.409v-0.845v-0.849
			h2.414h2.415v0.849v0.845h1.408h1.409v0.989v0.987h1.208h1.207v0.847v0.847h1.409h1.409v0.989v0.987h-2.617h-2.616v-0.987v-0.989
			h-1.409h-1.408v-0.847v-0.847h-2.415h-2.414v0.847v0.847H393.6h-1.408v0.989v0.987h-2.617H386.96L386.96,727.311 M335.441,727.311
			v-0.987v-0.989h1.408h1.409v-0.847v-0.847h1.208h1.207v-0.987v-0.989h1.409h1.409v-0.845v-0.849h2.415h2.414v0.849v0.845h1.409
			h1.409v0.989v0.987h1.207h1.208v0.847v0.847h1.409h1.408v0.989v0.987h-2.617h-2.615v-0.987v-0.989h-1.409h-1.409v-0.847v-0.847
			h-2.414h-2.415v0.847v0.847h-1.409h-1.409v0.989v0.987h-2.615H335.441L335.441,727.311 M283.923,727.311v-0.987v-0.989h1.409
			h1.409v-0.847v-0.847h1.208h1.207v-0.987v-0.989h1.409h1.409v-0.845v-0.849h2.415h2.415v0.849v0.845h1.409h1.409v0.989v0.987
			h1.208h1.207v0.847v0.847h1.409h1.409v0.989v0.987h-2.617h-2.616v-0.987v-0.989h-1.409h-1.409v-0.847v-0.847h-2.415h-2.415v0.847
			v0.847h-1.409h-1.409v0.989v0.987h-2.616H283.923L283.923,727.311 M232.405,727.311v-0.987v-0.989h1.409h1.409v-0.847v-0.847
			h1.207h1.208v-0.987v-0.989h1.409h1.409v-0.845v-0.849h2.414h2.415v0.849v0.845h1.409h1.409v0.989v0.987h1.208h1.207v0.847v0.847
			h1.409h1.409v0.989v0.987h-2.616h-2.616v-0.987v-0.989h-1.409h-1.409v-0.847v-0.847h-2.414h-2.415v0.847v0.847h-1.409h-1.409
			v0.989v0.987h-2.616H232.405L232.405,727.311 M180.887,727.311v-0.987v-0.989h1.409h1.409v-0.847v-0.847h1.207h1.208v-0.987
			v-0.989h1.409h1.409v-0.845v-0.849h2.415h2.414v0.849v0.845h1.409h1.409v0.989v0.987h1.207h1.207v0.847v0.847h1.409h1.409v0.989
			v0.987H199.2h-2.616v-0.987v-0.989h-1.409h-1.409v-0.847v-0.847h-2.415h-2.415v0.847v0.847h-1.409h-1.409v0.989v0.987h-2.616
			H180.887L180.887,727.311 M129.368,727.311v-0.987v-0.989h1.409h1.409v-0.847v-0.847h1.207h1.208v-0.987v-0.989h1.409h1.409
			v-0.845v-0.849h2.415h2.415v0.849v0.845h1.409h1.409v0.989v0.987h1.207h1.207v0.847v0.847h1.409h1.409v0.989v0.987h-2.616h-2.616
			v-0.987v-0.989h-1.409h-1.409v-0.847v-0.847h-2.415h-2.415v0.847v0.847h-1.409h-1.409v0.989v0.987h-2.616H129.368L129.368,727.311
			 M74.494,721.975l0.576-0.901l0.575-0.899l1.637,0.495l1.311,0.364l0.439-0.788l0.439-0.79l1.124,0.313l1.372,0.36l0.447-0.937
			l0.447-0.935l1.335,0.317l1.335,0.317l0.383-0.802l0.383-0.802l2.307,0.501l2.331,0.444l-0.283,0.823l-0.283,0.823l1.369,0.235
			l1.433,0.227l-0.297,0.966l-0.296,0.964l1.308,0.195l1.186,0.158l-0.224,0.833l-0.225,0.831l1.575,0.195l1.579,0.178l-0.193,0.978
			l-0.193,0.978l-3.095-0.362l-2.819-0.399l0.296-0.966l0.296-0.966l-1.559-0.246l-1.369-0.235l0.283-0.823l0.283-0.823
			l-2.581-0.491l-2.491-0.542l-0.383,0.802l-0.383,0.802l-1.335-0.317l-1.335-0.317l-0.447,0.935l-0.447,0.937l-2.923-0.786
			L74.494,721.975L74.494,721.975 M32.139,695.03l1.214-0.493l1.215-0.491l0.701,0.862l0.909,1.077l1.011-0.458l1.011-0.456
			l0.651,0.718l0.651,0.718l1.179-0.532l1.179-0.534l0.84,0.897l0.816,0.809l0.978-0.489l0.978-0.491l1.413,1.382l1.491,1.339
			l-0.944,0.522l-0.944,0.524l0.956,0.837l0.922,0.751l-1.058,0.647l-1.059,0.645l0.79,0.645l0.971,0.764l-0.868,0.585l-0.869,0.585
			l0.972,0.72l0.972,0.719l-1.014,0.682l-1.013,0.68l-1.805-1.335l-2.067-1.644l1.058-0.645l1.059-0.647l-0.922-0.751l-1.115-0.974
			l0.944-0.522l0.944-0.522l-1.491-1.341l-1.562-1.523l-0.978,0.491l-0.978,0.491l-0.816-0.811l-0.98-1.044l-1.179,0.534
			l-1.179,0.532l-1.41-1.554L32.139,695.03L32.139,695.03 M20.395,656.3h1.4h1.4v0.993v0.993h1.2h1.2v0.852v0.852h1.4h1.4v0.993
			v0.995h1.2h1.2l0.002,1.703l0.045,1.703l-1.199,0.033l-1.199,0.031l0.053,0.993l0.089,1.034l-1.397,0.063l-1.397,0.063
			l0.098,0.942l0.106,0.849l-1.196,0.074l-1.195,0.074l0.17,1.122l0.194,1.12l-1.386,0.135l-1.387,0.137l-0.362-2.2l-0.232-2.024
			l1.397-0.063l1.397-0.063l-0.096-1.126l-0.053-0.993l1.199-0.031l1.199-0.033l-0.048-1.795l-0.003-1.75h-1.2h-1.2v-0.995v-0.993
			h-1.4h-1.4v-1.846V656.3L20.395,656.3 M20.395,619.949h1.4h1.4v0.993v0.993h1.2h1.2v0.854v0.851h1.4h1.4v0.995v0.993h1.2h1.2
			v1.703v1.705h-1.2h-1.2v0.993v0.995h-1.4h-1.4v0.85v0.852h-1.2h-1.2v0.993v0.995h-1.4h-1.4v-1.846v-1.846h1.4h1.4v-0.995v-0.993
			h1.2h1.2v-1.705v-1.703h-1.2h-1.2v-0.993v-0.995h-1.4h-1.4v-1.846V619.949L20.395,619.949 M20.395,583.598h1.4h1.4v0.993v0.995
			h1.2h1.2v0.85v0.852h1.4h1.4v0.995v0.993h1.2h1.2v1.703v1.705h-1.2h-1.2v0.993v0.995h-1.4h-1.4v0.85v0.852h-1.2h-1.2v0.995v0.993
			h-1.4h-1.4v-1.846v-1.846h1.4h1.4v-0.995v-0.993h1.2h1.2v-1.705v-1.703h-1.2h-1.2v-0.993v-0.995h-1.4h-1.4v-1.846V583.598
			L20.395,583.598 M20.395,547.247h1.4h1.4v0.993v0.995h1.2h1.2v0.851v0.852h1.4h1.4v0.994v0.994h1.2h1.2v1.703v1.705h-1.2h-1.2
			v0.993v0.994h-1.4h-1.4v0.852v0.852h-1.2h-1.2v0.995v0.993h-1.4h-1.4v-1.846v-1.847h1.4h1.4v-0.994v-0.993h1.2h1.2v-1.705v-1.703
			h-1.2h-1.2v-0.994v-0.994h-1.4h-1.4v-1.846V547.247L20.395,547.247 M20.395,510.896h1.4h1.4v0.993v0.995h1.2h1.2v0.852v0.851h1.4
			h1.4v0.994v0.994h1.2h1.2v1.703v1.705h-1.2h-1.2v0.994v0.994h-1.4h-1.4v0.852v0.851h-1.2h-1.2v0.994v0.994h-1.4h-1.4v-1.846
			v-1.846h1.4h1.4v-0.994v-0.994h1.2h1.2v-1.705v-1.703h-1.2h-1.2v-0.994v-0.994h-1.4h-1.4v-1.846V510.896L20.395,510.896
			 M20.395,474.545h1.4h1.4v0.993v0.995h1.2h1.2v0.851v0.852h1.4h1.4v0.994v0.994h1.2h1.2v1.705v1.703h-1.2h-1.2v0.994v0.994h-1.4
			h-1.4v0.851v0.852h-1.2h-1.2v0.994v0.994h-1.4h-1.4v-1.846v-1.846h1.4h1.4v-0.994v-0.994h1.2h1.2v-1.703v-1.705h-1.2h-1.2v-0.994
			v-0.994h-1.4h-1.4v-1.846V474.545L20.395,474.545 M20.395,438.193h1.4h1.4v0.994v0.994h1.2h1.2v0.851v0.852h1.4h1.4v0.994v0.994
			h1.2h1.2v1.704v1.704h-1.2h-1.2v0.994v0.994h-1.4h-1.4v0.852v0.852h-1.2h-1.2v0.994v0.994h-1.4h-1.4v-1.846v-1.846h1.4h1.4v-0.994
			v-0.994h1.2h1.2v-1.704v-1.704h-1.2h-1.2v-0.994v-0.994h-1.4h-1.4v-1.846V438.193L20.395,438.193 M20.395,401.842h1.4h1.4v0.994
			v0.994h1.2h1.2v0.852v0.852h1.4h1.4v0.994v0.994h1.2h1.2v1.703v1.704h-1.2h-1.2v0.994v0.994h-1.4h-1.4v0.852v0.852h-1.2h-1.2
			v0.994v0.994h-1.4h-1.4v-1.846v-1.846h1.4h1.4v-0.994v-0.994h1.2h1.2v-1.704v-1.703h-1.2h-1.2v-0.994v-0.994h-1.4h-1.4v-1.846
			V401.842L20.395,401.842 M20.395,365.492h1.4h1.4v0.994v0.994h1.2h1.2v0.852v0.851h1.4h1.4v0.994v0.994h1.2h1.2v1.703v1.704h-1.2
			h-1.2v0.994v0.994h-1.4h-1.4v0.852v0.852h-1.2h-1.2v0.994v0.994h-1.4h-1.4v-1.846v-1.846h1.4h1.4v-0.994v-0.994h1.2h1.2v-1.704
			v-1.703h-1.2h-1.2v-0.994v-0.994h-1.4h-1.4v-1.846V365.492L20.395,365.492 M20.395,329.141h1.4h1.4v0.994v0.994h1.2h1.2v0.852
			v0.852h1.4h1.4v0.994v0.994h1.2h1.2v1.704v1.704h-1.2h-1.2v0.994v0.994h-1.4h-1.4v0.852v0.852h-1.2h-1.2v0.994v0.994h-1.4h-1.4
			v-1.846v-1.846h1.4h1.4v-0.994v-0.994h1.2h1.2v-1.704v-1.704h-1.2h-1.2v-0.994v-0.994h-1.4h-1.4v-1.846V329.141L20.395,329.141
			 M20.395,292.79h1.4h1.4v0.994v0.994h1.2h1.2v0.852v0.853h1.4h1.4v0.994v0.993h1.2h1.2v1.704v1.704h-1.2h-1.2v0.994v0.994h-1.4
			h-1.4v0.852v0.852h-1.2h-1.2v0.994v0.994h-1.4h-1.4v-1.846v-1.846h1.4h1.4v-0.994v-0.994h1.2h1.2v-1.704v-1.703h-1.2h-1.2v-0.994
			v-0.994h-1.4h-1.4v-1.847V292.79L20.395,292.79 M20.771,255.801l1.395,0.087l1.395,0.087l-0.132,1.124l-0.089,0.992l1.197,0.054
			l1.197,0.053l-0.062,0.943l-0.045,0.852l1.399,0.037l1.399,0.037l-0.02,1.037l-0.009,1.016h1.2h1.2v1.703v1.704h-1.2h-1.2v0.994
			v0.994h-1.4h-1.4v0.852v0.852h-1.2h-1.2v0.994v0.994h-1.4h-1.4v-1.846v-1.846h1.4h1.4v-0.994v-0.994h1.2h1.2v-1.704v-1.703h-1.2
			h-1.2l0.009-1.062l0.023-1.129l-1.399-0.037l-1.399-0.037l0.127-2.029L20.771,255.801L20.771,255.801 M43.554,218.918l1.058,0.647
			l1.059,0.647l-0.922,0.751l-0.922,0.751l0.907,0.555l0.908,0.554l-0.936,0.787l-0.745,0.67l1.101,0.611l1.101,0.61l-0.869,0.782
			l-0.918,0.858l0.978,0.491l0.978,0.49l-1.398,1.389l-1.337,1.418l-1.011-0.456l-1.011-0.457l-0.759,0.837l-0.798,0.916
			l-1.215-0.492l-1.214-0.491l-0.601,0.739l-0.601,0.739l-1.041-0.421l-1.041-0.421l-0.857,1.099l-0.641,0.885l-1.247-0.45
			l-1.247-0.449l1.463-1.945l1.302-1.601l1.215,0.492l1.214,0.491l0.929-1.068l0.759-0.836l1.011,0.456l1.011,0.457l1.477-1.565
			l1.398-1.389l-0.978-0.491l-0.978-0.49l1.067-0.999l0.87-0.782l-1.101-0.611l-1.101-0.61l1.971-1.701L43.554,218.918
			L43.554,218.918 M93.58,198.987l0.262,0.971l0.262,0.97l-1.568,0.221l-1.376,0.211l0.254,0.828l0.254,0.827l-1.3,0.22l-1.297,0.23
			l0.364,0.954l0.364,0.954l-1.36,0.258l-1.41,0.29l0.341,0.812l0.341,0.812l-2.297,0.524l-2.286,0.547l-0.439-0.787l-0.439-0.788
			l-1.311,0.363l-1.311,0.364l-0.512-0.919l-0.512-0.919l-1.354,0.389l-1.101,0.35l-0.493-0.772l-0.493-0.772l-1.285,0.409
			l-1.611,0.533l-0.637-0.88l-0.637-0.879l2.835-0.925l2.874-0.867l0.512,0.92l0.512,0.919l1.311-0.364l1.311-0.364l0.439,0.788
			l0.439,0.788l2.527-0.61l2.481-0.566l-0.341-0.812l-0.341-0.812l1.534-0.315l1.36-0.258l-0.364-0.954l-0.364-0.954l3.045-0.523
			L93.58,198.987L93.58,198.987"/>
	</g>
</g>
<text transform="matrix(1 0 0 1 105.5 479.5002)" font-family="'MyriadPro-Bold'" font-size="240">SIM</text>
</svg>
