<svg xmlns="http://www.w3.org/2000/svg" viewBox="-1638.884 7058.29 349.822 349.811">
  <defs>
    <style>
      .cls-1, .cls-2 {
        fill: #00d3fc;
      }

      .cls-1 {
        stroke: #00d3fc;
      }
    </style>
  </defs>
  <g id="Group_6769" data-name="Group 6769" transform="translate(-1790.714 6840.461)">
    <g id="Group_6768" data-name="Group 6768" transform="translate(151.83 217.829)">
      <g id="tocou" transform="translate(68.195 91.735)">
        <g id="Group_4584" data-name="Group 4584" transform="translate(29.172 18.713)">
          <g id="Group_4583" data-name="Group 4583" transform="translate(0 0)">
            <path id="Path_2953" data-name="Path 2953" class="cls-1" d="M236.044,133.47l-37.818-41.56a19.253,19.253,0,0,0-27.227.06,18.825,18.825,0,0,0-4.868,8.318,19.268,19.268,0,0,0-30.185,10.048,19.273,19.273,0,0,0-25.3,1.75,19.037,19.037,0,0,0-4.828,8.117L88,102.381a19.252,19.252,0,0,0-27.227,27.227l68.475,68.475L88.634,204.46a22.53,22.53,0,0,0-19.251,22.2A15.105,15.105,0,0,0,84.47,241.745h94.837a54.953,54.953,0,0,0,39.116-16.2l15.821-15.821a55.251,55.251,0,0,0,1.8-76.25Zm-8.912,69.139L211.311,218.43a44.964,44.964,0,0,1-32,13.256H84.469a5.031,5.031,0,0,1-5.029-5.029,12.444,12.444,0,0,1,10.692-12.251l50.441-7.926a5.024,5.024,0,0,0,2.776-8.519L67.884,122.5a9.2,9.2,0,0,1,13.006-13.005l50.321,50.321a5.028,5.028,0,1,0,7.1-7.121l-20.549-20.549a9.2,9.2,0,0,1,13.005-13.005L151.326,139.7a5.028,5.028,0,1,0,7.1-7.121l-10.491-10.491a9.2,9.2,0,0,1,13.005-13.005l10.541,10.541c.02.01.01.01.01.01l.01.01.01.01.01.01h.01a.01.01,0,0,1,.01.01,5.029,5.029,0,0,0,7.01-7.212l-.432-.432a9.2,9.2,0,0,1,12.834-13.176l37.657,41.389a45.2,45.2,0,0,1-1.479,62.371Z" transform="translate(-55.153 -86.302)"/>
          </g>
        </g>
        <g id="Group_4586" data-name="Group 4586" transform="translate(0 0)">
          <g id="Group_4585" data-name="Group 4585" transform="translate(0 0)">
            <path id="Path_2954" data-name="Path 2954" class="cls-1" d="M86.459,80.017A45.217,45.217,0,1,0,26.684,139.8a5.033,5.033,0,0,0,4.144-9.173A35.159,35.159,0,1,1,77.3,84.161a5.028,5.028,0,1,0,9.162-4.143Z" transform="translate(0 -53.333)"/>
          </g>
        </g>
      </g>
      <g id="Group_4667" data-name="Group 4667" transform="translate(0 0)">
        <g id="Group_4660" data-name="Group 4660" transform="translate(0 0)">
          <g id="cancel" transform="translate(0 0)">
            <path id="Path_2866" data-name="Path 2866" class="cls-2" d="M174.911,0A174.906,174.906,0,1,0,349.822,174.9,174.9,174.9,0,0,0,174.911,0Zm0,317.016A142.115,142.115,0,1,1,317.026,174.9,142.111,142.111,0,0,1,174.911,317.02Z" transform="translate(0 -0.004)"/>
          </g>
        </g>
      </g>
    </g>
  </g>
</svg>
