<svg xmlns="http://www.w3.org/2000/svg" viewBox="-1136.92 7044.083 353.894 353.883">
  <defs>
    <style>
      .cls-1, .cls-2 {
        fill: #00d5ff;
      }

      .cls-1 {
        stroke: #00d5ff;
      }
    </style>
  </defs>
  <g id="Group_6767" data-name="Group 6767" transform="translate(-1288.921 6833.083)">
    <g id="Group_6394" data-name="Group 6394" transform="translate(152.001 211)">
      <g id="Group_4662" data-name="Group 4662" transform="translate(79.122 82.941)">
        <path id="Path_2937" data-name="Path 2937" class="cls-1" d="M9.411,75.287A9.414,9.414,0,0,1,0,65.876,65.949,65.949,0,0,1,65.876,0h65.876a9.411,9.411,0,1,1,0,18.822H65.876A47.108,47.108,0,0,0,18.822,65.876,9.414,9.414,0,0,1,9.411,75.287Z" transform="translate(159.986 0) rotate(90)"/>
        <path id="Path_2938" data-name="Path 2938" class="cls-1" d="M9.42,94.11a9.411,9.411,0,0,1-5.548-17.02l41.3-30.035L3.876,17.021A9.411,9.411,0,1,1,14.953,1.8L77.169,47.056,14.944,92.308A9.346,9.346,0,0,1,9.42,94.11Z" transform="translate(197.63 75.288) rotate(90)"/>
        <path id="Path_2939" data-name="Path 2939" class="cls-1" d="M75.287,75.287H9.411a9.411,9.411,0,1,1,0-18.822H75.287A47.108,47.108,0,0,0,122.342,9.411a9.411,9.411,0,0,1,18.822,0A65.949,65.949,0,0,1,75.287,75.287Z" transform="translate(112.931 51.76) rotate(90)"/>
        <path id="Path_2940" data-name="Path 2940" class="cls-1" d="M67.749,94.112a9.369,9.369,0,0,1-5.529-1.8L0,47.058,62.225,1.805A9.411,9.411,0,0,1,73.3,17.023L32,47.058l41.3,30.035a9.411,9.411,0,0,1-5.543,17.02Z" transform="translate(94.112 40.467) rotate(90)"/>
      </g>
      <g id="Group_4660" data-name="Group 4660" transform="translate(0)">
        <g id="cancel" transform="translate(0 0)">
          <path id="Path_2866" data-name="Path 2866" class="cls-2" d="M176.947,0A176.941,176.941,0,1,0,353.894,176.94,176.938,176.938,0,0,0,176.947,0Zm0,320.706A143.769,143.769,0,1,1,320.716,176.94,143.765,143.765,0,0,1,176.947,320.71Z" transform="translate(0 -0.004)"/>
        </g>
      </g>
    </g>
  </g>
</svg>
