<svg xmlns="http://www.w3.org/2000/svg" viewBox="1386.23 7058.233 357.594 357.583">
  <defs>
    <style>
      .cls-1 {
        fill: #ec1c81;
      }
    </style>
  </defs>
  <g id="cancel" transform="translate(1386.23 7058.229)">
    <path id="Path_2866" data-name="Path 2866" class="cls-1" d="M210.456,178.668l31.6-31.6a11.163,11.163,0,0,0,0-15.8l-15.8-15.812a11.173,11.173,0,0,0-15.8,0l-31.614,31.614-31.591-31.591a11.19,11.19,0,0,0-15.824-.023l-15.8,15.812a11.166,11.166,0,0,0,.022,15.812l31.591,31.591L115.7,210.2a11.163,11.163,0,0,0,0,15.8l15.8,15.812a11.173,11.173,0,0,0,15.8,0l31.535-31.535,31.759,31.77a11.18,11.18,0,0,0,15.824.011l15.8-15.8a11.19,11.19,0,0,0-.011-15.824ZM178.8,0a178.792,178.792,0,1,0,178.8,178.786A178.789,178.789,0,0,0,178.8,0Zm0,324.059A145.273,145.273,0,1,1,324.069,178.79,145.268,145.268,0,0,1,178.8,324.063Z" transform="translate(0 0)"/>
  </g>
</svg>
