<?xml version="1.0" encoding="utf-8"?>
<!-- Generator: Adobe Illustrator 16.0.3, SVG Export Plug-In . SVG Version: 6.00 Build 0)  -->
<!DOCTYPE svg PUBLIC "-//W3C//DTD SVG 1.1//EN" "http://www.w3.org/Graphics/SVG/1.1/DTD/svg11.dtd">
<svg version="1.1" id="Layer_1" xmlns="http://www.w3.org/2000/svg" xmlns:xlink="http://www.w3.org/1999/xlink" x="0px" y="0px"
	 width="595.281px" height="841.891px" viewBox="0 0 595.281 841.891" enable-background="new 0 0 595.281 841.891"
	 xml:space="preserve">
<g id="Group_6767" transform="translate(-1288.921 6833.083)">
	<g id="Group_6394" transform="translate(152.001 211)">
		<g id="Group_4662" transform="translate(79.122 82.941)">
			<path id="Path_2938_1_" fill="#00D5FF" stroke="#00D5FF" d="M1340.479-6523.639c-10.867-5.353-13.107-24.947-5.223-43.836
				c4.565-10.934,11.899-19.647,19.781-23.638l131.885-65.99l-39.859-151.646c-4.097-15.545,2.983-37.738,15.877-49.705
				c12.89-11.967,26.438-9.4,30.534,6.143l60.076,228.383l-198.779,99.454C1349.65-6521.857,1344.66-6521.576,1340.479-6523.639z"/>
		</g>
	</g>
</g>
<polygon fill="#00D5FF" stroke="#00D5FF" points="466.39,460.798 442.318,518.154 95.472,346.436 119.542,289.082 "/>
<text transform="matrix(0.2645 -0.0433 0.1614 0.9869 31.8047 288.9888)" font-family="'Arial-BoldMT'" font-size="286.983">SAIU DA TELA</text>
</svg>
