<?xml version="1.0" encoding="utf-8"?>
<!-- Generator: Adobe Illustrator 16.0.3, SVG Export Plug-In . SVG Version: 6.00 Build 0)  -->
<!DOCTYPE svg PUBLIC "-//W3C//DTD SVG 1.1//EN" "http://www.w3.org/Graphics/SVG/1.1/DTD/svg11.dtd">
<svg version="1.1" id="Capa_1" xmlns="http://www.w3.org/2000/svg" xmlns:xlink="http://www.w3.org/1999/xlink" x="0px" y="0px"
	 width="595.281px" height="841.891px" viewBox="0 0 595.281 841.891" enable-background="new 0 0 595.281 841.891"
	 xml:space="preserve">
<g>
	<g>
		<path d="M250.781,314.323l8.695,95.956l176.682,1.806l10.606-95.77c1.23-10.978-3.731-21.733-12.884-27.919l-2.485-1.683
			c-49.518-33.719-114.448-34.382-164.645-1.683l-2.528,1.641C254.947,292.668,249.768,303.323,250.781,314.323z M275.068,303.326
			l2.529-1.641c43.51-28.346,99.791-27.771,142.715,1.458l2.483,1.683c3.037,2.067,4.685,5.641,4.28,9.293l-8.626,77.937
			l-140.86-1.44l-7.031-78.106C270.248,308.849,271.982,305.317,275.068,303.326z"/>
	</g>
</g>
<g>
	<g>
		<path d="M263.853,614.238l19.132,10.883c38.701,22.178,86.143,22.664,125.289,1.281l19.37-10.49
			c11.05-6.023,17.132-18.332,15.201-30.77l-8.429-54.113l-175.58-1.795l-9.554,53.92
			C247.096,595.552,252.923,607.988,263.853,614.238z M268.829,586.619l6.614-37.365l141.961,1.449l5.858,37.506
			c0.65,4.148-1.384,8.258-5.076,10.258l-19.351,10.49c-33.125,18.092-73.271,17.682-106.02-1.082l-19.132-10.885
			C270.046,594.896,268.107,590.754,268.829,586.619z"/>
	</g>
</g>
<g>
	<g>
		
			<rect x="409.349" y="187.504" transform="matrix(0.8376 -0.5462 0.5462 0.8376 -53.8891 265.2654)" width="19.846" height="71.557"/>
	</g>
</g>
<g>
	<g>
		
			<rect x="244.45" y="211.711" transform="matrix(0.5634 -0.8262 0.8262 0.5634 -60.7601 328.2977)" width="71.566" height="19.85"/>
	</g>
</g>
<g>
	<g>
		<path d="M163.98,377.695c2.711,1.875,6.178,2.283,9.249,1.087l41.299-16.033l4.211,56.909l-15.943,169.543
			c-4.309,44.389,19.064,86.871,58.869,106.988l7.799,3.98c47.289,23.992,103.063,24.563,150.832,1.541l7.869-3.82
			c40.221-19.287,64.477-61.287,61.083-105.762l-12.505-169.834l5.345-56.851l40.963,16.873c5.06,2.108,10.869-0.285,12.977-5.345
			c0.487-1.169,0.745-2.419,0.762-3.684l0.269-26.257c0.163-12.187-7.15-23.229-18.433-27.837l-30.963-12.751l4.663-49.354
			c4.389-46.689-21.695-90.917-64.677-109.67l-33.947-14.905c-27.351-11.95-58.384-12.267-85.975-0.879l-34.245,14.208
			c-43.372,17.856-70.371,61.545-66.944,108.324l3.633,49.439l-31.217,12.116c-11.366,4.382-18.894,15.272-18.978,27.455
			l-0.268,26.258C159.675,372.725,161.274,375.82,163.98,377.695z M487.631,327.897l23.433,9.658
			c3.763,1.531,6.203,5.21,6.147,9.272l-0.118,11.601l-29.648-12.213L487.631,327.897z M222.546,591.099l16.04-171.239
			l-12.265-167.189c-2.771-38.228,19.307-73.917,54.754-88.501l34.246-14.199c22.58-9.326,47.987-9.066,70.374,0.72l33.947,14.896
			c35.126,15.337,56.439,51.49,52.854,89.65l-15.6,166.855l12.548,171.531c2.758,36.336-17.061,70.645-49.919,86.406l-7.879,3.82
			c-42.172,20.33-91.413,19.828-133.159-1.361l-7.789-3.98C238.167,662.08,219.048,627.373,222.546,591.099z M179.823,343.379
			c0.028-4.063,2.542-7.692,6.336-9.145l23.623-9.177l-0.188,18.318l-29.89,11.604L179.823,343.379z"/>
	</g>
</g>
<g id="Group_4662" transform="translate(79.122 82.941)">
	<path id="Path_2938_1_" fill="#00D5FF" stroke="#00D5FF" d="M68.782,164.711c0.332,9.014-4.79,16.424-11.422,16.725
		c-3.84,0.175-7.525-2.205-9.976-6.377L6.589,105.028l-35.834,72.703c-3.671,7.459-11.096,9.302-16.633,4.113
		c-5.536-5.188-7.104-15.188-3.432-22.648L4.648,49.667l61.486,105.557C67.732,157.929,68.654,161.244,68.782,164.711z"/>
</g>
<polygon fill="#00D5FF" stroke="#00D5FF" points="73.219,714.306 76.238,163.73 97.682,163.17 94.663,713.746 "/>
</svg>
