<svg xmlns="http://www.w3.org/2000/svg" viewBox="7487.383 7144.743 333.276 333.295">
  <defs>
    <style>
      .cls-1 {
        fill: #fff;
      }
    </style>
  </defs>
  <g id="Group_6770" data-name="Group 6770" transform="translate(7487.383 7144.743)">
    <path id="Path_2928" data-name="Path 2928" class="cls-1" d="M191.782,212.214A104.1,104.1,0,0,0,180.066,199q-6.41-6.108-12.818-11.116t-11.717-9.617a47.47,47.47,0,0,1-8.611-9.612,18.348,18.348,0,0,1-3.3-10.213,22.506,22.506,0,0,1,4.607-13.521A79.022,79.022,0,0,1,159.437,132.7q6.608-5.911,13.22-12.919t11.214-18.529a70.549,70.549,0,0,0,4.6-26.337,77.108,77.108,0,0,0-7.812-33.849,59.8,59.8,0,0,0-22.032-25.239h27.037L212.707,0H125.185A179.168,179.168,0,0,0,87.734,4.013a84.764,84.764,0,0,0-46.866,28.34Q21.842,54.486,21.841,82.527q0,29.645,21.331,49.271t51.173,19.628a115.23,115.23,0,0,0,14.02-1,43.361,43.361,0,0,1-1.4,4.3q-1,2.7-1.6,4.307a21.831,21.831,0,0,0-1,3.9,27.351,27.351,0,0,0-.4,4.707q0,13.22,12.818,29.844A236.552,236.552,0,0,0,86.735,200.2a229.038,229.038,0,0,0-31.044,7.212,96.447,96.447,0,0,0-29.041,14.22A61.077,61.077,0,0,0,7.422,243.766Q.011,258.589.01,270.806a49.644,49.644,0,0,0,6.009,24.336A54.073,54.073,0,0,0,21.44,312.966a92.065,92.065,0,0,0,21.732,11.619,126.066,126.066,0,0,0,24.434,6.708,146.617,146.617,0,0,0,23.936,2q53.674,0,84.12-26.235Q203.7,282.622,203.7,250.574a67.022,67.022,0,0,0-3.306-21.333A59.745,59.745,0,0,0,191.782,212.214Zm-77.211-72.8a38.892,38.892,0,0,1-19.428-5.21,51.548,51.548,0,0,1-15.623-13.521A97.378,97.378,0,0,1,68.3,101.953a102.571,102.571,0,0,1-7.11-20.83,91.832,91.832,0,0,1-2.3-19.829q0-19.227,10.216-33.048T97.947,14.425a38.378,38.378,0,0,1,23.935,8.211,57.238,57.238,0,0,1,16.826,20.83A131.537,131.537,0,0,1,148.12,69.6a107.742,107.742,0,0,1,3.3,25.538q0,20.032-8.712,32.154T114.571,139.411ZM169.95,289.822a39.407,39.407,0,0,1-14.919,14.719,75.91,75.91,0,0,1-20.129,7.815,98.532,98.532,0,0,1-22.533,2.506,109.516,109.516,0,0,1-25.436-3.005A101.378,101.378,0,0,1,62.8,302.743a50.189,50.189,0,0,1-18.626-16.824,43.013,43.013,0,0,1-7.11-24.336,42.248,42.248,0,0,1,5.407-21.432A44.088,44.088,0,0,1,56.29,225.132a78.219,78.219,0,0,1,19.628-9.212,125.031,125.031,0,0,1,21.63-5.008,158.644,158.644,0,0,1,21.23-1.4,93.761,93.761,0,0,1,10.016.4q1.2.807,6.109,4.206t6.611,4.609q1.7,1.2,6.209,4.6t6.408,5.106q1.9,1.7,5.506,5.106a38.445,38.445,0,0,1,5.308,5.908q1.7,2.5,4.206,6.1a25.139,25.139,0,0,1,3.506,6.914q1,3.306,1.9,7.21a36.09,36.09,0,0,1,.9,8.117Q175.461,280.41,169.95,289.822Z" transform="translate(-0.01)"/>
    <path id="Path_2929" data-name="Path 2929" class="cls-1" d="M369.274,51.275V0h-25.64V51.275H292.358V76.914h51.276v51.275h25.64V76.914h51.27V51.275Z" transform="translate(-87.267)"/>
  </g>
</svg>
