<svg xmlns="http://www.w3.org/2000/svg" viewBox="376.153 7057.158 357.746 357.734">
  <defs>
    <style>
      .cls-1, .cls-2 {
        fill: #ec1c81;
      }

      .cls-2 {
        stroke: #ec1c81;
        stroke-width: 3px;
      }
    </style>
  </defs>
  <g id="Group_6412" data-name="Group 6412" transform="translate(224.153 6811.158)">
    <g id="cancel" transform="translate(152 246)">
      <path id="Path_2866" data-name="Path 2866" class="cls-1" d="M178.873,0A178.867,178.867,0,1,0,357.746,178.866,178.864,178.864,0,0,0,178.873,0Zm0,324.2A145.334,145.334,0,1,1,324.206,178.866,145.33,145.33,0,0,1,178.873,324.2Z" transform="translate(0 -0.004)"/>
    </g>
    <g id="coração" transform="translate(238.817 348.138)">
      <path id="Path_2949" data-name="Path 2949" class="cls-2" d="M187.5,53.895C184.754,23.721,163.4,1.83,136.669,1.83A50.523,50.523,0,0,0,93.384,26.77C84.293,11.213,68.657,1.826,51.136,1.826,24.412,1.826,3.051,23.718.314,53.891.1,55.224-.792,62.238,1.91,73.677a84.866,84.866,0,0,0,26,43.389l65.429,59.376,66.552-59.372a84.876,84.876,0,0,0,26-43.393C188.6,62.242,187.708,55.228,187.5,53.895Zm-8.632,18.128a77.617,77.617,0,0,1-23.8,39.676L93.384,166.726,32.766,111.714A77.671,77.671,0,0,1,8.942,72.019C6.385,61.194,7.436,55.079,7.44,55.04l.054-.365C9.842,28.24,28.194,9.05,51.136,9.05c16.929,0,31.831,10.4,38.9,27.143l3.327,7.885,3.327-7.885c6.96-16.485,22.65-27.14,39.98-27.14,22.939,0,41.295,19.19,43.689,45.968C180.369,55.079,181.42,61.2,178.863,72.023Z" transform="translate(0 -1.826)"/>
      <path id="Path_2950" data-name="Path 2950" class="cls-1" d="M42.118,7.9A36.16,36.16,0,0,0,6,44.023a3.612,3.612,0,0,0,7.224,0A28.929,28.929,0,0,1,42.118,15.128a3.612,3.612,0,1,0,0-7.224Z" transform="translate(19.28 17.661)"/>
    </g>
  </g>
</svg>
