<svg xmlns="http://www.w3.org/2000/svg" viewBox="1891.385 7058.389 357.283 357.272">
  <defs>
    <style>
      .cls-1 {
        fill: #ec1c81;
      }
    </style>
  </defs>
  <g id="Group_6284" data-name="Group 6284" transform="translate(1739.384 6805.389)">
    <path id="Path_2866" data-name="Path 2866" class="cls-1" d="M178.642,0a178.636,178.636,0,1,0,178.642,178.63A178.633,178.633,0,0,0,178.642,0Zm0,323.777A145.146,145.146,0,1,1,323.787,178.634,145.142,145.142,0,0,1,178.642,323.781Z" transform="translate(152.001 252.996)"/>
    <g id="exclamation" transform="translate(302.113 334.605)">
      <g id="Group_4415" data-name="Group 4415">
        <path id="Path_2867" data-name="Path 2867" class="cls-1" d="M189.361,301.5H154.815a8.756,8.756,0,0,0-8.638,8.636v30.228A8.753,8.753,0,0,0,154.815,349h34.549A8.75,8.75,0,0,0,198,340.363V310.135a8.759,8.759,0,0,0-8.637-8.636Z" transform="translate(-142.125 -158.995)"/>
        <path id="Path_2868" data-name="Path 2868" class="cls-1" d="M195.163,2.564A8.088,8.088,0,0,0,189.157,0H145.976a8.088,8.088,0,0,0-6,2.564,7.948,7.948,0,0,0-2.361,6.074l3.777,103.636a8.682,8.682,0,0,0,2.766,6.072,8.517,8.517,0,0,0,6.14,2.567h34.55a8.53,8.53,0,0,0,6.14-2.567,8.7,8.7,0,0,0,2.766-6.072L197.525,8.637A7.935,7.935,0,0,0,195.163,2.564Z" transform="translate(-137.603)"/>
      </g>
    </g>
  </g>
</svg>
